<mxfile host="65bd71144e">
    <diagram id="HIP3nbAZw_EuaXWnEj3U" name="Page-1">
        <mxGraphModel dx="1301" dy="817" grid="1" gridSize="10" guides="1" tooltips="1" connect="1" arrows="1" fold="1" page="1" pageScale="1" pageWidth="850" pageHeight="1100" background="#007FFF" math="0" shadow="0">
            <root>
                <mxCell id="0"/>
                <mxCell id="1" parent="0"/>
                <mxCell id="7" value="&lt;font style=&quot;font-size: 24px;&quot;&gt;Number Guessing Game&lt;/font&gt;" style="swimlane;whiteSpace=wrap;html=1;startSize=50;fillColor=#fa6800;fontColor=#000000;strokeColor=#C73500;" parent="1" vertex="1">
                    <mxGeometry x="30" y="40" width="1019" height="590" as="geometry"/>
                </mxCell>
                <mxCell id="8" value="Select a number" style="text;html=1;align=left;verticalAlign=middle;resizable=0;points=[];autosize=1;strokeColor=none;fillColor=none;fontSize=24;fontColor=#000000;" parent="7" vertex="1">
                    <mxGeometry x="30" y="85" width="200" height="40" as="geometry"/>
                </mxCell>
                <mxCell id="12" value="" style="rounded=1;whiteSpace=wrap;html=1;fontFamily=Helvetica;fontSize=24;fontColor=#000000;fillColor=none;strokeWidth=5;strokeColor=#000000;" parent="7" vertex="1">
                    <mxGeometry x="40" y="160" width="170" height="40" as="geometry"/>
                </mxCell>
                <mxCell id="13" value="" style="rounded=1;whiteSpace=wrap;html=1;fontFamily=Helvetica;fontSize=24;fontColor=#000000;fillColor=none;strokeWidth=5;strokeColor=#000000;" parent="7" vertex="1">
                    <mxGeometry x="40" y="250" width="150" height="40" as="geometry"/>
                </mxCell>
                <mxCell id="16" value="" style="triangle;whiteSpace=wrap;html=1;rotation=90;strokeColor=none;" parent="7" vertex="1">
                    <mxGeometry x="190" y="167.75" width="10" height="24.5" as="geometry"/>
                </mxCell>
                <mxCell id="33" value="" style="shape=image;verticalLabelPosition=bottom;labelBackgroundColor=default;verticalAlign=top;aspect=fixed;imageAspect=0;image=data:image/png,iVBORw0KGgoAAAANSUhEUgAAATkAAAEACAYAAADIlAGUAAAAAXNSR0IArs4c6QAAIABJREFUeF7svWesZVd2JvadfO69L1fOOWcWi1VMRTY7UupuaVrd8kiYscZuyAYGtoGBAQM2MMB4AI9hzJ8ZYOAwP2YAwZJnoNBiJ5JNNjMrkJVYrJxzeq9evulE61t773vPu/VeVZFsSd1SX6J43j33hH322fvbK3xrLQu//vwK9oD1c7huF5K0y4cTAnkYwfJg87/cAv9DbiOHhSS3HMC2kVsArMSClVs5YPMoC0h5KCzk0g0WrMz0B4/nnqnfeZ768Bz1N8/Vp5kfHX2Q2dr6UtzycGkM2Az13Xz4nZ90hrfSal3H9TsP5/nmPubv4uPwOuZaOezW37oTpLekXXnebmzxJmx8nsFmV+btZ2hds91LpremPqjpxEz1ASwbeZ6D/6kutWFZluxTvW16Un+X15nC4vsqdqC5LtufAzyr4+eMQyAHB0GWZ6ob+I/dlACIAUQ5cAPApGVZEYAuAK7qDt0geX7HsthwWGw9u8EFLC8HvByZNNhCnnmul1lpZiV56gDZhRT4xgyv969ld3sI/7Vc/tcX/aw94Nre6SzLZufIfSATbAiD0I6SGFmWWXme27AtnyOYWOblavATq1IOZ0vDA0e2GnUy0M2L5u4iAPA386/YVu7jzXmsAagClsmh5tr8ndhn24DnOHAsW//LEXg+XNeF77hwvcJvjgPbtuG7LueaTEhBW4uAkyFNMmR5CkEbzke9zeRJDHzlgsmcZvzdbFOZs5ZcJ4oTpFmCOM1km6W5bBN+T1Pkloc0z9i38j3NU5npfO4iOKortj9FoC72G48zoGL6q/jdnGfO0a9JA1v7Sm0ANvvaQKyux4fOYNmdsK+OJ3opkJnpo843BxgsfdR4bfU+4U1AWP1jbxefyfxtgJpjguMgihv8qW47TpbmWe45bp7F8VAKrHzUvT/v778Guc/bc5/jvADW6wnyTSkQwLNE7kKaK4wQrLFcZLk3BWwcG2lcGMgW4HlqgMXNTEkBBamoKCHxbwNWBqjMd255ozKXac9CpdSFcuDDdz2U/QBdYQll30c5LCF0PAS+D9+x4dmODNbQ8+F5HuB6Alb857gWXNuB4zhynG3l6C5X5Lvsdy0BPx7r6i2PyfNMQI7bFsil3GegpQ1qala2v4ugJaNYCabcCsjlCuR4vSRLkKYEshRJlgt4CohmGeI4RUpxxoBcmiLOUvU95++yuCBOE0RRhEYUyT7+S3NgvN6kPIU4SZAkCRpxBC5IzTRBkqWoRTyO56eyX35P85bIREClqGTEKSN5FQHWgGURzsxilUw3g7kuCOIT7PRZMsw6Pm2pfcoPLSHU4sB05PmNhFm8igC62VFEcjMg+ULyHLbnIYv5ROr7VAmVB2cIc6dpA3EdeZw7+Xmk+e7PMcWmPeXXIPeL6snidSz/VbsULMnqjS5Ylm9luWsj90PP623ETZl8jm8hSZQ+IWOBSoJGO6UXtAGKYMQBxa1Z+UMLaGhJzQdQ8ghWAbr8EGXfg+/7Aiw9vV0CSkEQoCsoobtURk9YRsUPEbg2+soBSr6HchCK1EXJKnA8lDwPoe8ja8ZwYMHhMOeEEURQ045gxYlOqHUobXEYW5aS6vT3LE7UPgGzXKl2WlmihEYtrKWS6fPl8am66QnxsFckx8k92+qnnC/zKYflOq1rqQ7WGragKlcZ8111Oq8lWxEelWRpQFUmdEFizGwHse0hoVKW5wKOlAYJbgm3eYZGQsjNZb8AZcJ/sfpOkEwS1OMEjUYDjaiJZiNGPWqi3mygGUcYm6gq0GxyX1P2RVGMZhShiVzplgXJUw+dogWhJZGapaEoJc5kFlALhlJ5pyJg+wf5Sa+qPF7+5HgwuGp+50LoOMiahHQgCEI0Gw1YYkRJAC6ccQqXZgPLEmk6gDMeI61nsC6lSJ/5ItP01yD3RXqvcK7rusfTNF1mOTYxJ8xSC64fIok4DDmTOZwIBxkCBzLIOWcIXHwJBDaeyKMCAN2WjdB10VfuQm+5C2XXF5WgOyxjVl8/enp64Do5Bga65HoEt27+80KUvUCkLMe1AZcWOaVK2pYFN7fgZoCfExhyJHksINQa1CLxUIoSqxAKNjpYDkGBwKSWbw5oJ1O2JJn/Akyp0i717OChAnJmnwAkYSOVdrFHxLxUALgpK/2j3g9NjwWNtvPwTINd8frFY6yMaj8lPxuWNJINVt9zi0DON8P+oISYavVMKfFZniOhyqbtZ2y3+VgiSeayEEzdrwCYH8EC20EioEqA5VhwwDYLMPL9pDmiNBGQI7AR8OrNSL5HcY5qPZHv1VoN1UYd1WaEyaiBiUYN1biJsXodtSRCPY5QTylhEmwzWSAJjkY1N+Botkbtlu109kV9ILuqaG81z2/Ol1Eu6MetFvvSXEDPdl0kSQPgOG1monXw48uSmiKwPTSzGJlrTUZZfAkZtj1qOEz3+69B7vP0Wusc95hjZUuzPAsd3yklSQqbEzfJRd2LGnWRgjgNAsuFlSfodX0MdJcxu6sH3YGLef39IhmVwxC93T2iKs7q7UV3qQI/zzG7fwB2qq7n2xa6K12Im3VEzQSl0EUaN+DYGXy48HILHs0sKZULsdAJIOW2JVKJSDYJpbEEjgYd2/GQFdQWAzCcZJxqVDWpbvFq3GPrkZhkmZiv3dwRUGsPpKk2IiPh8RkN2Knuy2XVFilIhKc2uBBkLBGbFLgoODCyWnE7rc19yhslyBgQ5DMVzHtynIDQFLeDbp0GaT67AanitgVcGmR5FQPsCuyJVOqZzccsBPL0+vp5qiRd6XdRMx0lTRqJkxYNkTAJNu39WUbbIuDYIagQEHD5nuHYSKwc1SRCM0kR8e+4iWrUUBJinKAe1QUY+fe9kTE00wz1ehOTtSrGJiYwXpvEZK2ORkqpMhaJs6nfgtEkDIiFBa+FeU4ZJ3o/gdR2HTTSFF5YRtyIRJLL2bakCXjsp1SZn7XUSPNInirVhsuJ4/loEgyBU8ix6bNO2V+D3GfqMfsQgNWy2Fi2ayH3PIrWrocJvhSKS44PO4lQyjJUAMwCsGXxfGxdtwaLZs1Cb9iNOV29WDgwD3mcwHdzlELKcEB1YhJ9fX2oVydk0NMelkYxgtDDxNg4SqUQ9XodfuDKik81lHYgcZaK8RcCiGIHEaGEEy/TflWtlolHjv41JWHlWhLj/bnQKqdrx4S1lGRnJl5L3clziH9NX890ZXFiU4I1qud0XW07Qcuxa2xw3FJmLCISJaOiLe5hJvXifaTdbN90Z9sQtZKSU/EzFYwfPkAyPRlpu1IgpfpDwXgbzIyNzPzGezo5Fz++C2VDFDDTEp0BwVR/55uRRcuyWu3l/ehw4stW5sj2u1M2xhxuQB9Vru1qSv00/ZxSqvfKyHKaThI0aTNsxqiL5JcgylKMTI6L6jxWrWGsOonxiUlMVCcxUatiMo5xd3Ic1TRGLY7RyJRrtmhPZLMIkHydTe3K5Veulb5noxZncEMHzWYKJ/RkvPNBbdp0xe9GC0mKwA8QR3U+5wSAdxLg2487dX8Nco/sKfdjx3aWZ1lctmCVKdNQFYyTWOYg4YncjYaWBkRXBbB99mzs2bAWT69fh42rlsPKYoS2C4vLbmzBbuQI/QBJ2oQXuGKTKZVKAmJhyZetGPapUiQxwjBEkkQyWB3fgZ3bYsRW2rGmYnAEp7R/qcEuUqRMOLaawKXsQ7LL1hOCA0mrkDJPdH8QJEWCKtjFipNWzSl1NCcsj+ck5ZbfqQZKuxxj82rb7KZ0OSVPMUoqSS5XJ8Nh6y1OTtUOI9l1SnQt6YpHicdZT3Z9kxbjwQBP0cikJaNM7IdqQTCODSXcTrXJdYIsjxd1XB5NU0CMyUrf3wCoYduYZ2dfEeR8kYi1xKrfiTlGzAC28aqq6ysJ24Ap1WV6iJW0mYuzRr0DcQTZNpKI2oVy9EhfmPfC3x0PcUSzgaariBSp1FMK/FSjqQlQMqRKLosmWUlZKg6YRpZhLMswnsQYbVQxWpvEeK2G8eokamMTMqZHx8dEhaY0OVwdR5TlGKtGAoYCYFrio5xGMBRHChFQGwtttjtTi16LvWTRFpn9OXJ895HT96Ee5sc5++/qMV7pE6T5KuQ5xQzX4cvNOCzVq6GZRsT1lLYtZVcrAVgWhNi1YgWeWLkcW5ctxYqF89FsNhB2V1DLUlkNPa8koyiuJQhKIWJ63jIFnJ6vjOTUQww4ceAa6YB4YfZTcuCHXj6ZCFkG3/NgWw7SWAEwPZxi+xMth3YONQlE+eROemgzJdnJxMlyAUjxjNJ5wGdOM5HW5PeCEZrHir1Lq1FGPeGxlD6M043tUu1vq27GoSASKFU6Ue8UqIhEWjDw56kG5Q5ZTI4TW496JjF4K+uYtKntUJgKrp2gJ5KROFU4gbkU0BPUBlWCrNgzbVctEoL7BA5X9udZAsfhMytbJt+FwLJeHJTRQIGgesL2R/olhXicjfRclHrVtToWoYL6q56FkrqSrTslFvmdtsYCwIv9TH+X9+Ra0m7TRuOwMee1pdy2dNp+HnaAjdSy0PCAiLZm3QiaQxyq05aN4dExpK6NiWYdg6ND4jyZnJzE4NAort28h+F6DecH72A0zzBOjUY7UzxKePTKZkDg+ooOZPrSwgTypOdxIOjXkpzpJQsfAVgFuGVS0zi4bHoX4wTgQEYKn4hnK1sIO86A295t2/HE0mXYunAB1syZg4qdwaW9yQbG8wynr17DT996G9fu3EEQEORs+PTMEeAsIE7aQEabF+1gHIh0WoRhoKQyTdPwxImgaBhmYpTLZflbOTPUua6ltn5AObN4jgIbgg7Rzw1LbbsR1U8oGgi9ocLuFMBre02L6pj87ah2mH/FtnEfwZtbztfiMfJM4lzhHXlfXkepKeKpk4nPSaK+T7uf1gHhBpI9p8FJb41kKGqkOH2mt+mJzY4AZziuGgAMSJvnaYGXdsqYPmw26+3FiUKIfncG3AkkAnGaayGCakGlTRIFjAZ4ZHDp/mb/0LZnnDbGlGB+58qQZXQdcPwoyVfgXW95HMHXtN08IzuUi1maJ8hzAod67+3j1IJmxpe0t4OCQkmbQGaTNmxZqLsWmm4ugMdFqpzxCJpP2LoMEXKQbOOWAlkA6rUaQi+Ak7oYbzZxfXQQZ29ex8nrV3D21g1cGrqPCYVv4hzhkzlugAlqUH6APCWHMr+ELF71KKD7ew9yjo0LWYbFYegGjUZCU5sSzTWbkpONAEfbm5srVZR2tvVLFmLt4sV4asMGrJozF7McF70B/aI5akgxZAMfXb6E90+exv5PTmCkQSpGm0Bb5EMVXfryMvWqTKNt56fIizPKFeVLs5++QDXsFRAbdcBcx3jCitc19qrOfZ2Sh5FCDBWhvT482E4zsETY0j+bv7V8IuBlNGXzzFrAbFE3HMd9KMiRu0evqE3HjtimHLWlGk7vqMX3yQmhjjO/i/dUJMA286sI1kZ6NQBUBG/pFy1FUYqjBG4AwZP20limFq7A44hp94ExIRhQc4JwykJhgIwAR4laPhooW9xCs8ghQ6UUirXOLAI5FwcjCWspVdpW8DIbyo1Stym1KkAzAG2AVRYpkrUL0l/bBMKwBgs9Dsd8hrpro2kn4qRw8gylzBVTTugESNMYsTgfmuIppi25q1TGou4BBPUGypxzjo3MthA5Nu5MjuPUzWu4PTaKQ8eO48K1WxhGKlJeHIZoUPAQcd0BkugEkG15GND9fQW59y3L2pjnedkCwkrJRb2etFzlYmOXF0TpKJeX1Q1geW8Pdq5Zgz0bN2Pt4iWYHfqwmlXM7e1BY6Iu7vlJ2Pjo0nm89slRHDx/HvcSRQmpwMHzO57EqkULMTo0iKDsyWAcG53Ug4iqpTL8xnksk4jG4NbqqycW1cSWUdp4PG1baAGkFdiuDyfwxWZCQqpZzUmEVaROqqCJrIR0atHxwI9Q4FLe15IAHUoepEyoCAOuxZxKqRipRd0VpnsG13ZFmuCaYAzOmvY5hfmvrqLnbMvy1Q7rmp63r44vDlIDtJ0D1wD1TPtnmgTm+ClqZIdaWbynOb7Y3uIiUVyEpls02pDajqUyC1Jx0eBxZsEqPlMnXaOzHZ0LlvGGyjgoLDbmXmZx4Xnm2p3PO9OCRU2GEM7fuSCLMYdRLxZQzoHA9sWJQc4mVdkqbcieI95/PwWW9w3gO3v24KUdO8UBQ9sbHUHwfdQcCwlV3MkYF27dwqXhEfw/P/pzXOeYL5WRNDnmKKViIsserrb+fQO58wAWWZZVEiJrSq+N4kFFUQYuWtQWCErkknG7xLOxeelyPLtpC7auXI35Pb0owaJ7Fa6dwXZj3BsfR8Mt4/Tt+/jRvo+w/+x5DKIqL39ZuRfr583Bt3ftwY5VK9AVeKIm1kTNACqWjbTZEBuP55FdTkdDW4Zr1qOWA4EqK1dzUf80+Ajk0FZk2+LyT8jwtyxh2nt+0bOmvJyKlmEY/RR2+Py0y7RBTuxnOQ3eKaKIFAdteCbsEeQkgkDZ9mjFEtAT1YL/U995Pm1FMQejnghCc6DXTxm2BDBTCePKJSKAINy2DynpgsBtPi0vYcF50LJhcYIQxBmqpb2JPI8LhSLotq/N3w1pN6ZdUtvTDD/QRD8Y26GEe+n2mfuptqp+EQM+CcD0dGtbqaGeRDnfs7ZpUrIS26H6T0DHhA/rRcJEPphn5ttRb03bgQvIWQTmVh91kKKLEa8G8MzWmFxEWCwsJp2RFeb4zv1GM+HvhpBspHTD/+Q5dQB0LDS0g4rPROYBA2LX/RUv9H//Z/8dFvf0oZvE6qpyuNGGR7K8BxcxXJwbHsa/+9Ff4Cc3LoFigW8FiPKYDggKj8r7NsPn7wPIvQJgl+M4fWmaCrgZ+5WoDGKHUvY1Xy+DdCI8tWwBdqxajWc3bsK8Sg/mhGURz2mHoJ2Kg3wiqaPqA28fPoyDJ87h2JWrGCSBExb6/D7s3roFz2xYg2c2rMNAFsOpT4KeDEYRUGRnnGd9ZBSToyMSMiTeVFu585NYTUpR8bT3zthNjI2NHLSuUogECexyWUR9t1KCV6mISE+PrBWlynYiXDZlpE5tAqPiXiFVNjMV503vpvKIkrJhJrmhJki/GZqD9vSRAyVOmA5qfMvG1PIEqqFGCVDZkTR/jTw93jml/UjtL9qYDBnX7J/Km1NeRLaJEq5pW3GsUwUzoGc8kwaoCHypox0PmlohDkg6XPSWKpEJAzP9wxdiYkOpObGNLZAzqqG4nC3Umg0Td6YcNRqAU3HcKOgSiVnb+lpbLQe397eleuO9pnTdjLmIaM+ujhIxz2fA3LwLAW/xGOt3mwGhG2pnSis+Tux4srDZlnj5hfKnz221R5waSivgWIoI2wR9Rngk5GPSU2qhZuUYTJsYsiLcHRvF6NAE3EQB3BwA/2TvM/gnv/EyrNFJDPg+EEViw8hcG1maohS7uHd/FK8dOYI///QQjiDFcEsi5YIuzo5bWZYt+nsHcp7n7YvjeLNt291GOhBiK8VhTQKlVMGXbCUN6fSl5R5sXbwQX9v5JDYumIf5XRU4cSxhUhwedUoFXGU8B3fvD+P04D38+eFPcOjsOdTTTCS/2QTINRvw7I4d2Lx2LXp6unDi5DEMDt7DvWuX0JtbeGL5CsxObaEPcAWcqNZkYFGsdzxXSJ+EN05CtllJDcp7yA/3yT8apiM1Ue82qjh+6RyavoP1m7dgyZIlWDQwD5XMRpBm8DMasDOhAyR2jphOOzuTAH8juRnSLb9TXS16+jgxinyyFgtejNttmcKoYwb0WkDZEjXa4QlCgtf8N+NdLcagcg1iIL2Ef2neXDFAX9qkk3AIhBYcIMWJXWyrOqy9thsVvmiro+2OEqvxonIrQehFw77Yy9RCZMYVxxb/NmAu7eu4n/pNkYW5JePR7BPw0ce3IjWE62giR7UzgM4no/zT1liU7gpAZ8a5OFdMmJy2v/E3cUrQZtlyAKtV3swX4zBqt1mTzPW1VMMZiqVY4mLXowuJ+zIbk1aOIcQ4Pz6EP/3gHbzz8SciUDBeepnXg5effAq//fQTWNHbjXx8Et2+xzw5qCcN5IEHK80wevkuDhw8jON37uJobRgfAhjRvHERAByX4XIUFCmbTPv5OyfJ2bZ91HPcVVEcdTN0RDyODG3iKpNlrTAqdjZBiXLuloVL8dS6Ddi5eiW2LFyEPgsIGk2UJMNDJupM5Fmoex5uTVZx5NwZvH/4MI5cu4vb2taxrFzGnrVr8eK6jdi0fAn6urpQr1fx9nvv4+DRw2haGebPmY0N8xdg/dx5KDcj0Y0jJ0CUZhLnSNf6RL0uW9rT6D5nPKPQE5QmqDJ6MFheAuZ9zO7pF5DxB/pwb2IYZy5dwrXb1yVWdc+WHfjO3i+jixkBMkqhRIRUvL50+Qu3JIlV0HxheJiVnhPDkUlA1bJtCzRAUQQLc7o513yf4tkrgGHLyK/thsVrtWyOBY6eAgw1GxXXT6uArWCgtlVOLIlcFKxcvMzcSjKgQiIAA6ZKwlWfKeD3OLGzlgI5l1KHVofbIGckJt3ODt1Snl8cw2pbTDzA6BS1FOewbEX9KSYcULG1Oha4QOyeboYXaS08R57XUEhMJIXmKoqWQ1aI5tspM8XU6NZWH5lwOrHJGo8wpXMHUWZhMgPGLODNY4fxF++/hfOTE/L2KEy8sH4j/sFzX8amhYvRR2W0UZOwRDRrIkxMRFXcGR7EmdMncevERQ5RjPseTqUNvBkluMdIRY4Dw6Wz7TTLxO7ydxzkHHyMDBusHBV2gOd6wuAWxhYZm/SOMnxKG0tXlLuxY/lyPLd+HbavXolZ3b0oUbVpNJAyqoCxn56D2MrRdCzcnJjAgbNn8fax4zh+7TqG9eSYbwN7t2/H0xs2Y/fajZiVW6g367jSGMUPXv0xrp65hDVrVuPW4F08u+dp9DoBGlED10YGMRY3cW+EMYYJRsfGpL0SdpOnrcBrvjUJaDF2Lf03wbkMC90oYXZvP3r7ezDQ3yMOkaH7d/DuwQ/g/dUg+Bf/9fexft5CdAcesnoDJZ37bMKJYfueqBVicJ7GwNMJWDMNoun2t+JRC9ct3sMQOmQqa5SZrg1ybR3iJHw2UZPbE7XddnVFkZDoVSX4aWay8Mg6wsbM9xnv+Vke9gscq1L7TQ1rU2rsg5QXxYcr9tyD761Tan1U00xInZKoDeDrl2bRGadVV7PIMW0hvaEZUxWSMqIIy3Q2MBlBRE+A4+LAxSv44b79OHzpAiaQioNiQ083fuf5vfjqrl3os3zYjTpCJ0cWNRFYJBHluHfrNo6f+ATnL11AbbIKX8wnLmqWizN2hteaEW6JBkAzBNuciS07juO7AOZP97y/+pJc4LyHJN2CHH09XV2YHK+qYPEC7ZIQz39cRTbNnYNnNm7BrrXrsWHhfMzmC2CKnEZDqRo20wc5yMISRpoNDMV1HD57Gu8fOYoTV25gRBt2F8+ahfVLl+K3du/C1sWL5aVhsgE/ymB1l/B/vPLHOHrpLL60+wUh7H5w8CC6u3qRjtcx2qjjGmIhPZa7ujF7/gIsXroES1Ysx+y5c+GXS8JfM0HaVMNo3Kb3c3xsDIODd3Hnzj2M3hnECMmU94Yw2RxHl+ViRX8f6mP3MZxm2FB28S+//0+xrKcPHoOgowbKejBPWBEc14fdkiQeHB6PA3IGJDonVydwmeNa3kedIk5ydmoNViZZB9ia6xgKhAE48vMogSZRpMLaNAn3UZP6F/37o0DyUaDzqPM/a3tneg8zSjna3mt+V+0xKbyMDU8nZSDRXJww4m6B47rIPBeNhNEPOfLAx+XRYfzkw314/dAR3OGxNOHYNl7cugXfevoZ7Fi0SGgjqDXQ111GGjXERjt0ZwinT57EpbPnMTk5LhKlS9twrIL5q5aDC3aOn0YxrgsJ22QzpE9XJEn6NyjDPPD5lQW5wHdfT6JktwX0Br4j3lEGA9Fmw/dkkwaRJfLU81xg08J52LtlK/as34h5XX2ivpXYkUkMl7Y5PxBP4VijKVycG3GMd08ex8+OHMG5W9eFmMjVaNNAL3atXIW9Gzdhx5rVSOlEyFKU7EA8slbu4lZUxX//f/1rxP09WLJsJe4OjeDkpYuYMzAPi/rmY/HKFViwYS0WrVmN1WtXYfb82RiYNQvdfb0CPDLp6bFLE2SJjjVlTiKSkpl80LHQrDUxMnIfk+MTOHD4IP7jH/8RPnzvPXSRspICKwD8Vy9/Db+59UkMMJ8X0wBlsax6lIbIVyKo037yRSbaw0BpOtAqgp04LDpAbupka0t5RZArEnSb9XqL7Dyd+vxZQeJX7fiZFpnHfQ7DE6TEJlKbhNAp8rL8xqSsVEF1fjyq5qXQk2gYmlIaqYW8dwA34whvHf8EP/loP07euimww7m3d/UyPL9tG55avwFzSxVYzQR+kgqlCmkTw0ODuHT5As6fOoehu/dUZh4KGZL7T9m5iXgN28VFG3g1jnCVzoac1kxXaMYa5Oi1mpKLsTWWHrczfmmOs/AXAJ6jc4Yvg8BD+5py1NMISx8kIxRyzLYdPL9lI3atXonda9ZgcYXKXQ47SSSQneFEEqQchqg265hMMlQdFz8/fAg/2b8fl8fHMKrtdgzR2rNhHV5ctx6b583HHHo+6RENS6jXmgh5X4KcF+JGcxL/9mc/xKufnkJlTjd27n0Re7/2DWzavA0LZy3EnLkLYXUHyF2gVq2iXA5bHqyYAfa2Bc/xEJn02owzFJUmQ1RroDY5iZvXb+DKtcv4+NjHeP/D93D63ElMDI7DawIrAuC/2PMs/uELX8GszEFI9ZccOA5iTxmh00SBHFMlFT8GKDq9pQ+XBNq/FiWvXwTItbJxaM8k7Y8tex7tdJFKFfW3Jcn9bc+LLwJyPFfev/a4K3VYqcQK4BSQiOTmeIrakTXRaNQkAzU9+nXbx9Gr1/EX+/fh/dNHr6mjAAAgAElEQVSnMCjcAmB9fxe+vmsnvrptBxb19sBNeUomuWIdZj0ZHMSlU6dw7twZjI+OIW7GCMnxhIVG0pBrVAIfCW3XjA23XVx2bbweNXBZOHkkeSuQIyGb7z+O408YNt75Tn6lJDkHuJhaWGn5TMVCJivgpfTnpAgolaQqqmBpycGeNRvx5R1PYPOiZRjwQ5QsG9HkOLK4gTCwELo2ooxM7RImbRe3GjW8+8kxvPPpcXx6847YxLiKbJzdj6fXb8QLW7Zg5dy56IItkh9fBpc85sMitaRsB8iakhgGjbKPM81J/Mef/QSvHP0U3fP68fTXv44ndj+Ljeu3YN78haj09gu4dQUOAtoUyDsTrleKWqOOWrWBkZERjI+PY4wq6r07uH3zFm5cu4arly/hysVLuH7jimR+IEWEYE91fPusHvz+11/Gixu3IWQGE8ajkhLBGFWd51zSftOpIH02dQgUQe4Bz+h0qsAM6uWjJn9xchbV1RnPKyS7NHY5Hmu8k0XV2rT7cdTtR7XzUb//Taujj2pPpyT8qOPpjDKeWsJbyjhooWVwLxdExkB7YCgDqU1OqMjmo80abkyO46fHjuCNI4dxZbwq8DgbDp7ZvAm/9czT2LRkMRyGJjLhRJYJOA7duY2hy1cwceMabp2/LGYk8Yfpd+nSO0vPP8nrUER8+tYj28d138brjTouCMjZSATkTHyPPOk9Km6/kiDnAG9ZwC7LQpflqUBdlAOg3kSYAX0CczHWzOrBCzu246k1q7Bh7nwM2B4qsYO8GUuIjKOpICRoZohZpQN34gw/O3QE+z/9BMfv3hPFnp/NC2aJx/U3du3CfCfAXD9AmQHvcYI4SUESKQ3Erp3CTjKULRe2F6I+UUPTtRF3d+FyfRw/PPAhfnboEK5MNgQ4+2cNIOzuRWVgAAvmzUMlIF9OeaiEc5ZlqE7WBdiGhoZE0mMwc6NWFd6QSEf6H2Uw4taSXg+Lu3qxfelK/OZTz2Ll7DnI6nV0McSI0Q0ShK8MxMLL0jnSBNA0L6QIDCI0Po538SE2tEdNLoKcUVWnk/jM+SYGtJU1RbfLmOCpvptPJ+Xl1yD3iLegJTfCmUh0jHIh75C2TgKNHgeu66n8b4zxLYUYTRPsO3USbx89hDcvXJRxTXLvunlz8Y1dT+OlJ57E/O4u1MfH4QU+bt0fxJkLZ3H6xKe4c/maHLu05CIkHy7JJeW+w3RPEeNoVYZgMBtFptKIEQBjK8DtwMXrjaqAXE2DnONZiOOmWrBteyyO475fLZBz8DZy7ADQK65vLTWI74yB33FT5WubNRtPb9mCrzy1C3MCH3NKPlCrwWO+Lp3EMktJHFQOhcj3cOneID66fBF/SRvCnduyorDzN83px+6N6/HlJ57E4v4+VDILbkLPrOKKkOohEZCeLymP8pTkxRQJs4FYrnhjfeaBSzI081wyK1wdvIszl65i3/FjOD98T5wXtPHVp6nyZEDMhNhwJeOtDeWFdo65/bOwYO48DFRK2LRoEZbPnoUVCxZjbqULbiMWB4PjST4OeAmpM4mQK4UioOkBEitokkgWgtOLgehF+sFnVVcfBXItYHqEZ7WdxUTzyTp0DzMmPqua/bjte9Rxj5LkPqtk9aj7Per3ThupWQKmC5ujepowVQilqFSpqLYujETajXo2KoQZ7LCEmuvi6PVreOXAfrxz4lPco1OALk0f+OaOHfjWU89g9cB8OBlJwLaM/Y/OnMT+Qwdx5/IlCY1cLMd7onUxyxPJbbyNciOQa+cgyanyKkak8SVnVoA7JR9v1iZwlvNHpDlPZRAOPBMZw2AI3mbK55dSXfWAP4ktfBWWNVsSQJLakaRiVaww9COjRk5Amo+XtmzA3s2bsGreApQSekozWEmE0LWQEIAkbAewSl0SV3rm5l18dOYs9h8/hU+Gb6CmrZVbly0Rh8JvPbMHcx0XQTNCnx+Ie1sIuRTqJe8OA8C56uVSvITFWYRPRNKqbSF1XeQRHR6O4rbRKSLl7WyMxE3ciCdw5f4gbg4PoRrHmKgpybBarauU1lEkzoauSkWKxfT39qErDDDQ04uechllP0R/b7fs7/V84duVSJtg4HMGuKypYOfIAkfCwyR8mynN6V3loEmUqs2qE+TiGaKogGvBtmV4X4+ydc3keHjUZHxckDPtMtLl1HxqzMJsHDOFZJUm6+5j1Ih43HbOdNyvMshReIttlVRV0iIR5DJd1VJL2gkTW7o2rk6M4L2Tx/HGkUM4dXdcQqsqDvD0hlX49jPPYM/SVahEGSqWi8lmgv3nL+Djs2dw8MRxREiwynWwyPfRXW+iou/nskiTqMvtiBuVzEyBJzPu5JT2xEHlYTAI8VZjAmcAsZVHOvOK4ipKAllOZ8oqv9QgxxCs52xYA6qawFQiIm1ktDutrfTipe27sHfzRmycPxteFolthi+Kk9ilQZ0VlFhIxAOqjoVzw/fx7vFP8c6xY7g4Mi4iNkFz+4KF2LNlE57bshVL+/rQlWQoJZmkHgdtV5QEtVZnvE+MHDCrQ5QzdtGR+wswUIXNLYS8Ab2YLkT05+AxJFzznZ6rWMJ/1AqmbE3tAi5tgNEer1YOXb36MoecBNknUvKPYGYTiB0bVUSi/vJ3ScrImFeGpPFnxS3VtpdCDv/PMeP5zDRIs+202RQlQeMgKF72gegDLZ1PBxbT2QS/iCf4czzeA+FqxWuIOjyNmCDt1s/1QJqjz9EI4wQy/VmMJjGOmZZEa+6r72P60FBv2F6+J35IGI/iFJnD5Jtsc4bQ8sSLZzOSxg+EhPvBxbP400Pv48MzlySxJQWM1V0evvfS1/DM+o1YUOmSqBqu87cnJ/D6BzTRHBTTzxLYmOt4WMA6JGQHcIxKkSZKYVSOVCIlsXHLd857xZGQeiLiSeUK7GHI93AIMT5qxqINNbWcZ6KCbNuupWn6ywlytmv/2yzNvgPLWuw6viR9pOxE4GDeNU5iAtKKSglf3rYDX9m+E+vnzEMP647GDXhMYy0ZO8gnc9FgRg4aTsshzo/cw5uHDuLtT47i5nhDOp6rxPoFS/DU+nX4zZ3bML9cQp9fgt1M4DQSISaSpkGWf2ynSCkZafuFMdSSWMxXEdu+AJQY94UcyXoLtgI5Glt9RWkhuHCAMRuD5JOjJzbjSsY3ruJpTVSBYvQ7qlyvJrGqTL2GpKlAz6x5AjQ6nlbiPh06VVIWQdW51JQXTRIZ6mSGxibG8K7HlUamm58mrEkAWoc48Tij6nZ6aTvvZWojmCgGI1lKrGSaygo9BVimIS1/Dtx47FOKkq6RJqeAto4BNsk62a+dVJbH9VTPKC125Lozx8l1tUNmJpBTkSKqcJLkD9T9aYDOkKZpviBliQ6wIKwIP+F2tYY/ffdtvPnpMZyvV0XkGPCAZzetw2/vfhY7lq5CEOcy9qppguPnz+CVn7+BI3fviTi1OixhXm6hL80E4FwmdtAsCF2rWmzpbZAjL4KOD5XzRvIQq6xVkvT1vhfgmJXiYLOJQYIc01H5LmLxwMrnl1CSs/CncO29yO25fHoCVJpEYnOULLnNWLg2K0tlfGPLNnztiZ3YMH8+/KSJPG5KgLuky2bGEMcVsKAIO+FYOHrvFt47cwqvHPgQQ40Ykc4q8sTcOfjGk7vxzLp1WNLTjXJO+ofOxiHMVOYDo10gQ5RGIMc3Y+Y/1f1KEqJElEoWLwmKN95BSo6pq4gsJaa8Ikg6XO1tBLJ4Ml+WBjl52yRbctmcmjVXrb4qptQU7jXpyIs8MzY3ckkSThEQDBnkzYSZVJnjSFTUuqvE/SBRIMe2MlqNBW/4+cIgp0OsivHBMvky5b01+2eawDIJpd2K0GtARZIUJImEr0nPdYZFPUQCfGwEe4wDi3Gc5vDpQtDMotFyqJhkmY8gKX+RBaYo6XaCXPHRWn2qF2JTbU1CHeNIaolYmYM6C29XyrgZNfH6yU/w1vFj+OjSZZG1OA93LlqAbz71DJ7esB7zu8poTjYAr4Ib1Un89OgBvP7Om2JrXkMnRClEX5Sgi3ZhahJa7dRGE6S2jnk2yVlpcqHQoHmTTA1fBDkmTx32A5y0MxyoN3BLZzURojwz+TCYv1Sq1ev1Xw5JznXdf52m6e/lsBbB07nEmWabKw3VtVRJbvM9B0+vWY9v7X4ae9euQ1itIZ8cR085gB04mKzX4AY9gBtIvOd4FOHK/SG8eeQQXqfkljC/GxBYwKalS/DSju14fvU6LKt0oYd1E2jPyRq6ohazcXjCtSMpWPCOISdigFXiPddEo+65mXK119leFl1mRzPTr2SrVWX/FMip6ku+GHapuqrXLIZeAbimSp+qPypURX2U91PFG5r7c2u+i6vfJmk4E+mTUmGiCzx79abK2OpbMqBCNoygpnPvkDDM9piIg8eY7w8coryjWs1gcLpOvCigxfepM4A86tpGIimqtya9kZE8/rZAbjpgmyKpmZoJHSmOeJ4hMD/s+R8FchJvalKqt2JEH9SRZwI5I8GpaB4d7K9tr3Jt8b7TJONJVMHJu3fxykf78frJY7ijsxQvLof45o6n8L0vvYTFpQrisTEEoYOGbeHkjUH88J138fMLJxTlqrcLc+IEc2sNLCq7SGoq1ZYhekiUNAFORyKLc4FCwxSQY/0LqbrRngtwMO6FOOda2FebFK4cUzfJpy091/I8/1sHuX/n+/53oihaIKuL1GxUk0+KieTKuTAA4Esb1uHlnbvwzOp1wvfy0wQl15ZgaNrqTHHezAtxZ7KGC6PDOHDuLH5+5DBuTNZaleO3zZmLF7c/gec3b8KccoggTdDlByL50cgvmWdJ32CWVEEhVkxnDjVHYjsZPJ9J1LJCB5v8Mh5Lqc0CxrMEduChRGjjSkh7ndgcHGSMTCBOaZuceh/qeak+ujmVgqaAXWuw66wO7SoJhSnSUfGctjU/Y6hNLg6Ohp0LqFFdroxFArRJoIqTMI6VtsCapwP9qVqKx3oqGfhRgFT8nddlHxhpTGx+JuOFBrlikZzOc6U/TNC+KayjvxtvYDEMTID+c/LyPstzPerYVpu5AOmDW+qqSRyg1cSW/UxPyEeBWue9O0Guk+rTAmGzEHb0D+2yHOciJbuOyrmn7bEMN6yEFYxHMW41Gnj35GlRT682GEWiPPrPLluB7734FexYsgROMxJTSKW/B3eqY3jv+DH82Tvv49boqKRNWhN0oxcxeu0EXVaCqAZ06xTYzHOYMZifM4A2ZJLxZd4rkKJpik1vivr9IMg5uYNxN8DlwMOH1TGhkVRt5tcMRJJjSigd5v1ANpK/Ke/q71uW9T/Ztr3N2G7YImE/M1Wy5YLcNbZuaW8Fv7HnKfyDp57F7DRHbw5UqLLYOSbjplQIyrkqsXiGZePE9Rv4+Ox5vH3kEK7UGxLkwRVl66JFeHH7Dry4aQvmeR76HAu+uDtVTQAmbGS9SctWRnN2P/NnOqx+pBMkinPbYpolAqsCObXyKMMy87JN0OnhK5CjGmhSOclqb1P8VjYRAooCOdPlnBZMqZ4IwCqgFxjVx7WLLk8d+G0yAFfAMFXxhHngomorGyA5R5XJWIAt9xi6pZwNvD7z3xHs2CrjUfu8xnxOFnpoyT80GYtbGU1MzdFCJbDpQK5FUzFShgkE16qrKcc+k6TyWUHjUQDW+XtRXX3AkZLlymbcmcSzkGrcvK3OSJDHbQevbTKbmMSdJidi8Roz9Q9Td4n9jZ7/PBeNx/Zc+GEgFKbxxMHxa1fxw/fflWD6MV1jdcPsfvzOi1/GC2s3YsB20G25Ms6reYoLg3fwxscH8NMDByX+mkLJRrcLiz0PflRDaCdwnRQRy6qqQHLh3lHqp0mHxYuYKIJ5M8h84EdJcvSYqhrBXKA56yREU/rTwqRTwo0wwIfVEfGwTmiAFKHBZByy7f/1r97Zv5jSN4/b2V/guD9xHOd30zQ1SUpbSftMskqCGzvo6zt34sVNG/HksqWwJqroDxnW0RC6QwwLTXoQu7oxHmc4cf4i9p09hVeOHMJQlAiwcTXZNH+BMK7Jm1s+d67kg7PoyGBICe1jNJCzCDRVSteF7bK8oLL/ZOTn6KIrkpiyUH9UIQ9flDKJtkrN6aSb6lha2Jgep52YUKQ+2sCoHmogo/RDtVGV8tOg1qI7aNnA1CAokF1lIHcgkirbR9XQE2eDqKMcPc1EpCr+LlmOE3X/2MkE5IwtzqjRn+f9cuJy4QnLJelPFv0x0pwI5gUv40zXNw4HAwImN10rdMsY3TskFcOf+usGuU5gM4Tjlt1RJyRtL1I651tLcpvK7yu293HIygbkeCwlLyPZdTpEZgI5RtDwXAKUgBydeIEv0t3ZkXH8pyMn8daJE7g7cV+WcQLW3m1r8VvPPoe1cxegJ7cljTlLCU5mGc7fvYv//NMfY9+N60p6o0OQGXy4OFVrCGU+KC6pZ3mI80iVqmxlODGZjj0xT2V5pGzcsuRPD3Iqcx+reIW401XCB5MjOAlIzQfabGXutvP67QfwzN8UyP3Pto0/RI4V4kDU9RKUNETLVy4GfwLcVzaswd6N27B3/QYscl2EzYYKdaJHJ/TRoAHd8zCcpDh59SY+OHwMR0+cxfW0rjJ5MEJh4UK8RMltw0Ys6e2BzxAv5mljGhfJuKuMk5QMOECEKU9jqCkjxySIGtRkAEtZOhm6usK6Ku5LkFMhL0xCyapbXGaUJ1CV+tO8PlodElb4suHxBQjZR71p2sja5du091CDXUt5bKmRapK0sE3/YQzcGT2/pJLQNseknrwAn5XgygSc9GoxnxwdO9rDS6CLdfgOHRCPK8kZB0txW202UO7uEjskJw77lA4h07fFiITpgE55/9pFlTtJveb7wyQ5Axwz2e3MfR8FiMY+aerIygLFuM1U5SJkVTWCBFMKkdtIilE6WZU0Q5brSXk/sgPY78wezbZ3dZH0pCQZvhsuMBJNwAWXtCeJoTaZm7X9VZsl1JBRHmZK4wQ54YQxeseYBaZkAmy/S7MIUL2ktJ0xWoeOOdvCRBzj0PHj+MGHB/De8H1hHNCQtWPxPHzvhefw7Mb1mEXVslaH4wRSFHokzfDmvv149e23hKPGsIJlpTKWw0ZQnxSQcmlyYPtY+Bw+aoikJjGjiwSoKPk7pE3ZwizgmPFIddLEXxXZoOJ5SOQ3uYQEDLMcdYS4Vw7xYW0UDFJlvjrOqWJS0CAIzjabzfV/7SBnAa/7ofOVqJFK/tSWTlxgt1dgY23PAL69YxO+8eROLOofQBinKNMGVmelbOZmDjHhWRh2chy5dQOvH/wIBz45hRFOWA1uzy9dgifXrcGTW7ZiwcCAxGo6NILTaKqzdkyZXHoAmQgKEiDNp5MV3p4UKohIbBn6YIKdiMkmD7Z8K6qdeuDqtOPmfsYe8sCEe4RtrPP49oQWVFPhL0Z6aKm+qrFSbLhgq5EU6NJ+lVJHKrh3fKYDBDP5zbZVI6yj7Y9rA2ndV7+Tz8oOafVly4zQnuTGoG2M9iRaB+WSThWUIiyV0GgoUGb0Cuk7TZpEchYDcnDv9i1E90fgjdbRbfsyiZlOqOG6uH7/PkYn61izYjni+/cwu6dLnD80XzBtfcAMzxy+TiARJmG5C1YpQFoOUQ9snL13C3lPCQOz56LfDjGr3C1qb1Kroot1OdJIaBQSMG9qqgppVmkTfJfKWy+ijACvVJyVAtNScl6EeYIt1cMqwTj0UPcCHL9+Ez/etw8fnjqFe0yYygJNPX346hPb8PWd27Ghvxd+1BRCe+YFmAhCHL1yBT/ZfwCHT56SNqy1XawMKuiOE/hZDFvS1iu2QGte6ahi6jaBiDU5JmwbV4MAI/U61iJAv1wtlvhTGYEidzDFBsezIgnzV3mHmY06XEyWfXxYG8fHOkOwSctRMCtcyvN8SpnCxx2P0y3C0+6zYL1eKpe+VqvVBNx8RxVh1s8gklufZeO5TVvxvRdewM75s+BVq6KnV/wQaZwiJx2kEuB2tYpDV89L4PyHJ89hRIqA8HwL2zZsxnMbNuLFFUsx12eQe6DSCcWprCiqXmi7InsraWILjBQwGFtZ58N02lJkfBV6a6phfLqgGf3eH3PmGvNCwczQatLDJBCSjE3fmnjOmcH6sV/jtNy54vU7Jc7O9j/Od5GSJWkknTvTt+1h3WccHzK/NJjzeuZvWXY0G14RtZm1R0WuUI3jNPJKZVAaJRgMjQzj1NnTGBq8C9TqYjfatHiZmBpKvsrxN5amOHbhAq4ODmHR4gVIRkawcfUa+JVA8gAyzvjE8eNYNGsuls9biACe1I6N81RA7mZ1HG8f+wjnx8ZFPVswMAtbN2zC9m1bsHL+AlQIUA3SOjxUaxNwAregVag+4pglJYifOrPLENFclWWIvzEWmlpGNWqgTpJvbzcujg7j1YMH8NbhY7g4WRN2Wg8cfHnLJnx91y48uXIlykmMgKYdC1IM/X6W4M/eeReHz5zFhdFx9DLxZbmMJY6PvmoDXkZqsM5cTLOJ6Xy2gdKa6GuKKcF3MuI4+LQU4N5kDTvhYB4lPstFkteFySBzTAQYFQrAc8Q3S6k4cyR5bL3k40B9spUGXTyrhFBt7rFt+2qapsuLo+kXCHLOH3h+8M/jNFtFMV463LWE90aFjLnbejJg69wBfPf5F/HCps0SveDnzApqIXRKaCQZRpsp6uUSPhm8jT979+f44MRpcT+zo1g/4YmlS/Hsju3YsmYN5rPCT0abEykLXMV1ZXMpjJIii1kwhmdqPbFAphXQ05+ZJljntHsQbLSnqnDgZ/ZVSjtUCuyiGjjdlO9sJx0gdFqIuP+Q8x/6fMz3VPg8DFCLvVgEY0XeNEl6Hn8r4Dzz+jAjIs9kxC+qtOY9qFA8WxGkmTvQ90Wa499BdzeGoiYu3LyBj48eweVTZyXRwcZFS7G4px/dXSGqaUMiAngNSu90Vt0aHcG18VFYpRJOnz6PjRs2odRTEbvX/fuDOPDxcayc1YNntm2XTNB9QRlRXSVl9cIAo/Uqzl69hNN3buPkeFUKs3S5wAs7t+K7T72AjXMWwq41xIbcZPFnyYTL8dFeDCS6h2NH8zSpM1OdjRpNBK4n9V7rnE+OhX0XzuFPD7yP/ZduCLCy7Pym/jn4znN78dLmdeh3XZSdADXOPcvChO9i/8Wz+PH7b+HTK9fEHLSUtjcvxJycHNCGFFpn5h9KsKbuBh0GikmgvPaKOaFiGDhehj0HxzwHN2sRnpBoiFAS1DIaq+KwGJGKblDlzFX9C0pyYrLIHTQtB/XAw8HGJN43klwHyFmWdT3LMja39fnFgJyL/xG5/a+QOz6fkqnHOdQZO+nZuXg1l1ZCvLxjB76z6ymsps2s2ZDq6XQZ12PWOLCRuB5O3bqNH+/7EO9JbioFT7MdYPeadXh511PYtWo1ehkhEDdhZSmcjMn3dPybqUyunQFTHrRIHi2kw1ZxcVPn0+PaqGTl0eRFc4XPcm67JLS+UCdSFb6rYTIVZpRVR6kKOtP3A9sZkcL8ICDbhuZH2a0eBH4O8unr0z9qP68li7+8m88Gk8pcMPUOSv3VarhQcajquBLrzDxTzHBBRxNJ3kxOyooCb356HK+++7bs37xqLVb2z4PXTGE1mhgcvY/RtCZV2cbqVUzU6hKP3MwziUNm/sH7Me3KnIzMngsJOjd1Z1f1hPCaMfqDEBXLwZy+AfR1daOnp0dUSfRUcG5sGJcGb+HGzZsYnkixd8lCfP+3v4sVXQOS3t7REiiLDtFm2A6cV/0W8DlqNVXPInSRM/LFcTDRjHFzbAI/3bcfrx36SMizHCkLSxa+8sRufHPrk9ixeAmC6phwUxu5hwnLxfmhYfxo3wd498QR1JGJI2JVV1miF7pqDbi1qggtMva1fV3XgVM2NO1NZfJY9VHVeAXkQh9HrQzX6omA3IqwG5NRhChrYpHNZxVfqjwDaSbUUlnVTMIeDMj5Do40a3ib1zP30pKcvuFNnQfgFwhyNv5vuO4fIiU71kYgfDLSaflJxKC5Z9Vq/MFzL+LZVatQbtbhpQ2RrmkArfvdaARlfHzhDH703ts4dvGqZBhgFy10HOxevwVPb96CJ9esRa/nImswu0jKBUDUDhU3SSeA7tIsFiIq0d+kMHpgomuQM9lQO3+fDvkNeBVtW2pCqRQ1M30eLiUam8vMcKC8r9P/rmJqVTaw6Y56JMDJAe0Qscc7vvMoFfnxOOpppyQ45UrTeTUKIG+qehULvnSCPiVb83smBmxVCIZ1aWOqM+RYWqyClkiVp3eOHsJ/eO1VzFm+AhvXb8Lo2CQuX7+B++PjmGg0cHNyTPqWtCQChCG0qqnIMUp6ETNm6NqxupYqxzaLr/AYxmvQ889ZQUcbP/2UproqWDB7LubOmo2S6wiN6vipT3FyfAxfe2Iz/ttvfxcLMg99dcXhbLgqY4hIS7I6KBHYiSE2QNqtGFpVtW3cShp4+8Qp/PTgPpy/MyTt5j13LV+Dbz37NPZsXI+Qdrx6DSUvQDWNcStJsf/0Gfz47XdFSqXndBE8rOyqoBRVESQxPHEgUqhVRdfpe6FjTY1+FXfdMsALyNFJR/hX6XbGywEO5Qmu1lPJbLm8uw93qxNSznGD7aDEiAxStiQqR9X75RBQDhhGF7mo2w5OxHX8DMCQHnQdXurrWvD8RYGc9QMb+G3ehBYOPghfJF8swW1Z/2x8ZfcevLBpE7b0zoVfr8LnoPAtTCDCpGtj3+kreP3gx/jo4jmJTuAAmusDz23YhJefegabFixBtxRzZmbRSNVJpZomHcqK2yoljHhMmVNKAuVVHCspHST1TgWJqZO0qAIUAawT6KaAnJEE5VLuQ0FOYGRGebkIctNDzFRQnXqMAJxObjgTQD3sfDNRvgjQfVEy8RRp9iEoO5OEPNPzmT6nl9n1mGVZRqhi/ZMv2Kjj3/zRH5rA66oAACAASURBVOH92/cwe+1y1EerOHePeW3p+fTQdGwMLFiAOUxL39uPoLuCsKsbXhiKKjir3I/QttHb2y0hiFTTxutVDA0P4va92yKpDQ8PYfjuoGSymRgdw8idu1Jsm6DHtnBMU3WcZ4VYOHsOZi+ai0OXTyCuNvEvv//fYPf8pZhbZVROhshnZTdjoVQAJ4IMk1kybCr0Mek6OHr1Kl6RLL1nJYidQ29d3xz85hO78aUtW7CkpyLOAsfNkHkOJnMHJ8mTe/vn2H/hsoDxyjDEEjfEQJ6iq1EXIr5ZREWalG5UDAU6VgzImdhq1TrKhxyfsSb6A6MlH0fzHFfqMTYTRLu7cbNaRTPLsIe5H7MEieXLUkFnBttuimtT6SXINSwHp7MIr2YpBjtAjhiQZdlV4mdxKH1+ddXCu8ixNxBYyUVcDxnnGalMIV9auAC/88xe7Fm/QdKvCL+IzPtSGUNJHW+dOibhV0cvXMEYmfuSSM/Dk+vW4ss7n5AEfL2eJxW00rgpwMUKWl7uw4pTeImKWaN3SfwzmisjCdBZAEODm4qEacs6neqYSvmsPtNNpOk7yFxPebseNVFnUgFbQ3aam8w0eTsPnckwP9OLLT5j0Rvb6oMZgGZ6kDFZZT+HYU2DvyxXhcY+QAN5CPDJRJ9BijYtklQ+rgqtox2ORFgCHRny/+df/jn+w9krAgarF87B1m07sWLNOixbswazFy7ErDnzsHDefMyaO0dseiltv7aFwA1QJi2JiOiosn0y/nRmj2q9JsePjo/LuL9z7y6Gh4dx8fwFnD99BqdOnMSVCxdRHR3H2PA9ARZKi90lF76VolzL8a/+8T/Cl1asRXcjlkU9oiSnDZhcWCS/IU081OS6yjh2/y5+fPgg3jl+HBdHVcQPpbevbXkSLz+1BxsWLEKv78Jj9bm4IZzKO3EDPzhyDB8cPoTh4fuS621p6KM3TdFDgOPQThjFol4CJTcRloUATXIxKVLq5WmCVettkUiiQI7RPGrujwYeTmbA5UaEdQT37gou1+tii3/JDdGVxEgs0vJTSYPLm7VAjhI4bXKWjfM28KM4kjTAxY8mBDPia+UXBznHOYAs3e3YjniejHrKx2XGum9sW4Hv7/0qts1egKCWCM9n0raEX3P67hD+8sN38cbJT2Vw8fRZgY9nN22RvHA7ly3HvFKIvD6B0HOQpA1VN5UeuCSXcKjQ9iUWlAOLL4sGX2YpoMCckXckSxyJhqnsL1rli9NRTP4d9IpHzKmWmvAgMHKyUvWbfjtdSbypEt5Uhc+Wmf+gqV/UtqLt7jNKP0XwlALGkuuu/XkccGwf3ZZEZ7IJPmq/kkbVFacD9pkkuAfaOU3JQb4PIUknTbiujwYz1vihSspoOZLA4d+8+TMcHa5i7px+fOs7v4O9L30Nu559Fv2zZgm1hGMs8D00Gw34rgvLdZGyQpgO32JeDZpM6OFLG00VPROGqFdrKFUqUsmKJNwgCBFLfK+DRrWOSxcu4sL587hx9TqOMhD++EGc/fQU+nNgZ08J//z3/jE2z5mLEr2t5GEy75ssCMo8wvFBruNomuKDc6fwn/e9j4/vDApY0lHw1Iql+Mb23Xh+3UbMCQJYscrUUaM5x/Nxe2QE/9+rr+FnF8+IgLEYFlaVSljg5ggbdVGDDf1L1U+haUzx+Qlu3MP5L0lNFYO0RfjlNwNyIv7ocTYR+DiT5bjWjLCaLInuCi406qjGGb5ul9CdNZFYgcSKUzckqVi4nRphYpseVhsXHAuvsJynHohGXdWS3EWuWV8M5Cx8bNn2kyRH8sUSbX0xDOYiev/eM9vw+y++gOV+Cd1MHmn7mKzWkPT14+jdO/jf/tOf4OTwuMqJ4gXYuHQJntmyDU+t3Yh+L4BPPhPVTsdkAbHhOQQ2W4iFwksrhArRAyO6u5bcTC1Go66qXG3F39tTmvFwbmyqyKtpY5IySpojTUEost65yvAjzHPxDlKQVpKdGLq1wVtiVwl6EvzMviLYdtT/FJc5PcKqAI+uiKzsZCYhYMK2t9tftL5JlpIOx0cxxEjsGXxPxiHTIa1yP6kUgpuF6vPqwQsFjHWAuIlgMBNceO22qxjtvBeTIepoEIZ5TbffHMffVeV11c9yfx0lYb7rF9D6fcrANd5kDTaSjcYsMjIJ1WLDbM2m31WBPLWf44PE1AOXb+AH+z7AGxfPiS24Z9YAFq5aiW3bn8CmbVsxf/58UVkXz56H/u4ulIJQPKRJ2RPqBvuEhHBSoCwmJKVNmumMmCo8iWEx8SplPRYI16x8RqKMj4zh1q07OH7qFA4fP4w33n0N5/YfBlmsf/j1r+K3ntqNsohNjCKhxERwVUmJUtKlfB9Hr1/FXx7+GG8cPYS7elgvLln47gtfxre378QimU8RKuUQ440aGp6DrKsX+4+fwJ/95DVcGh3CIlhYiDJml1xU0IQfNyQNmIprVj3OtBkmNRIpIRRNKL/KIqmPYFEoxRNQHyYxV7ZaSrh0AAETXoDrjosztapIcpXuMk5N1tDIISDXm8WSuizOlGeZjkVXm/lIVslZ/jB3cT7P8NM0wi2Vv6IVQaVBjmGtDMRofT6TuuqF/kdxM9pl7IvK+6EMq6R3/MOX9uL3nn8WczlYshRlRhMwU2/g406U4o/ffgv//uBhCccgLPDmS0tlDHiBqLRukiO0HBlItFuSqe2z/BknD20rdCs7DMeyRXpzXUdWRpe2Af7NZJkq17tiQVsQxrkK1VL7iv88uKqUIE3HxqZHwHFVMQ2pmsVVWp9PjhXZzVR9JFSG6oljw9YgxHPozePWgBS/dzoOaCtUzpIMbIOKblVWj5YtkSXhpC5D+3yxMWZc49S2RRSV0ajOL0qSQvbtuD/Pk2SkvL6dS+iXAldtONbgZoBcknFyEmvALKb30UkxNIXgQaA0ccqtqIVC8LoagXLRllRkQLR4DwPaM6nvnG7F6xNki6DOKAwlhaj9Ihvrv1OCfNiFM3du48ClCzh85RJO3LiGa+MTOssZ4Ic+uru7Mau3T7Ix9/cPYGD+XPQumid1OgiCJT9AJShLtaluP5SaBWw3pUDy0ZI0Ra1Zw+joKO4PDuLu7Tu4euESrly5gnMXzqPerIk0tbmvC/9o97P45hM7Ma9SRm3iPhIrRSmsIGXFItdHEpRxe7Iq3NGfHDyAoyNDcg/yT7evWY7f++rXsHPhYnRP1DDHC+C5FoZG7sOd049Jz8YP3noXP33zbVRTVnzxsBKB1EUtucyoXdMRC9qhKQhmAE5H2rfcMEoL4LIh0T+toPqpIOcI040SP5PXurhje7gc1aVkJuNnz0ZNiajYa/uCGZJVJ4vgubkkvBCwZaJPDhXXFULwBSuT0oT0GCvfrfpodfULgJxjfYQs3yWLr1mxtURFFfW/fHIPvv/yN7Gsu4xkYhhuGikAyFLhFkVhiE+vXsPbRz7BteFRDFUbqKWxxK4xtVIWc6IxeJerIKexScbSfhDj3ZJBqx/MeL7aK4h6aCUyT0VzabshjuqfzHlmS9BUQKhzr+nwJ36XDMCuK0ZlAT5Yks1E/mYhG4e0JU+2JDlK3CgLOJOr6foCzh4HnufA5XFWLvQD9ifVatdz4PE4bm2er2wgDgspO66Aumvz/mrrWRZKFtf2XO5PXiLjBS2PAOyqNOjkDzLUTLev2E7PZl1Lhi1RGlXgbdIlmcWAahftS0Upq5WxOE9lUTJB9Ka3i/GdJlVScZ8BLl6TIKvsOVpqKAS7m8WlCH4iWRjpTad6MlJ18R5GCpFFSkuI6jrqXvybRvQaM8GUy8idAPfGJ3Dh9h2cvHEdp65cwpV7dzFUrWIiZ9ykMsG1qnyaCWa7cL1AyOisF8pFgUR01riNSKyVmsAR4qQpcdikkBLQjCpIcNo0dx52L16G51avxa4VK9HjWoijOvxALcqkV5G/Vg1CvHHmFF79+CN8fO48RiSIHVg3pxe/sWM3Xtq6DQsqFXRbNrqZm7ERSUp9t7cbl+ojeOWdN/CzfcfknE2hi7mWjy6S8Dnv0lhl49GwRi2N8eJGIuMvKvxKhWFp9obYBA3IcQ4Z3wgrabF1jlxFiWMNqtdOCbejKhbyJfg+rmU5akmMJywXFXICrQBJHgvIEdl4FQNyDBKgTY4o9loSgVwRlaZRkYG/kCTnusEPcyv9FitVhYGHpMmCYOpl8SW9uGYV/off/B42z5mH2v17qHCSCvCzsS6arE9aUSldmrkl2Q+Y3DKiERRNzWpWySXpLcqTXCQckhpr1boYLiWoXHPvJAtwHEkW05SERG2LEyY7V880UZk5pOBPKmoCiZLMIBrHqfwtSRmZGFMyI6h95l+TMYJJJAV1TV4zcv4kT5rOgCuMeXKYmDxT9qkyahJVoyeska/MgDDAa7YcFIpR2AbkosjP4wxbXF62vi6PZ/ead8C/1ZBSw8pmHUqquzZQYUgRJUyCt0M7CsHQVlvbkndFKdlIN0Ya5pb7yuVyS0IWMiudP54n+yiB+hKx0JaEJc7SZBDRAdTm2kZaNtI24y8ZF8oUV5LaqiABO3qRoCTKxULuoiVbVWeTDoQcUaLsgqoISvs4kaTpddQSc+t8bRageUDC2xwV3G0n/O4isTmRWGgowUQW4+bgXdwYvo8rg7dxZ3xMQpLGJydRG6+hGWWoRgkSsqdYfHlqebyixoSSa6G3UkZvuYxZvb0Y6O1Bt+dh3ZKl2DhvMVaWezDHdsXZljYbaKQNBJTmyIELQ1wYGsRrnxzBDz7ejxsN9b4rNvDSrh2STHbXopUY4DNP1qRP7VKA4VoVXncPLg/exg/feQPvf3pK7HWrKxYWwJVU//QmSBEZnUDCjCuqmpSS2bOqaqXSFCSetwByMt5lwVdcuCLIUdkg3UvxOVVcat3rwnhUQz/nrZNh0HJRbzawUlNIKMmp+FyW0dSLgVZLYTPTjo2LloXX4ibIFZG5NjWRxueV5OwJWFmXGOn1BKPX009TvDB7Dv7pd38Xaxcsgt1oooeSDiUD2ouY4oXGf67YgY8J2tu6KypnO0mVzTqcMr2jiRhnTaC26lJVpyHXFBFJd8TZqiUtS3kXJMNIqxaE0jGn5CijB7ao8ig1UsEFX2JTZw5pSRJaL+JGZYAgJ0iBIAGT9zKpuZmZgWXaRGSW2H+CIgEvke9UL+tMXslqWcznlkYS29jaWjkmkaGeJS3gbYOqmnwc5PyYewpAM5qD8YhcV4UlrkA2pWRc2PL+Td64AKQGUNkD5m+VZd/wkdqSsEg8BXAtOiiKv5ljjJ9ZO+PkvuZvpTIqqk/LfMAMyqx6RnNDAeQM2HHr+yQlqQJCxhzAd0KHAkGNpF4jQYsk6wYi0VKiZrQTwZBhSjyekrTvKInanE/DOO8fOL5QQyiBm/7i7Oe4pdGfJgza4OpJhGqtgShiskkgajZVBEUcqwQQTKDqeSKNs30ELIYZzu7uxZyBAfSVSiiXApQ8SuJMg88gdeZWzOAkCUrMM8iMO2kiGV6YJ/DA6RN4Zd+7OHj9voQ2sYXPzVuI333xy9i2dD4W9XUjJVE3ydHrlpGkBBMXo4GLwzev4M9+8grOXbsu1vhNYRmVqK6SsWqtTMzZreQUyuElDi7JzmvpNPxqzhADJIW+njAy9sUXNtXxEJNRISmUlCxIlGNapdTrFiGkZHNJyFBzQjSaDQzYTEjLiAnlzKCWkgmgqnFDpZEcuppj4aID/KwZCchJ4ZupIPc5HA+WfRmOs5z1O/nQlCwM0G3s7sH/8vI38dy6tTJwGLrSXy4DUYJmrYZKqSyrLCemMXKzMC1VIKp5ISvX093uchSqEBVm1RBdX2f2cJ1QqRY6zZFkAGGNRrYiS1GiXZnZTfUEalXV0jq6qv1Aw7ieXEbVITCQ1iK6ok43rgPVRZrSq5O0XRJh0qbDfHPKLkeblhiUyRHkPiO9FVIDGaBUVFltCyqs75ROI98VabJoqDcGe9l2pM8W6dGoXJaFGhdjU0RH10WQYwpSp5E+DYDK79J2yMIjIGfqmfIa2kgu/a4LUXNLCZf1N+glpMOEnm2aIrhoGRA29zC5z6iqmet0/sb9tUlV6da0sdh2WQu5QOi8YsbLp9wHCpRNnLoBJuOTNiBcBNwiSBfBl6BhJGa+WkPe5TWUvKoJuMa6SlYBVVTXg0sKCe1vEvGg7bmuWkgJCP29PchY9zfPJcKH44dDnXUReOWesCzZTaxyADcIYbFmguPL3OAEvjM2jNcPfYz7WmpZ1Ofh+U3b8L0n9mJNbx/mlF00x0cluy9TIjFWPg9KQgg+ePkC/t83foShkQnMZ863oIz5UYYuHuTnqEccYTq7MzN9yBKunEhsYxvt21FBio3AnIUyoluOuk7vakSQswhySnHle+E4ScikZWx53pRxBq+EZhLDt5hAlsdQ9WSuSfafCmMT05Gs1R4mPQuXHQuvN5QkVwQ5rTFcyrLsMwTo2+4R5NkOBaUpyn6AlCX6GGvnePiDr3wF/+z55+CN3Eelr0dsD1y5Sq6PlKXySiVMNuqSb4yiJgHDs1y14hEc0hShX5YJIrnQbBZtVqqp6Luug1qD6kCKZpSimiSoxYmU8qtT7UylWoxKc6St4GRPtzhztq0lAdrIFFmYURAKwLSHlKuGQwcDM4wqGxFtKlS7PJcGWUoaXKWUJCGDVLyRtFPRcK9SMXUaxo1NSFSy4uwqGPbFPqSTS5rMssWtJDpM2yX3Wp7fgt2qJXUUbFUGUNVvU+UvNazVRyRazTMz0m0Bg9Vio72/5lpKI1QTWE1+5eApenWLtjFTo8H8XvxNnauSORog5Lsz71MWLgMyJqg+SWVySJlFTkr97lU8aoKMtCJ9jSJwcgyZuhEyPvR1YkrfTFvfjJE0aZJQ/UJTRjNpoioUkEykD844SRCUOnI87V2wWIqFRBIuGiqdEp1xjOnkQsB5rHKE6HyCWjo2BnOafOg55EimvY9/80OgZVcbEO/1gS0rVuK7zz2PnUtXImg2EdoOxmrjEi7mZS4ao+NSV/hu0sArB97Bqx8ckGuuLFlYHnYhnKT3lNQMBUmuVHhrtNTJohdSGEw2+0GPF01dmkKY10Cn8FAdZxaZJlM1WcxcnQggUpYgyKUgs5ZvlZmGJKmSVotJyCOYqbGl5Gm1ENNOzBoRtNBVPRtXXBuv1xu4Ng3I2bZ9OU3T/5+9NwGzqyyzhdeez1BzKkMlISEhhEASCFNAIAZBG7RxarSduvWiKGo7tNraLWp77f5bbf/b/fft/q92q63geL3a4sAgAiIoEAyjzCQh81xDquqMe7ys99vfObtOVSUhAxit/TxQqeGcs4dvr/0O613rOfDkDLMM0ygonwF+hNKA4w6sWrIcH33Lm3FiWENH6IvcC/W0iLj0S+S4SGlkBFY+LwfBhcUUgl4EEmVYqoRZqoboHylhaGQYo2Edw34VA6PDGCqPohpFMi9YrvsYLZUwTDd531d6XumTTY/b6PpXdmHo4q5Op6TeoAR7G7VyLjI+xSXFSFMpAhk7ZAJ0kupY8tQWMjLVT6WT68BlzcslcNIF3BOTW8/Ly1dpMJiGgKyIRFguXI/A6QlDnk9rfi79WfnU0mmcBptGWiccwWaxXTigWnFBrkU0XhK8RayyFcCygMTj04Cf/blu2mQ7lY2GQSYa1oV8vY/ioZmhg9Avt/E7uYvSdChVKlYqE81IV30GI2tVjtDHOgZ8x4C8em0r4Vrvv46Es7/Xx8F5T+5rJFJB7JJzbSKl1RgwckqIVFFFSAlRaZxlUErJlJlYkl05JiZRasIhL4jApNzQEv0rz2A5ctaiw7q6qflg578pYOE4qIeRRNWVKBa9tagWCegODPQjDmtYdvJCnL3kJMysBeg0HKlJM41m06Q0MopiaMHL5bGnPIr/+sXN+Omjj6rRSAeY7lpo92O4QSJEZimdsLPPlF6UqVWPVDrTaTTXqC2n17p5/sc+NHk+mtGyqr3xtfQykUhOqGYqveVlY7xGHIB4q2iWBUVxY8mQeKpUrVpRw3geTXHsYyPSRtVOQa5WA0cb2Phg0TkjtbQpSRI2bxtbFryzPydv6+7EwIt0udtOYrSluDvPdPDhN78V5510InoiH2ZQU94G7Caya8hEghFKhmcmNI80ueZFD+IAJdPGj+97CDfccw+2V1XbnqNdGrj0iW7ccJkCvboVmk8OvfP6b/Wl0LWn7ME1boBMvWnMwR/kN7pxoBsLE71MC87rjq3uspJoKmM9toscO3RpwZ4RrtBTWNtkcZ8dVVtJT+uN70XPTNZ1OAQjTYc0AiUIc5ZRd/lEUJNgTfkdgngqMqjfX/hI6c2uO8YCGimQyN9lKDiSrqeNBTH2STgjrKZP9Fgda02sQ0k91A9FYVmuv0S8qswgERGj9oRGPumgftqxZomD6ZfiHyrOnnDg+Ht9YTmmJSGkcmkTekjaFJJ1lgKn5gk2nXLVWyrwZuqlsgFdPRS+HTfeceysiyhqGquQYN5YYIY0dAhyFutOogqiXsoShhJFVWN3AqANtRitUqoUbFhqkI5+EEoHvc7FT7f6VEIrR9Nw2mLGpJlEaKfPLwE2YNRoyDwuO7cFK4c9u3fixp/fgrVbNsq91+sYMjFE0VaS9lnzagBSivrK33TibfI5lizQjYWQhmtq+mOV0UxUKFCjmfq6qH/rpFclwnIZGlRj1QDh1McW18VPqjVsS6NfwYFmXe7gx7oswx6O1GidkBtdmsyEgfzgHS+5GFdc8goUqxW4tYoYzPBDYmlDK016phPi4C4igDHYmeV4FqVgGOYzdR0xgHu37cQDz2zESKWEOlv1LKybFCiMlTk0i/3p4uWuCMVBbiJF9eDn6ZsyK0mun9xCdmXNJK1RqQZHk5ainmHNYrsuwmdBtBU4s8X4Ri2uhbKiL222RtRKadHF29aOahbU9X60LhX9dJQbtqVBkK036d9nO7Dq37xmemk1GwKtUR8XqW4U6JS/wTU0EhS4NljQd13kXC/9j0V8RxSCO4vtUn8i8OZdBcAeAd51JdLt7ChIZMzImZEyy7MaFKVrK4CYAh4fnFLgZuSbgijT+bQmKEs1BWFJf2NKbaWJD/mBBO40NVYgTnK2ImPryFnS6fRvVSOsybuTqDAjR5+wbiz8MGXyrb06BLxI/SAINkr0WvVXKqhCzmAYEJHaw/SMXU6+hgDGGU16jxgmilzfQRVujus4wujoKPI5Og7nhEBeZxfWc7Bz+3asvXcNNjy9DjUO0xMrOaGRim2SrKzTyrFTJJPGOQf5qD+8P9MDPIpGpM6MyoK1IZT6Xga9OPVhAFsdG9fV/MlAbhMFTrJ7NeER5m3n1moYXSwXtBFrqsHi06fPwKvPOQczTBPtlQpevOgk9OZIM7BRr5YQ+oEi4oYRqrWygBtrEyxYs2bH3+u6C6M/J59DqUbNLkMoGwz1SfrjV6bA7J7pYrTq7qrUjtGJHhDWB9RIQzLpTC0dZ9HFdIKdLsoLT4rdyNROUIOpBkQu8lqNBVKVXjQK52lNiN3NEjl+UixVRVv9HnKzpG7l+mcs2Ouif3qLSbdMA6sGXN315PdK00WTLsd2Pvlz1nA0ZUXVONJIJVP70aCZBU8JkDLgnl0Ukz2n9efov82Cc+tSn2hhCVWBKYx0N5mmqxGkds9DZ1s7Ojs60FloQ0ehiPZ8Tkoe0zu6UPBy6CwWRVQ1xzICQdN2kLMgvrmkKWi5dd4mBFUNjFLTlIyYkJBSHdKaLNNJUka4ztU1Uuo5qrurrqm4w0mTSjWwCDT6oSqr0Wz6wmrwGBMZpS5vXGs0KZezTsqLVmNm6kn/ETlhnE+1UQ9osORKWmcbEaJaCXmpqQDDAY2TijCq9F5g+cPA9q0bcd/atXjyySflGIoc4yKe03KzoTKT1gXTLqi+Xq0R7uFB1nN/9VEAuYObXbUMex+NskzPRUzNGJJomPaECiKPS2Vjzps/Gy9fejp6PU/SIw49B35dkfKCELVaDTnPk4Uh8kfpAtFpkSwkvyZ1LtOyUhlnAwblqNPaAFVG9KYpLDqM1d9nn0ythXaD2jDppn8n40ipg1BoK8+G5sIdSyKmzpgsvxZHJv4sMqmZzye26nE3vAp0tJAW7jX4NsAzjSrJG6Kenp+ZJpAbqqWgzvqJgGxqd6g7z0FsYMSnFh8L8InopPlBJF9Fjjthm96Q0gDPo9SQWHNKSE9RUtPsjqqnZzPC1ZGuBsLGQ2SCaLU1ypXz2PJ3OhrNstPVNVQgrjl+8gBv8P3Uz7VUkWc4MlHQViiIHltPVze6inn0FXPo7SyIZFFHWzsKTNUp7ODY8BihcTSIMQ/rlOSPEch0zVJMxOnJoaZapK6TREK+FkCj6q5wgXTzR3W7GUWmlUVEMQfK1aiY7H9Ks2L6KutSWAGpj29jTor3gkqRRe+Ouotch1wXjoVKxUfezAmBPIpoWRnBDKswqHbSnke5FsP0HSFiVwZ24Z47b8fTT62XDFsib2ZThilUJSkvSJCUekm0NAiaieFzB6gj8YqjAHIHppCYudxXYt+/0nLziNg9StlU7JBwXGu5aeCMWX04+fg5WNDdg45yXezKZMRLnpqqmCsgEgXyVNUAovNs/XvWTbQyBF/LG5E1KD5zNSDpoWANjFx0UgNLjW91eqW/thagtUWg7IMuoqbdwSywyQJtGTsSMnGjCJPWFDN/J00OFkczM/PZ4r2eCW2AbCa8UakT+V5eIz3K/r2k2BxlS9OtBtBq6ktqtsOamIT26aysEKopQSUzpOwQqvqnKoaTaqNmbFl8ZirGQFeNkqlOJW80uRYEViTC/+K/tZou2/1CuCaZmj0yliU4oUgidNrhZCeSfrV6QoXglm0UaeqH/qqnCHRkqb9qUOT3uraqo1wNiARCNsMKVAZxHXTm85je3Y05PdPQ096G3o4OdOdzmE4CblubeCiQvsR5aJeD28nR3QAAIABJREFU7hwdJHcy7dLzPMiEigzCK/K36q6ntcsWugtnd5XWWTohk7qzKUs95Uur632KfqFWQ6peLvW4MGJaTfMh+ipwgL+GNiMndVQSfGQJhIE8vFAoiiCmV+zB7s2b8cjtv0D/5meE5M60lYR3NnMIgJr40hph6mWow4fJa29HAsb2/x5HAeTW0YYi+6njswrbfAqGuVjJkPKpRvf3SBbS+X3T8aoFJ+Hkjk4U6d85MoL2xJB6ggYJLhf9bxKCmyChC8jNGpo8YOjZCTX6IoVr20nBMu0ipjUN1QFsfo6+cEJjUFQ3peHf0g2S1DkbhWWOWPhvKVhOdCm4f5zYULVTxavjh8iQfvqVxNPs5+sB9Ub0I2A0Sd2DxfUo1adncTvl6+mDUWIATaa/nlklSDFC4M1HHpI+FwLKKW1E/s3zoidCuP8SJql9kXMVqU6hPj3CG0z/TqJSPTaV7j45hRKcpN8zAmaHnGmfkDV5ZlJqiUSbBGo+BAQ4GUlGUhsVEOW/YWHYT5RBjO+LJyhBtOrXlT9BRKqQj5p8jVAVOsbY9F2Dnq6Tcp3oyJC7yXXLMgtVdtsLRXR3tGNGby9mTp+BnrZ29Bbywu3s7uqQSNDjyB5rZHxgx1E6fJ8acVNXjSx8mbxQemoSGUtEr0zEtZ+tjuTS/kGqgMymgVoZbBrogjnVcmQ6Lo0GIz+AF7tyP8SO6shyZlt43aaFquWgPwxxw3U/QvmJxzCNQQXbNFp1J31AMa3X919rnVaW9ASR+dGHtbGfcBRA7ilAdA4a2wQgZ1NyvpuXy0jdfEQAE8AVK8/DxX3HIT8ygmp5EG0FVwbCWa/IbhpUZGKhQQlQ0V0WhESlNVByOIwOJG1lVMB/U9Imw9HSDQYFoCpa5I0qnKkJuqytBzYG6DSZVnoqqqYyBpTSb0R5Nwgb6hq8yTmHQYUSfiWkcLpBF0n1BctGZFKDa43g0vcnMDupFBQJlkJpkNRHyaGKDlfanWKTQBJLRl2Caqognn3zbC1Nf6aUBFIeW6t4JwvsbOTo7mHj9ykQqmxLvV5uzAYJWX0vNavUXFnvJ/dLR8DaU1W9Lo2EGUWn9S7+nHPAWf6fpMrkpREE5at6uPB7RogEQpZFyvwvjLE3jFEKQpSqFTGkqQUROMvOORF26hklZmua2bE7HkOXqUQW2gt59HZ1injl8bNmYfHcOZg/XWkaFlk7NFSX0g5CmCHBTnWIeVzsoFZtIEwrI7w8/NtsGUWdQ3a3FdBZ6okjo0287hzElwkNKpkwUOBTgyBlQxoJ5FtyGsNNHAwnCa57eC1+dsONOMO20ZVq2fET2MAhUS+UjOfATYUXMoqTNZRmQUew8fAEec+Tg5xpfg2WfYViIYbI2aq71R4Dq5wC3rn6Isyp++hhgTQoy6B4jTWOlOGdBRJ9EyhQa0ZvY/XFSPJTdAkWSQls0pQIQlF2EOfvFpIrAUXfbPK7tH7S+gQa20Ea+9sm0HL4OYP4E0RcrZGhPkb9ldGqpiCoSFNz8dOvAmJjJZY4MC8qIIJkOhZREZukjlldOhm/J6lU/Zw3VvP3SgZHEXybn6u6fOp71R1MQUY+L1UdSb9mWu9jGv2NTvVYHFWRXNpUkYhH35AauBuyTE0HJZWaK5DTnyfvQY6fKiKNvc7670iGZu1Q+7KmEyr6fQLOMtJX1LKFZ8X6Yi3kOFSAUd8XOfDRIMRorY6BShn7ylWU6nWJFOusXVKMMtO40REgq7DTqFDtGDhh9lzM7enGiXPm4vjZczCjo0MaIozvWcJRx6Hqs4rioE6Eqs0p6XJuWqqeFBo6rLkqjxUbxNjmeJ6KGq06GQm2jHVpcrFlk0ivHoBO4mDz0AD++brvYvfuvVhdzMMtV6WbylpijfpzjF6pnxf6CjD1Q3v86my9bZ73748CyD0C4NRJQS5veTtrUTxL3USRdHx44XsS4Mq5i/CaJUvRGdRg+WUYpmJ5J9QTy7TVx4GNAIe60FwQGvKa0JcuCn2TZHWs0oKpxiEdUWQjEuJFFtAO9OxqFY3ko6S1jjfRlZ4MNLX/6kSimOP048j/agFBVafMxqIqUstGbPr3fOLriE+Jama2DHipjpoCOeGlpSCblXTSunfiGaDT0UmW+GTnR16XEHQzDwptkt14eKi7vlFzz4ab3ENRu9WgrN4nC7AyPqf3Tz5PfZP9TK1rJl9F40y9Rhm/0BhFUROYKrNWyNII02IxpGH0R7pS3ZefCwMg/XfECImTEDQqBzC9sxenLluG5UuXYfr06TCZcBuhqLjYAXGcWm9M4RX9yXUsmHUm9IY8jJmCw3FFlgllNjUShI6imnBfSZzNc8SLgG2rn1Eai80JjmBZXkEEKb5/w0/xvbVrsKjgYXEQoYMMhpZrNz5CU+tcuq7p1+cd0Sb4wAOBnOrgkyzME6Rqv6SQ3FgP8MzEPDn6TtNCorGNuVM8mJUQZp7PJstIB+sZ+9nAB5efi7M7psHjsy+qyDiL+CPwGbIfI5dGQyAtlGfBoPXmyY5HNUFF1Yb0ApabQN02Ag4yMpKNxlqvdsuJHZfGHuSVnhA8BSDTR/cEyrQHA3L6pp5MQfdAu6c6Z80ITYPbwYKcco3f/0mb7MGh6nOqbNDYUvPj5g8UAVlv486/AD+38ZRUBaJp57vxwuY7sMklCioS62V49+mfyJrRjbA0bZfznXa32dWOCnlRx5DalQwnKyEIacSkwgcCRqw7R7GQsLu6utDZ2YlczkO+nRMwJqzQktIL38vMeRz7QXl0BB1MH+MQdt4R4KtLZ9eEWScIcj5VuXAR6LiWi1RcMJRxDUfEbFG5oYaXK8bWT+zdha9991vYNTiEJbkc5oYhCmnGo89xK8Cp+2ziq3iAS3+g5XfYvz8KIPcgnUsnBLk87CcSJEuo6WHZFoIwQF6kUoCXHzcT7196DmaMVmHafALR0Jaqt/RKdCbV2ZdTO0YhoJlG6UWtbTD0TjVY7pm9HJM6NZ7iKlLJKpg+9zPedChvfP64+/0AANBA6rFpqtx0rUrAEygDS6TR8oTNfr+/Y9LdOpX2HsTntXx+9uHRutgne3CMvVWUy/v+QbLlFZlv9Weozx4Pclnwm/RmlFS3GQmOr0um55dAloJpthNPFy92hxtNLZlMb6ois+ao9k7Ny5LzydfLz10bnXNno33mdASGBcvOwXJyqFfqEpVxID9hZ9uvwXBV15u0HdNxVZmGTTG+JyMV1uPYKAlVilun0YzcfxaSgK9pQ78DfOWum3DdLb+SfOwkt4D2qAZnkuZZK7i1gp9ESQcICp77PfXcXnEgkFOjZoyOhendiORuSCM5du3lOd/EmftoTDYhyNkwh2yYXbRyC5IArmvA9RNR/L3irBV47ayFyA3ug2Gzx+c351Qj6nZNNhhy4ANmCV+2xtlu8o1aUxL+mU5FxoBSxozmwJ849i8UX2k/2wHeezLF2oPaD0nF9m9peKB9U5+v7X3H/vW4RsO4h3nmurXW6qRVmKa7mfRXrnUWLNnvbLlTxpYXmpGeBhfNOeTuNMsNE4NcY5f3t8YmuEZ6H3SDShF5m7Vhvba0FFdjrQnIKWa90EnSRhgL45zUYMeTER3rxj4NnAhY3d3odwy0zerDjOmzYQcJOgJTZhIMkxQcBgUJ/ETJdXGumS2skDqLpHoYEL4lSxAe29Och01Na2zy8CIDvuFhU1LHh7/9/2Pj9mG8ysphYWLBijnoPn4NN++dyWtyY267g1qwR/6PngvIMaBlU4rp6n5A7jcAzpkQ5ACzZAFFjsGqmT4107Wy4ODK8y7ESYmNDqo0JHWpo5i2iTjk7CJBbqKDPzjga7y0sVAnBrnGbGHmic+W+8HU0ya7NCoS4n5OtK8H6julXdPDAFgWoA/nASGgb6rur053s8eqz+2Y7u6Y+pk6/mYk1Yy0W/1ex4GbNE6aIDXRddC1Mv07BXJqFKr5kBqbzrY+2BrHNS5tJbYqyZ9saUM9MLNsOqHqNiYNmucnvb4iPpHW/aSTTP00+nOkCi5C1uW0gxp9E4oNtd8orGC5KHgF/HbvDly36UnsdS2csnwFzl92NlZ0zIZbrsGkKYsLRG6kvD6oAsLuKwfrZCRRHBAQEFxJx5J0VkXI3KyYNW8LZdvD7RuewMe+801xw3tdvhMzqzXxyRs7Gzo5EB2LNblsJHeQILcG4Mx9c1NL3sKdjumtknlTcRunugbQUQfevnARLluyDPnhYXRRESNSBGF50rEoOhkH7CCiOwkxG0NJKiJR23jUVObCXAdjAUmWCZ96h5Cu8f3MRPGiWjf1cc8B6A7w+QQ0eThkvsr9eJgPx6xv7ERvNa4g3ZIuSn3oIFKWyfZTvX6iIgOvlQJNaWQ1/G/VedX245N9dmsUqo8tW3tTDyk1faDXjWLX6OvG7jIdslT9ViJevV4zs5Eyz5qKqKrJUv29oSgu6dSNUjRRihdULibRvV72MVRwcO2ja3HLwKhQVxZ2FvGyJWfhdatfimkUxzQj1IJRMWbmOJrBCC5Rsl8kzLNx1wA5sUOgFEeaXMc2AsfDbsPAf/zkh/juQw9gnglclutAV6Uie9s65XOYS+p5fflzjeQajQc/lMbDBOnqnQBWjwM5x8ntigN/JpcC1S44msWW9FIb+OgZL8apbV2Ig5LU6Gyysw22qmlQm9IXstHMuO7axOes2ZBQT3fZ9hMV6Yhn4sintdaXFqL3UxPTN8t+axKNovjBXPcW6khrF3Uyq8LDiAQVXCjQnwwsJgenFBYOAOb7i5TVZ+/PN7V5XTTI6UYJH5CTAdnBHo9+wGXiwswDK+3qpoKkjUxAi5qm0iccW5QHdapcQkqLEKUzdBfhsTAWED8Ktm05MULRUMZRJvyuTty5fTOue+xRufGGU/muy05dgbe95GVY2tODfODD4PgWbTbZKBBJoTglAVMaXI0PkkTMETTeC+mnoublsWbXdvzLN6/BtnIZJ3kmzjLy6KwpLbiJtkwbZr+L90CP8YNZ+YfzN4cKcjf4ITikOgHI/QDA68eBnAFzwDPtnkhY6BFyJpCLgQt7O/HB5edjlh/C8Sj1XEE+oYS0iUrdh5t3xZlc14QktdAy5Sn3XoNS0wRYGfTy4KjAIOM+WmxQUwCkFqRuXF50SsRQ5UE6aaKkPP7SNG/yDOUgQzXQtSu5KTM/b4DcJGCTNZ8edzHTlG1/3eX9LQB5by5mFX6Mo5K0UkvGf6+7j+OjsQPRavT5UF1rdV4nArTJQE53PqV5kUn3mzfXWDKsfqjpmE/XxyYDurFNifFnUe8vh94b+5hpAqnfpwY8oiKtqRMyfS/AJkAmTj9N5V818cFpB1V7bLh/pY0HNttk2J9hmUGfAheDYYxqex63rnsMP12/XtQxCHSctrhs8cm44qKX4awZM+BUK0hSyoxlcqa7CWZaf40kYXXsCrz4uC7nCrhm7Rpce/1PJVU9u6MDc0plMY+OM/ac2bN0rICc3me9vzJHLYtXHb8tQVNqbGiZwifc6ri4yfcnA7m3AvjmOJCzTWsoiY0u0zIRRL5cnOkA/rivB/9t+Ur01NjbkJK/sLV1SsDdCKl5Rj0tjrzI1JMrOu2hSVPZCC6VgKmqEJqK9MtpPJJe3RxGOSDuFbC7UsFgUMdI6GPIr6BWr6NouZjTPQ19bgHdholuw4LrVxFVK2BX3nYM2VdORVCbn+lDEpIonDLuZYIAiCzFzfNC1SEjoEoEkIY4B5OqHc6T6qBee6Au7GS/P6g3P3BKnIXYg3zLxp8dSjT2XD9jor/XjwT1kEj/IlMiGUvJUQ+BbO1yf9dd++e2litao2IjZiqaQ4nzom0mRjxgzZZN+PET6/BwAlGYISi9evmp+OQrX41pHJO0lRKNbRUQBvRCUUcSWorrRrqIEbPiZymfFNSw51m2wyeuux53PPKw+DSs7uzAtHJJOrGq+njoRQ9pzGjZ/7QUlP2+leB/JK7dWDBWq2+srlwi9BkV2Sq9vYBOXqaJumFhi2XjJr/aUAamVWjaWKJffU/rPhqe59zv14MzKEOsnhyBXBiOcb3t9KV4SW8fOuvKQFkBrLYmU5WAMK1x2HEa9ieOFG7rltjBitRnzszBiD3pjPh2hMCz0B9F2LBvBPdv3oKn+/eCs2RU++coDi8ZJXg4cLW4owsn9vRiUWcH5nV0YHZbAWatgrBaQnue6rtUbagIs991PVGaYAmFaq6Ub2Inj+/nihO5IliqKLJJUv2dALojvXqm3u+onwEjseGQOUrSsBsg8AzsiUI8PDSEm7Zux9qBfUJ9mG2ZeNeLV+P155+HDiuBxYadlUNIQVFxD4sQWr6KSBN2KXQzjA2+AA/s2Y2PfPe/sGNkGKsNB6d4Doq1itynzTzq0A43C3K6utkQx1DDg4f2xgf5Ks7z8A7Nghxxg5QanhDJ5oR2TU9WAzXDxWbLws/8SsPjIZOw7+WgyjiQ41sVi0VUypR0YaE1RiGIRE7pqpWn40Ud09Dli13EmAJ9QyCQF4Ra8DZZ4WrgnBtn8rizHsXufJ6sHKJ8Hv2Gjyf27cY9u7bhscEBPF1VTQxG3XooSg9h69PLAes5JgGvgNOn9+HMmXMxL9cGq1QWIxs/qiLyXBlitirKLjH2OBpDqnIzlWs88OVgUpMMPUF9kBdl6s+mzkDzDFDk0oBJPpzJLCFC4uRQdjw8uGsP7ti4Eb8c3COaf/MLNt7/ujfgpccvwjSYqJRLYvTE7ENmV1OQsyLlyipkZK5Rx8BP7r8Pn7r+JoGby3tmYMZoCbmggkJ63xxOJMdjUW2WJqDp77M/O1pXfTKQUzAi4ysNkIvplgYHm0wTNwfVBsgxkku3PXEcz5wQ5CQsND2wJkedB5pFn+EY+MAfvQwLajE6UpBrvrhp3MKnGUEuYK2BtbRUiVd2kbWLyEZAtQq3iJ2Bj4f6d+FXm9bhvmoV+zi7x8FmGVgGjps1A/PmzsfwyAi29e9GLfbFzYuFOy8W1QD0sT88fRZWL16GuW4OnVEAj7wiMZqP4PmqP8YojhulotWFVOmK9oVs1NoOogt8tC7w1Pse22dA0UwU7YQdXIo1cPUZbk7kyzdHAX7w1KO4Z/cejFBwtm8WPv/nV+I4y0I+CeAxTImU4m1oqfjJjmiGzU58BN8ysC8O8bWbbsQ1DzyMTgCv7JqO3nIJhZiTR5qMc+jRVhbgxohnpJMiL0S6yrs1C3KmOPRF0CC30TBwc6jkz7MEGsMw9iZJMkEkl7ZnbDOHKKISCImMEU63Tbxz1QU4yXDHgJyqfzRBjqmp5lox1fVtprUJvJhprYNqPUTU1YUNUQ0/e+IJ3L1jmyAwLzq1s1iX4Hb+ynPxlje+CQuPX4BSqYQ9/XvxzNaN2LlnJx797cN4/JEnJaFmVMf/5joOLjplOVb3zsJc04JVrwFhHbm8JeYghh+gmMsj8mlpx/lABXZkojP1DjkYLfyypgrHsX3LTe39830G5KHJWVXfhx0rtWOObnFJkT866jh40kjwo0cfxa17dgvt/apVL8VbL3oJZpohrGoJpunK+Bid6lgKciixRBKJFaDimHh6eBT/4xvX4qGBIXnAr3KL6KMGHgVRRQkljXgO8eBVsnjoIHmIH9t4WVZ9hD9M24INkFNWoCw7NUFugwHcHNYF5FqEWPvTdsKY3RJ7HroFhX4iFmVGXENnAlzS3SV1hJ6RUbT7TeFrVRBUIEfeF2t5okQaKZHGmhfKTuV9Cl86qBQLeHRoD27bsh637hoAK4MMOatp+49/dcmFF+KSSy7B0qVLpRDLZgKd28vlUbmQu3btwl13/Rp33HEHdu7YKR19GZhmUXfeIlw8fyEW54tIKqOIHcrSxHBqAdzUCE5gTUyDaWDLEJOM8imQO9wF+gf/ejaErARxEMNLHJiGDZ9gZURiHEPO3L58OzZaNr735BNYu3kDZhsePvfB92F5Zx5Fil3AUaKjqZJMLuYjPEZk1THiGPjFpm343DXfkNre0nwOy0NgJm8ACmzK3O7hA5QeicrW4nT2czByTYezDppmNuo49gtyjoVqbGM9Evw88rFdhGGbUmKGYfTHcUxYGA9yFFaMxduL4BHKKNcb5s7DHy88AceZBoqBqsnpgr2mHOgWO1kkZqQcxn2X06+AW3cwYlh40qzjR4/cj3v2VSR6c3JFjEYGKkEdubYcLj3/fLzh9X+CuccdB59SzxwrC5RPhDifk14SRaj5AZ555hnc+ovbcOsvbxcJ6LYEYpp72dwT8Mp5J2IWDa5RgmfHQoGJaz5sK7XDZlqdUlPosEQT66lI7nCW59Rr1XibEi3NseacGKgxgbITeEJLMVCuW0DfcXimUMS/3/ATbNu3G6+58MV414svQAc5elR0ThkBlM2yCJZs0BklDDkm/tev1uDbt98p1fSVnR04vhqhy1cCUfyEw63HSRyonc7S2px4p6Q/ez7SVXUMk4OcAlzWJ5sgd1PkY2dqB5RpPOwBMEFNjtDJv6IhRxQKR64njvGnM2bhLWetREd5FLlU5aAJcmxCqLRPjF8pWx7TXchA4MWoI0YtcLHXsvCtB+/GPSMleap1dueReL3YuHuvRFIXrDoX73v7f8PcvhkYLZekNiFNkFpFFg5FNMWk2stLSsDFMDw6gp9cfyOuv/EmlIYroOXfbAB/OnMhLjn5JHQyVKuPIkerPXLthAalWPkSg8oomBoqnwK5KaA6rDNgxLBJ8wg5VeEJb07mU+nJIL4oBhwzj2EaKM9fgMdHhvBvP/4+zjx5ET762ssxndJMNFqXjcp8qsTDsk8Ql7HHtfBX3/0e1q7fInre53R2YGbJRy6qNeTYCayHuzVnilVkqO0qCXC8747mdjCRXBbkKomNp5MYP4+CBsiR95iqzexKkoRZfUskx0qAbckQMAUceYr51PiLxafgZXPnozOswWN7NGW269pWA+TMCHGYwAxzMExLKCLDjoltrofr1t6LewaGhC90XHse3bNm46Gtu7CnVsHcE+bh3e99F049eQkFtJVNYDqUrEeqCFJUQ6Wul0tGuPQ2DNSqPm79+W348tf/E0EMATpaZr96/kJcevwizLSAWlSVkTEvYs1QNSAEpNkF43hVQxJ9qiZ3NBfx7/V7S2agYgQKTYjqr4QVao3xQUpj5BFSRXpnIH/cXNz44Fps3roFf3PFlXCDWDifHNrnjCr/lneaIWobNTw2Moj3XvMN7Bqt48UmcIqbR7cfwYl9eJaDICKgHj7IvZDX6EAgx5PLxgPtH+vsQjt5PB74uCWJsDOdldKRnGma2+M4njshyIm6LruQKcgxBfyrk1fgxX2z0B7U5aROBnL1qIKcnUMhKaAeJqg6QH/Bw/U7N+P6hx9HmZFWsQ0nH78AG3btwIMDA4Dn4M1vfSMue/VlyjAkZZyPncNMh4bogUAqiOWmU1+mWLVt2bIN99x/H675P99FdaQqDMDTHQPvP/MCzIWJ9qKLeq0kxs1ceOzeSjeM/9F5PB2amNxa94W89FOffaycAZl0TXmXBDlXitZsbPGBSsNo0ksMVMlQ6OjAzKWnYMvefhzfN1/UhW1ObLDhFzugs1yFZkOOhXoS4ranHsMnv/9jcXN7uWXiJNuFxwH/OBD1kiCVOH+hR7MO51o1zKjT6mJrTU6DHBNzqr4Q5B4Lffw8ViBH+kjDx8I0t8RxTIrv2EhOmChSvFN5sR1HQgT+69POwYumceauBjtRISsBgaxjbha9C0yiax2u5aKjnkM9NNDvJHgKNXzxoXuxoRThrLZpmNXZi7Bg4VfrHgfZeitXnYX3XHUlenp6VASZuho1Im8+AVVNVxzalRcMLypn/BIYnieGJsOVKr7+jWvxs59eLwrGvSHw1ll9eNXiU9GVRGjnBEesBAW0z6Vmx2epJYdzkaZeO3UGtKCr8m9Q94cYSxtUIq6CuhY52k9GMU447XSE+TbUTQ+WlwMSH1aUwI6oHmyjZASouxbKSYwv/+QnuPbBR0SK/eVeDvNo6ykajrQAUvw2ppfHMsjpUUXd49UgJyxb8R9RkRxBrqYjOb+OW5JYQE6nqvynaZob4zhmUjcW5OikJlWB1B3cikJJ/T55xvkyI2fHFTgZoxrOm2ZBLnYZbico1GzETg4bDR83Pv04frhrD7ps4MWzl6KYK+KB/i14cHAXIht4zwffi4teslq5cplMkFMuWxp5K4Vghv5K7UFAUJyaEuWMxIPl/KttYseOHfj3f/8SfvvgwyjWgeUA3n/ehVhieegxTQRJDTAoQa18J+VQ2ZamQ4icyGN7iUxBzAt9BvSstF5HXGkMBrhfMTzXRL08ijZtDpRvw5ylp6Fe7ESFmRM7sZSM4lPbtlAxAlQ9G9vqAf7+S1/CQ4PDWORaeImVQ0+VBoVqvJJRIDHgSNTkXtgzqMa6JgM5S5oySmuFfhiBnccj9RpuQQJ2GbLyBKZprovjeIwdoeCgnYJcomzDYUSRzMd9asW5OKuzC3ZShUWtBT0LKvxjxTfjxg/m5kQmgrYCHijtwzfvWiM7cPqMPhxX6EXVcXD9lkexue5j0YI+XH311eidNROJ2OXpIXOlE6GAqKleQSs7FkLFlSsdjGZ4SvNkfm84Fu699x7867/+K/zBMjpi4OUz5+Dtp61E+2gJnsvRGTHOk2eeGVNaiU8I5dKlQG4K6F7YhX4sf3qqh5c2tAKmT/KwVj93WBemB2vkS8eyDhtzli5DOGM6qkkCh966bDgwTXEM1MwIozkH9+4exD/82//CKIAzCy5WRJboOfJ+4a1K0j3ZB0oF6liuyx0Y5FRUlwjW+E4ej9SquAUQjBEjezqjKcGFx+M4XjoukiPIiUo+9b7MSGY/FxDklp6Fc3p7YCd1mEaggEEa102QY3jOegE1twgge6wYN23fhBue2owTAZy26BTRa9tcr+KH29bJTv3JZRfhPe+6CnFqgNM45xkUAAAgAElEQVRsMqQzsakBi9Yhoy0dJZ3E2o+GIXQETx2ieIC+EaNa83Httdfihp/cLOIC8wB85LyLsKyQR3tQhcNjkOXBlj+PmKxyNatLEYEpkDuWQeaF3XfeA+rOUOWbIFVFMRLV8ErqAQq2DZdrNQxEJt3o7kLv8lMQ2bZKVUW+yZBmReyE6HddfPvBx/GfP7xOhGvPzXs4sQ60xaLJLfJMRkQnLr1y/zBAjgbedTuH36Ygx9KXBrl0FYwzsZFHgCsG6oQARnKkJQLzYuATi0/D6j62IKhZFUDCRkWnlYiLuvJMKRO+A/1TjRDbjBqufeohPL27ggv7+jCzrQejUYTHRobwy/7dGHSAD/7le3He+atgu0VxIbLIjROu0VhZbQblSmwxtbFLpW6U32WqCEviMMEyMbB+w2b84+c/j1279sj4y8v65uD1p56GhfUaOuiSZPiSQoQSuzowY0/JC5kp+L2w98rUpx+DZ0Cq2OlDmQCn3NSUsQ7HHZn92G4OPqduGG1QLcOyUXcN9J26RJy7XDOnPHylfufD8oBtz96F//2G2/CL++9X1JFcHn01CmeYqPJDaUJOPUcZ6P/DieQmArmWZXMvnwkTRnI0sQ1FvS4Ug9u+ELh60TJcdNxcxGm6SskTiXykxK/SVRZZDbioBT7MnIW9boxrHlyDffUazulbCNRjhG1tuHvrJvyqVIIzox1/+3efxtx58+E47WL9lpM0MjWnzsyRSkapxAsHwiTcaRvmbsdx+y3EdHxzzShpD8JgOiynJ4zQG4RR5zeu/SZ++OMfi3rJAtvAm884Gy9r60FvrQyYdSkE01NBxvYjMssJrFMgdwziy+/ELk8EclrzUKgkiYl6lMDNF1Ct1uF4nqzpchyga+4szFowH0nMDIo+D4YYZzueiQ1xgvd+83/jiS2b5Y49u1BEZ6WGIruvEWmxgdyFDm0L5dY5diM5LTWrtIJUdU41H/RxKaVm6gayFFCzPYnkbnuW5sZITm9pRHcHgAvHgVyj8WAxpvPlo2Y/60D+sUWn4CXzj4OR1OBwmDhU5FrdeJAnVmLCNh0xsTXzdPb2ce+WDdhbGkVP+zQEYQLfzWPNlo24u1ZH+4Lp+Mxn/x90dHbBMlylECKiAKlpiClu6lEUhQ+ZTu6H7cXOHxS7uzctW7Zsv4zEdTfe6A23tfU8/NhDF338k5/81vDAiIgMsDv8F8vPwQmcnIhHYcZKf85xC/B5PNTsShW5fifumqmdOObOQBZeGpNAY47ClAiOtWWZdbUs1MIAbV0d6FuwAGgroi7MBj5wbcSmg7u2b8dV3/o6yoGPS0xgiQl0GTbMQGvnKeITa3Oqa3hsbkoOUwWj4pEruMZomC5lugighvX5LGBOWbcKeKBext0AdmUOm3X7MAxvBnDpOJATUyL+1GSNKhAuGicIPrhgMV668HhYIE8uQD40hNbBGVA1KaCK9QS6IAqReCYS18a2oQFsHxgUV3O2LEowccv6daCt9aKzF+MTn/y0uB4pISzVVAhjZQ7i5Nzrurt6PnPGOauYWx/S9vo3vOaffvC9H31YtOgM4AOnvwgrO7vhRSV4iY8kDiVNjqAckyj4OVWTO6RTPfWi/cRQOhYhE18G99OHufw7CJDP5zFtzmzkZs+Se4VJbgQHnLj+8W8fxCd++gO5+f/YARYnQIFlFtoVplGOOIkR5SZRBj4WLo4COQVznCpluk9sI4fVEd1K2kWm2nKmArmaXcD9tTLuAbA7HUnjZBQnMwzD+FGSJK8dB3LsAclgbgbkWIl737yFuOSEhXDMAF6sIrlWkOPu0YyDIFeLQ8B1MVSuYOPOnRgOQtQKBQw5Fq5/eh3Ws0u0+gx8/EMfRcHJS0TFz6WKcGxa63Ku9+FVL73k+sO9OP/yL/940l9+6K+f9BKlnnfl3EV4+Yknoj0uI0dScxKJwGZi5mWgmsa/UyB3uGf9D/f1rYliltLAsyIqwGQHpONbhq08HghQ+e4uzFxyIgLHQZw4CCwbw5GB/7jxenz5obVSW35FzsK8KEKODbNQq44oWXSJTY7xVFUUQlJppclATkdyNF+sOgXcXy2DllxsZOotnbX9NoA/2w/IpcJzSYy+BHhn33F45SmnwEMN7n5AjieZJ7wmigw2BveNYuPuPRg1DPgd7dhQL+P2jZsF5M5efSaufv9H0JEvytOMMy2Rad3St7Dr8iVLLmC3/IhsPdM7HykPDS/rCYHXtk/Hn61cie64Ci+uU44QAVnjZk74eVPp6hE55X+wb3IgkNORHMFO5is5QkmmABsRnofjlp0Mo1AUI5u6l8P2mo/Pfv2r+OXunZhtABfnPcwJQ+HRGZQJS5W4Sak61kGO+09Zqf2DnOLHEuMJchWngLXVMtamIEdw0x3WJEm+TDWr8SBnIJGIN+XJUXiSIPfWmXPwuuXL4SVVeNSvUn4f0njIpqukeIg3lutJ52j77r3Y0j+Asuti0LHw6L4BPDQwIKYTK1efjU996KPI29TFLyPf1v6DC//osjHOOkfibln1klX/cNcvf3X1tAR4qV3EO1evwoxEDTYzKQ9DJgdMaKm2oHrGU9vUGTiUM6BBrjWCy75XVtFDDHC4BhOOfpmYvegE5Hp64NseKoU8Hurfi7//0hex0Q+wyLJxvudgJht7AaGA5HgVjBDkhHmwvw8+lAN6nl/TCnIC3FKTE/1zuTNFhsoCqqaJUaeItZVR0EF6IN1XfX4dx/nnIAg+clAgNysB3tQzA2846wwUKEQZ+XDEwEaxubMgx3Ys+T+GpbwdtvUPYOvwKEY8BwMG8ET/AB4a6hfTiRXnrsCnP/ZxSXETx77jpS9/1UWGceRHDq686qpXfPXL/3HDzAQ4HSbetWo1TnAN5OscsTFlNCaOHFXTmGo8PM/L+vfr4w4EcvoGzKZVIgJpsAIeo6evDz1z56Hm5LGvmMP1Tz2G/++b35FB/eW2izNtG91+TY1zyZRDqqYj/071z4/hU9oEOdWYkehO9CKZIyqQo6gUjaUJcsNuEb8pj+I+QHxhuLmuq9VS3vasVsc3Jgc51qdECTMCweHyrh782cqz0R74yEdK+ZRbK8jRUYjDDxztSmwHuypVrB/sxx6SHwsFbNg7iPv3bBUVz+NPOhGf/PjV6O6dtnvWCTOXnnzyORqMj+hl+uw//dPiq//qI09R/HMZ63Irz8OKzjzaagx4EzG/CQNLDU9PNR6O6LmferOxZ4APUhlfzPq4piRWutbl2toxe/ESlHNF7PIc/Mfdt+G7P/+lSP2f5eWxGAk6fZLxldQ5Z7jFNpFRHddv6gl7rJ73VpAjBDE6JcjpuVZqexPbK7aDQTeHNaVRPPhsc5QCvPohYtv2vjAMedrGbQZHQCVdzYDc9AR4ZUcH3nbOi9AT+iiQpDgByElfhBp0rouwnogL+OZyCXetfxrryqMwuqYBnFvduVlAbvaC+fj431yNExaf8OfnvuSl3zpaF+b222+3X/Ga11SM4WHnZABvP3slzp/Wg/ZqCTH31/FQryXyBKCD+VS6erSuxNT7EuR0o0EDnq7TEbY4LTR/+ako5bqwyTXw+Zt/iFt+81uZOnoR51z9AB0Rb/OUK/J7BnKqcUKaiNZ3VCDHajk3/laMF8kvdBzs9XJYMzqKh2ihkOrIEeyjKJpQMFPegzw5zq3GzIFlTiRETwz8Uc7DO85fhdlxhEKgJiGUGYz6cM3slqBSSCg2KkiwI67je/fci8dkVgKYPbsP6/f2Y2MQwO0s4PN//7k17/3AB190tJe/WSyUvHKlSAW9d69YgYtnzkJ7eVTIzlKo9JX66VRN7mhfian3398ZoAxTz/ELYM1diCcQ4kPf/Hes27oXp7KG7RUwPQyRF8avKr5p/ThlwDzWQe9YPNO6cTn+eFK1oxTkmLZWXQc7HA/3lEt4UiI5VW5KoznS5sYJZjZAjrGgNKeFXeijOwYuzuXwjvMvEHmXYpjKnzdATnk8KG2AtDaQmKjAwIhl4LZHfostQQ21Yjus7l48sGUz1tfLCHMuvvSvX/z0299+5d8dzQty4403eq+8/PKyXa1apJG8bclivHreAnRVy2LYK7WM0FZfp2pyR/NSTL33Ac6AYSZonz0P5sIluGtwDz76na+gf6SO80m58vLo9CN4QvJSkdwfAsgR+DgHxU05s6jGYNl1sNVxsaZcxlP0zxgLcjvoXDphuspJTs6uZkGuMwYuzLl41/mrsCBKUAxUPUD8UeWzU7cuQ0mdU1mYIyykZsB28cSmbegPQ5QLRQy5Lm5/5mk8XC2JgOZnPvGJr/7tP/zDO4/m6v/qV/9Pz5Xv/vMBL6yL2c2r5s7GFaechu5KGYapRsjMOPV+mAK5o3kpfu/fWxfLn6tBeZN6EsPqmY7cshX40VNP4FP/9T05Zy+jcY3roujTZP33F+T0zIOO5JSychPklC+rilpLjotNLkGuJJS04bEgRxNAanOM22RcvaFCIpFNIHJFFzwbGr7rgguwOLLQHgQyWsEBd5knpb+D1PEUyFFZmNMDHF2h/tvmHXukATHsOBjp6sDdO7bijr27ULaAS1980b033v6LcUO0R/Ju+J//7/9c9sGPfeQR2rZRcPDink584MwXYXq1itgMJL224aUSLcd4D/5Inrip93rOZ+DwQI7KOiGCtg4UV5yDb923Fv90u1LSebkFnGgYKIQyvi89xnTGKPW0ErrDMU8hkWlVSb3VfahBLkj5gI5kjArmRhwHG10H95TLeEZsTdO6HSclkmQze5uTgpx4FxLuMiC30jbx7gsuwCmJOw7kRGlXaoFqflW03uihKiBoYfvAALbsG8EeJNgY1PFIaRhrR6qIixZmFaf1b929e4ahimFHZbv66r+9+LOf/eytLkJhjV/c3YkPn3EuZtRqIKuSHCWbbhY8hqO3G0fl2Kbe9HfrDGiQ03t1oIhuLHk4RhJHKDkerGVn4Jq77sE3H1oj8kp/ZKs71o2UfL+agxQYSL+Kytrv1sk4pL0ZC3K2cHENtIIc33qfbWOda+OeSlUoaaNjQY5U3HGqwHxdUzQzA3JtMXC6CbznvAuwwsqJubTSrFeRnJxqsq9F2dRGEIaIXAuRZSAyTOwpj2LT3r3YE0V4YPtOrAsjPM6c2gS8Z1VA/vZvP33pJz79aQ7THpXtqrdf9dYvf+1r17qMSuk6Pnc23rvkVInkEisU3o0ZsxWvGw9HZTem3vQP4AwcLshRMHjItDEyZyH+85d34NYdz0j1/MWuyr3MQIGc0j1k8PaHA3Ji0i2cOQXmBLmnXAv3VGoCcuWxIMfg7oSJllxGGViJSDJdLcaQ7s5V556DlV47OvwIobhcKZ4c01RKLTFtJciFnMtzDNSTCJFloRxH2LRrN3aPVDAcW3gmquPu8hDW10IEBrDynHOvW7NmzZ8crXvgda963d9d99OffMpJfFEjeevypXhL33x0j44CdoSEnquRJZwjLTRwtPZl6n1/v89AK8jpo22N6CYWQ+KYVowRr4D1dhu+ctsv8GgwigW2jXOdEHOIawF16bQk2B8GyDFHrKdy8RrkWBAbtC086Zi4u1oXSlolpdMwG0uShGU6avWO2wwXpjhFciRLwt8kEpA7iSB3zrlYlWtDlx/Ab4nkFMjRWzcSSobjWqiEPgLHROw42LpjN3bupTNXO/Z6Dm4d2Ik1Q8Mo8VMsp/SVL//7We94xzvYJDni26UvufR7t95+y596iKTx8O5zVuIVHdPRXhqRSE7EG2JDXL+0088R34mpN/yDOAOHC3JMV6tt7fiNH+Grv/yFyActyeWxwggwPQhhh3oEX0UztD5UGyvpx366qmeOWPPnPBXTVW40LRBpKqqtpDOug7aDx1wDd1dqYCuVIEe8Sikk6yg8NCnIMSwMOF3FDzKBfKAIJ+8561xc2taGnnpVQI6zdjpdJcIS5AzTRUyV0iREgAhhwYFvAH49xKZNW1ALIoy0deC+mo+btm1GPxsUloPzT1/+v++4b+2bjvSd8J3vfKf3A+/54Iah4b0dXQBIBn7f6otxmuPBGR2G67EL7MugsykTD02JviO9L1PvN3UG9ncGGN3ZiYU9toHfwMfX7rgL9Jaj9eBS08S0mCBHMoW689W/1EhYmlMd040HrSfHgDUUTfcYLoMnzclNmxK0XqBE/IDp4Leeg19XS6JAUmdcJg0FOT2kzvF2Hx/JeUzYCHLUUSJyAsiFkAjonWe+CK/qKKK3VoFvGggJnOlbcMxLDezT+DWBayXw4xBV15SU1YSFjdu3Y9foKGpt7dhQDfDA4BDWju5DFUCnYeOqK9/5in/8ypduOpK3wmsvu/wL113/4486RojuBHhFRw/ecsaZmGeasCtlWHkTcRCI+oFaKkqLdGqbOgPP9xlg047lngHHwl1RCdfcebfIRiwtFHECbOSqZZAhoFNdNcepjXLUqj2W+2YK5JSxYl2k3mJ41HtMcYtYE5C+KwP7FvotBw87Ln5VG0E/AD8FOcuUiYdHOe67/0hO6TXLG+YjCPXiilPPxuXTOtFbr0i3Q0VyCmlF+lwKorF0V03HlpqceCjY9H1w8NvtW/GrHc+gbdYMFM08ntm3Dzfv2CmD+wxLOwvdOz/y3z+++mMf+xhDzcPe/u2z/2PJx7/wuftLIwMFBqbsTr17+QpcOGM2esI6rKCGOE89rwA51jlCzo/osuZhf/zUG0ydged0BkRZOzYx6Jm4pzqMa+69T0zSl7R1Yi4L7pUReAIBauMdSpBTVLJjnz6SBTnfUCBnJ8pTtnG86cEz4u23HdxvWFgTlBsgR8paxLTeth8Jw5CthPGRHGtypBoySpMTFwP5GDIg/Ocnn4Y39U3HtFpVAE58oFPREAVyJAKbok1PYJNnjmEjsej7APxq0wZ8Y+s6zJhRxHl9CzA4MoK7Brdjw2iEemKJJdvxixfc9zcf+/glV155pRYVeE4LJfvHpy8+5aYH1z1+Kc9SFxVI2ov44JnnYxFMFOt1GPBRdymwGqNALnWgph+O/crGIZ+yqRe+gGdA0tXIxLBj497qEL6/9gERep3jtWEma1F+WSK7Jsg1SbK/D/SRgwc5A3ZiYq/rYU0c4/6wJjJLLKGRPMjZ1TiOH0yS5IxJQY40Q9I/5MTFQCEBWM96w6JT8Nb5c8UIhtSQLMiZYmITwzITGUC2zAKimIq7rmjO1fwIv969BV/Y/LiQGC+d04c5nd3YXBrEr7fsAunJJemgJJgxY/r97/nL9/7JZ/7mM+wMH9L20fe/f9W/femLd/o0TQzVfMefLj8Frz3uBPRWqrApV2MlqNqJyK0X4cJIFRymQO6QTvnUiw7zDKianCGD54/WK7h97W/Q5RSRC2N0hD68hEpqKnNSd4qqyTXjnGNbWkKDnFhZTRLJSXtFBhAMDHp5/KpexwPPzvgOZ0Au9XegIvp5+wE5IBIyjhTZBORIvbh8/iK8/cSFmF4tg6NfMqDP2p2MRSmQi2JfzGwcowA/MBDbNHsF3MTB40EZf/fw7VgXQAyrzz3hBBQ8F5v2DWHN7n5si0Lx6WI0aJnOtje+/nWvv+bb36ay8XPeFi1acO/G9RtXki3exuHmtgL+bOWLsMx0UaiUYRukjgAVlm8NE17iikYX0+0pkHvOp3vqBUfgDAh4JUDdcbApDPDb9evh8h4aHoUZlpBnYJE61Shoa4KcngLgT49lyVcWiw4G5CgoN1DI4fZKFY8gwghBLo3L6PEQBMF1tHWeEOTIwpEGhRB7FMjlUpB75ZwFeM8pJyqQS4vzY8ZYWI+LQjgOAcNDnYjlmYjrAboMF7tc4D+3PoEbNmwRJ/CFbe04o3sWeto6sHF4AI/v2YkNYV2iSFq3WYYRn3HGWf/8ystf+/mrr776oLTmPvfFL3b/2xc++50dW7dd6kUqzT6vuxOXn7ICJ9geeuMAblSHafJkJmDwZlncX2VYzSIkgW5qmzoDL8gZSCLUKDZbq2PLzj2IRqoIyxXE0aioWEv2lKrlKj+EJtypYSeGGsfuNhHIZV28dCQXJSYG2wr4eWkUTwgRGCIsqqXPi8XiX5fL5S9MCHKOkD+U8qZMscYAHUkLNNGYPQ/vW3YKZlZHZQC/dRPAIzHYcsGyXBDGsDtyCKpVdEQGRh0T99RK+Mpv1mJD+sQ5zevGcV3d6JjegX2Bj8cH9uLp/r3SIq6lWguGbVWXnXr6x/7i/X/x1SuuuIKKTRNuH3r/+1f/xzX/+dVKubKIjYwO1uFcB69Zshwre2ZgBusa9ZIQLklWFvHC2IBj5xDHptTmpkDu2L1Bfh/2nCoklTjGlpESdu0ZhD9UhuH7CBMq5pBaoSI1KzZEK5e+JCKQoSQzGqokx+q54HFopzIGG2w8ZEGOR83YifX+gfY2/Gx0WLgiBAWCXJqqMobicNOEm9DplNSSopAQD1jsZMq3uns6/uLUpVjAhkTq/0x2MSMg06LOPFGuyZ3jxdDprBMpXt2eMMRdO7fjuk2b8IyMaADthoOONgc9Xd2Y1t2L0VIVuwYHsWffIPaBQ//0WTRguPaWSy+77Iqffv+6X2T3/so3v/kV99x554c3b9t2MUWg+MRjmrrYNvGak5bj/Flz0RdEyPl1xKYvIzGRpNkmrNiSKI41RmVgLXt9rK6Rqf0+xs9AYiU0AsUze/aif3AElb1DQByIGR+DCDVlpECOkYi2HmjC3cSzFEfztCjSB0citZbkoX9aFuQIPoQ0QZVUjYTvTOiJTAvbcy5uqVQkYCLI8S8pDhJF0T6oJG5ykDMoB86kNQNyeQAXdPbiL89cjuMZ4YXqg5XcOZVHxAYShkAM94q4qnwTVamUV8eE47nYFvq4dccO3Pz0OmxO1A6S4sL/ZhbyaCu0iRHOcK2GnSP7sC8MBaWVg66B81Zf8P3j+mbftu7JJ16y/rEnV/tVfxbBkmDMTyeELyoWsHrxEqyafTx6ynXYo/vQlXPgJ74AXCPNpkstbMXvk/UxBXKHvkSnXnk4Z0DWpJmgniTYsHM39g2NoD5YAmIfrFaLWWbKpzBEmVvTR9RYpZ4WaPZfD2dvJn6tBrQj/84pbGQiuf2BnG9b2OY6+HmlKqZYSs+b3WZJ2vcPcnw+kPkfpea3LITqyOic9i589OwzsYBUETpcxYko64oSMLuqjMxYwJdifl0FlgmjJEf4cryIcViBUSxg0AB+s30Xbl73DB7266LPLiW8FOwI3AQ25YKqBv21jhRPBwWJpQEsBrsK/xhtzgfw0gULcebxizDTctEdJyhwAoP/ySkQr5/GpEZMpRX6m6Xp95Ql4dFavlPve6AzoEGuEoZYv2MXhveNwh8pi59DEAfq/kmrRMw+uGbleyOEEz1/ICf331Hyd9WRXEJVoAkiOX4uMaFqm9jsWLilWheQkyYo80LSXeOIcEKK4cSRnGRsIn/eTFcJcvzvjHwRf3PuSpzIcS+CS5TAlkgtkUgu4PeJIvHBpEkMJZhsJAlBjp6qRLAA9aAKy8ujbHt4aKCEu7dtw0MDe7E9qKtQVIekLf9Wnoo2EAUS9bFOSJxjBNdl2Fg2aybOmzELSzo6MdsrwgtDOHQOQ8QBM5FRYsymSMtK8JPgycWi2eJTA/oHuhWnfn+0zoBkoPQuCAKs37ED+0ZKqI2UYCUk2NNotVlIMdkoYxgh93UILxo7/nS09rH1fZWatgp0jkSUlwU5OVpjbLqqQa5sW9hkm7i5Vhf6mSowMYwRQd8Dg1wj/c2kq4SupU4OV59HkDPgRibMOGqAnBh6BzEcwgi7rJaSSCe5kXUvpoSUZ6p5MepJHW5iSlez5tsY8oFNQyN4bHAv7t27CTuQSLeEgMdojmNfWj1LR5WsuZG7tyQ3DYtnzMRxXb2Y217AnDYHuVoN+SCCx/23TNSiOgIjkqKkFakpDklMU5DjwiJjpiH++XytkKnPmToDLWeAa3LUZyS3A0OjJVSHh2XoXMw/xXNFz2baZIAitFTdKpeCnCq2HL26HLuXAmji46LcsZ5vkIsMA6OWifUWcHM9wPY02KFQryRkpjEQhmHvfiM5DXLiUROpFJLndzEsXH3+SpzsOMjHBAylvC7cMgZYUSQDxpJqysRELCbUanjfFJDbl/iwPBcFtr+DUMgttlMQM929SYwNYQnrhgewc3AQI4GPkTDAcK2KeqQs19q9PGYW29Hr5jG7UMRJvbMwK1dAPoyRYzJaHkJH3hHaS63K14Vw8znErgU/CGTmLQtyqmZIkEvVjaduu6kz8AKeARpDlXwfT+7YLiBXGRmWYEIyFs5tSsgiRpoy0uVnQI63nC7vHK1D0CAnmV6atjbMstMGxOF8to7kmDuKy2ra4dQKweL3QL09M8GTZoyb/Qg7U3wiyCl1SBmAmBzkGjP8TEkZPqcUEuIdZTY/cc7ZWOp5MiHQADl6QLqKkuFwysEw0wFbwIupSBIhlp01YbtFhCzV1dgtSmDkDARmhDAOhcyX2HnElD4xLPhxgnK1hmoQwrRs5HIFFAlYPn1fY+RtQ0w9Yr8OIwikCeJ5HoJaTSSfCIq8KGykxIkBn0Apg7+qhpfGc+mzT120qeH8w1miU6893DPAcsxgpYondmzFULmMarmkMqYkIetJTN2V54Ej8kMa5PJc240yz9GL5MQIm/dceqAqcFJ3k47uDuccHAjkeGSx6WDIjPGkEeHmIBEFEjt1ZuWEk2XbB4jkDCPRO2tZBuK07sY6FpVJP3X2mViRK6DdVCDHzqo4B/EK8EQnCuT8FExcMdINkKQgF/kGcnaRETgCNgFyHOIPESchbA7H+8RwXi4VFhumDctyZPQqCAJ4ji3u2C7NcowQtVoVnksAdFGtVmFYthB8HcsWgONrYjZILEeAk+q/ijyiNqaojDj5VSgkv2MKJAerNJuSvQ95fR3u6w/5g6deOOYMcJ32l8p4dNtWjFTLCKqsyYn3AOUAACAASURBVEWSUbmJYiBw9TKKE74Y4wHEyKXdVaU0pEBOVEpSvGMklOWb6Z8rT9M0C5ZxKUUoVg981fAj9Yv/UQGEwhyB1AiV9Z/FaSGYcOmTwn2II8mKXDFvbn5+Vh1FjWWNvfDNoEMTmlOhDNbk0r8Vu1PGd5aNYcPEE0mEn0UR9hL8U/oaIznDNPvjOKZw0oSb9Bqzn99Y/CYw81k8+MypK7Cqpxc5RkpJDLp+0xAXYV0AjwdNoGj1Y9W6c0xbs0Ri4atlJgzUoEUr0Xgi6aP0WSIA1TwW/Tljjm7M+7W+V9MO5HdhnCs7iagL0dljkUWZ7mj2ea2bKfpv9bEcSMRRv4d+/e/COfhDxj0mpqUgxOPbdqBcK6M+0g8jSETIhwR7V1XnEBrayEaBFCM9Pc+qYj3VhaykjK5CwNeqvyG/oJreBh57hMI74z0bg6rqjjjMmxghYOQ7BVD2JiH2xiH6/Tr6GRjYFJpV6DgHBua77eg1DXioowsJcrU6p8FRMxUoFmwLEV3+GAlKeYi0XtW01DOrGlg1QKdhSMa7QlHSqCZeNQt4IkpwY1JFvxInb2ymZe2NoojaBpODnPow/REpF8eKMf3Z6OsTJy/DRTP60EbERgg/NaG2Il89BSitNLUd8hnIgpx0o9MGiX5D8bedBOiyH/pcQE4/JPQDYgroDvnyHdYLFb/XxkCpio0D+1CtllDas03qcJalQMVKyA/gja5k+8VAKhOlNTlyGuTUIioGcQPkSC2uMREygLw0bU3wZ6LGa5rYF0Uo5AsoWzY2lSvYmoRCPKP6LpuAJOezIci1Sk4qm4CUYjsRDvo8A3NtG51lnyQQlIwEQZKgkMqXR0rzYwzIcf+0wFkzClURndZBJhjSxYuUGbY060YbHg9j3ISKgBxPiqxjFaXtBjDrkECuJwL+auEivOK449FOh6skBTmDaSrDyimQO6xVLulzWt9I2e1jn2p86qaRZ4pE2chVg99EqedkaW9rJJd9wB3usUy9/rmdAUZTkeNg3fad2FWuIw7rKO/cCpfpXWNetQlyvKsbD71GhzFNMyXVVFNGIjLJLCtlmjKS43iYTSMp1tATxV4ImAZ7OZQ9CzuiOp4u16XeJaq7pJExKosT9LZ1kkqBJAyQZxrr1+X1dMJj3X4JDMyGLf6wvs059FBSbamnZVREdCSnzpIuFOlUe3KQCw0DVRTxSBjgFtTHgJwqD5o74jie0Fiav5V0dcJIzozREwMfmDcfrzlhMdrIQUMEUmxZk2NDmyDX1Jx/bhd46q8bsdqY6K01/ZYa4n42WfSZSFz/6YFATv/dVBT3wq3EwDRRtR386qGHMBQCxZyNaM8udAhzQV1UK63KSbo6KchxxpUgZ8hDk9xPXWUT0n4a9bDyTUVsiZJgoma5GHRdbKiNYH2iIjcOgVZJsaIPSqSitumd3ejJF5Fn5aleh0n1XvJk+4eEgUvN8TmwwCmpyDIRxKF4MzDHE09nqSqqr9pEWueOTGPVg308yBHU+WuqkpfMIh70q/glIhksEPBSeiKsFW5JkoRzARNu/HNy6+bq31JNXVq5Kci9e+5cXH7yUrQx545D0YtTTYMYCa/EVLp6WHeJ1DKzNUSyvnUNLgUw9QETg10rKE6Wth7ID/SwDmLqxYd0BuqWjSHTwE/uuBNly8XMni5Y/TvQzZFJP51qTEFOSK8ZNWDdVNAPOIJcNi3UwBEqLoakuaoZwdzAAJV49+VcPIEY6/0KtkSxaLQVOl1U/Aj1qmaqpuOXHe2Y3dWJArmxcYS8YyMf+GgbGcVsmJjuJ2AJK5YWiRomcNiQlEBIIKkBcgJ2piLpK+EBBXKs31E3Tm0Kmfm3gW1i2Cxgbb2EuwEMZRoZ6Xqf1KlLfTLw3WdNIN6ovzElRiP0huiOgf/WNwtvOXUFipUqckywbQdRHEyB3CEt67EvUtGWKiyrOkszNdWXWoHT5NFca7NiCuSOwIV5nt6iatvYmST4/h2/RN10cfycPnh7tqLgq+aaJ+wAxQgmyDVClwxbIC1PSSSnoxsNgJKSmomYUxHkTAEUG4HpCO9sh2PiN9Uy6D1AMv7ys5fj1a+5HCMjJdz5izuxbt06DA5zmECRKWYUPMzr6EY7s7l6Fd2WjV7EKJarmB4ayAeBEJldclDV0JUM0UtvcQKQ4/va0f5Bjql14FroNwr4TX0U9wESyTU6sGxCmPbDYRiumOyykU/3JkS4Nj0OOQkCckaIzgR447RuvO3sc9FdqYHcHFI26mEdLkfpmEo1zG6fp5Xxe/QxDZBLL5pOMxoXsCWXZDesdSN9J33uTXhmJuu26j+eivBeuAVVcmxsiRJ8+85filXn8vnHo2NgF3KlmkQ3OYN8TwVyLBExXU0NHmSn+Xgc053PzGhraz+ZQxIjLPLdmKd5qLg2NkUVrIsikS3ayxHOc8/CK1/7Wixbtgw5J4ehPYO4/6EH8V8/vQ7rNqwDp8w4TnlcWw7ze2cgHi2jDQmKQR32SBnzLAe9tgs3JKOPFBiOVzZispTQ3KS5ZF3/spGcHjLX0ChNF9fCLruAuyujeKQlkkvX/vd0oDbR1eR+zDQM3IJEOd0Q5FTuHIo+26s62vDO8y/AzIovIMdkvBbU4BHaGWJOSAF54RbOsfbJWRFSntGJ3JdkwiSdvc0en6bfTFST0383BXK/uyti1HXwdBjhmjvvEMr+i+bNw5zRYXiceog0z41EEN6RSuusSYBSt3eWCyc8udTdiiDHdaECFioMJ/D5EzOPfZ6NR/xh/DaCpKgnnroMb7nibVi2/FRUKxVEfoCermkYHR3FXfeuwTXfvhY7duyUri8Vw0+YOQMF+qbw/h8ZRlipYQEMzM0VZMSyKEZVBIas6raCLYUtik8nYiDpg1ynq02QU0fLY6i7NrY7efy6rAQz943l3dXovbW/q6zB9lumgbeolImGNMyPAwG5lxY9vPO8VTg+TJCrk+RL0m4E00115YRROxGv7Xd3cf0u7ZnMAmruH+XY0zlBtvY5guJzuoTaetTNSpsQrF3IA4kk6NiSaQ++TqY9Mhpfes5QlkuWZJc5AVOR3Au3GkY8Bw9VarjmnrtRAXD63LmYt28IbSVlYGMZFqI0kmsFOUWwbVLZG+DB9C0B3FS7kRhiWg6qUYTQ8lDJeXi8PIz7kYiRdW9PG973ob/CqaevEFI91xk9W2zTFrJ+vV7HLbfdgm9895sYGCxJhXB6wcWJM+bAqFZhBlWMDA5LA2JFezu6qj7yYSguY1mQ0yomGug0OXl/IMeUl8gyYgLbc0XcUynjMWmOmLBNQysnVRKgeDAgd5Np4FIFch7l+gTk2hPggpyJq85/MRYlFtrqoUwQiNCkraYf6LA6BXKHfqNEBvmHLLiqDpSVAphir5NzxDnh1FSYgMeFSHUWglmUCiSwk2VQAEGJj3HcTqZHMoA3BXKHfo2O1itHXA9rKxV8fc3dUhM7ra8PJwyPoKdSlsK9UsVVPUpyVOXayv+1uYvimxE4CBqM4jStSEdy6eMQPixU3Ry2WQnuq5bwFOtwHvCGy1+DV7/yNZjROx3lchkmJ4tM1aUN6j7a8wUMDg3h2z/8Pr7/Xz9R9gjsphbaML1YgOcAIzv2CMqc3tmBGdUQBb8OmxiRNLkXWakmvb88krQv0mg8ZCM5XdcbsoDNuTasKZckvS6PBblS6tYw6WVKq5W4wU7wCnX6UpBDhHbEONMG3r3qApyCHDp83XFRqiO8kaZA7tBvAVF5JYDFkURjotfXMmVrOFRaUPUUUaeITQE4FpJ5/jnmwykUKdekUaC6LkYD9CbawzFeHYd+CFOvPIwzsM/zsLZUwVfvvVvSxlN7e7CsXENvtZL2VBm/KbK9nQE5ieQT5figQY4CGQQPimNo4BCuXZr0MbYayrt4KKrgXj/EXhPoO2k2/vqjH8OJ8xfACmPUqzVR7pEsgaNdAblxCTqn9eCuB+7H577wjxjsH4YVArPdPE7om40grGDfrp2gEvjphTzmR0CnH8HkKEWsOq3yfg1en0pbhSEjakAqXyVIN33J1JSPlTYv9tkG1ucKuKdUBtuoFSp88+9VZjOcmgseEOR+Zie4pBXkioix3ACuWnUOzrDb0VknN06xFAOjniK+ITfe1Pbcz4CIIqZdM63hT68LdoN01zTQdBJGb3LhFcCZkYHYiBA4auRHA5yu6TGy40JlVDcFcs/92jwfryDI3Vuu4Ktr7haz5GVtbTgrjDCzVk3jN4r2qEjOSblvChw0yOlILkE9VRCmmZPU4tJCrSNzrwbqhofdOQd31IbxaAKUXeDVb3ot/vxNb4RLOaV6gJztSPTPFJUOWK7toF6tw3YcDFTK+OrXr8Ett/wChg9Mt1zM6Z4G1wPKA3sQ1SKc6tpYkjjopqAnLQeiUMAoO6GhI7rUTUFrHU8KcoxoBy0LT+Zc/LpcxWaRPicRRunZ8deJGsA4IMjdZie4aCzIJSggxEl0ob/gbJyT60JnJVA7TFZzUlWhrbSmp0DuUG4KAlnIp51JNjothVQ0RhIm628i7WxRr0+lLgRASltRI4//8S+qTvR/2fsOALvqMvtz+3tv+mQmyaRDSCGFkpCEhNBFKQqruLiuuCpKEXV3XdcuRBFFRHFXBRTruu7+d1111bUgCCEhkJBGCCQESCdlUqbPK7f/c77fvTOTMEkmjTZzdZjJzCv33fu7537lfOcgMlRqKgPUSeordos9ppL373Qdzd4OPOd4HwGC3PJ8EfcveVzqYxMzDs6NdQxxS5KucvSKIMfykC2Do2nhvptPplQ8gJQPl4Ic5z25WUw7oYtg7SY9wnyviM38fbmDW740D2dMnYQg8BCR+mHbUm+nyIWtGyBAWoaNznwBZjaLJ5Yuw9fuvAte3pdKf62dxagh9Qg6WtHZ2o4ploXJcFDjU3GIrxmJ/qTgSjKKlo5tpSCXjncpwx6m4UnpJonkCPGtponVjoFFeVcIyyXNEvXkpA2zJ4Z4ch8W5B41Y5zfG8idBODG2WfivLI6ATkRm7R0FMO8GtQfALljW/uGUl9h1Zf1Tm4xqQOGJuzx0NJFgiomx0lTIMeUhF96HCA0qPoSSv1DvDciBXhpOisNjC6diTeC7/qxHe7X0rMJciuLLu5/4jG5eMdaGi42shhcKgjIEQhKjOTExUqRxKXBINVblYiq9ZIw0RLVEv4rBQ0+J9AtNJsW1nh5PA6gSQfGjR2HW2+9FfW1FcKkYMmDkwrcMpYp66uYL8CyHKmXGY6DHTt34dZbv4jGHbvAhw5yshhdWwPb89DctBeTDANn6jlUUFkAvpha9SS2c4/7AnLcByEvI5KIliC30tKwqOjLkKqbgJzSKIkbY6ChLyC3wIxxXjfI8UCGEskNYyQ3YwouqhqKmgIrBOwPaygEnTBtawDkjvGqMTRTUkplDmQCVG+gurEWoUD1CENDPvJRYgeVEjMwYWkGHMNCmabByncgZ2oiNRXzbk8uI3/PkJ7pKsX8DrENjHUd4wk8hqcT5J4qefjh4wuxDcAYA7jEymFIAnKECpeppOjKpSCnmlAEOcZwUtcFbQjS8T6VxFEmiU8kyBRNBztMHctKBaFgFAzgnVddg/f97bVwOEKmh/CNCG7kSY0sazkww1DS1tg2oVkWYsNAR76Iu+/8JpYsWQEqK5VDwyk1dajQgaamPZgIA9ONMlSGNBcNoBm88SbzDkcQyfUEOYJ9i2limRljUSmUtP4AkNsWAyP7AnLzrRgXqOkxW8JklgZziCTZvWnaFFxWOxS1RaarOgyLaqYdsCxaU/dvCsmBBfz032nxNwWRA7ls6g4n/VSRkhH9LstEQQd2FTqxubkJOzvasL21Ge2ei4KnFi8rBBnLQpmTQaVpYuygWgytqMDgqipUWLbIwFs0/Batv2Q6OVkBPXl4bFhI4ffQo7HHcAkPPPVwR4Dd1VUlFz984jGpNY3UgDdnMhhSLIlskUpXFch1u3PJWex6aVESoW5wAiJioN5FCla1uw4niw2mLjwzRoyRDdzyyVsx9+xzQEFHn+NYNIXngvFDaGEo5RDLMeFpMYq+L5Ec1+oPvv9D/O///kF2gcA6uW4IBlkW9uzchlNMGzO0HMr8vBJ+4uxpsqeyFJOaskSfSRyaaB7Jozh7mw70m5H46Ukk12I7eNKI8XjREz4htSs1Tl1R+y6OaAA45vAgB+0PNuLLNc2Am1gTkodih7H4Krx38lRc3TAYg0seolCHZRkIQhoL8sj2XwqJag6ko1gqLaTooMzukcxJ/T12P0NPoi+m9z65P2EsnhlRECOys/AcB00asLHYgZU7t+K55iasaWsXmZtuGmhPdeNEpSI5s0NtE+Pq6jCxphrnDhuFIXGMCtcTkVNPD2E6tpKe90OU6Q68KES7FsHKZmBwAQ8A3eHw6IT8nWRg8uTuX/KEOFCNNAhyNoYWPNj0WE3qbYooq6AhrW2lqyFtK6W1rbQgoW6qyrC9PVeOxaUAT0UlFDSgftRgfPWLd2BwfT20mK5g3Zadks0lUaEeM4UNYWcceK4vmcaf/vRn3HPf/XAp6snos6Iag7NZNO3eiZM0YLZZjnqOdwn1WIFcGllyf6TMIkcz7aqqGhxfi393BU4i2EkCQtBryZXhsWIBT8WRTGeEhqYUyUWxWNsQIT7lsCBnmvY8Iwi/yKeERHSf3C0gGymHrHdPmIx3jxyCIa6LKDSlzRwHxWRvuw/vCVkJr+EX7QlyJpsv9LXggWO0y24Y6yHkwZkatCBSnU7TUqTdAIhMC80w0OZYeHz9Ojy1cweeKRbkblWiUGBXZ9WQu6a6R6v7ik8KSRIecoGwEMzCxIXDG3D20AZMyFWiNlFT9r0SMropZkJcnbptoZS1UKABUFK/ew0f5jfsrhHknvNC3LdogVAjhpvAW7IOhnTS+ImTRzzfCioUebYb5BSBJBl67xqaUo9RtS91g/QNA41OVkyZX+QrWsDZ55+Nj374H5B1qPGrZmK7B8SSGm6Xp4Oq8UraqRlYsnQZvnrnN1BwqUoEjMhWYEhlGVp3NWKMCcw2cqh32eroHuviflBJREWkaUSXpNVcf5zTTT4nFVC4PyQzc6Pke1O2HIvcPJ6OQpGB4jJm5MrrK9L1NUEUTTksyPEBJvQWx7Kq86ELndwsN5QLhyS/q08ah78bOxrDXA9hqPhXWkQKCevdPQPON+x67PWDpSAnJyngkD01+JVEdZoOylKLYlF4ZVOAsjeRYaFk6titAU+1N+PxDS9iXXOH+Kp5upK6cSNgwsTxGDPqJNRW16CuokqBW+yjI9+BTS9txtYtW9C8rUn4SLwcGNrzfJ2a0fCWkydgesMIDOe5bOtAzjCkoBx4HkJKwtsWfBoR8aIYKMy9KguXILcuAu579BEZkh9mEORsDM0zkjs4yMmNTlJWBXJqUycxVSrhvVasPmnKbNr4Y6koLleeCXzg+vfjr658O6KAFA+FOgcDOZPSSfRTSXxTtm7bjs9+YR52N7UKyNVbDkZUV6Bzz16cZGmYqWcxiFmEwJPaUpDjz8olr5vELMSMiEUyJQHlMXoVefNEj06zsDuTwWOlPFbFEZoTkCNYcguBZTEws68gt1dDPIiqBdz42StZwI5jXD5iFG48dTyGszXsK8a9xnBUCHn9lz6SctmY7mUE5BS4+YZyL5N6CXW3CiXk7KxogxW8AGFlDpv8Ah7ZtB4PbNomdycWmfl6TFF5x7vssjfjHX91NYYNHoKM7UjDx/ddlpolOmzNt6FtbzPWPrkazz3/PBasXMpsFGUGAVfJpJ5XV4vZw0diYnU1BtHkx/Wg6aoLy6qEY2cR8IQObK/KEWBNbl0Y494FD0skN0JnuupgaLH3SG5/PbmDg5xcv+I1TDlyYItm4KEgQCN0dCDCpz//cVw49wKRSjtcJGfomox5EeQYI3bkC/jcLV/Ecy9sEJCr0QyMrqlCvrkZYw3gLDOHOs+HHjOaU9ArYJsoBacgl4ZGCuQkyJLHssvLz5nWtNlq2+VkMb/UgdWIhTRNyDGl+C25za9j4Oq+gtzuGFF9aKlILXaVuifT1YvrhuJjZ07GqDACjWlEHIhmNRw5ksS2/27S3RKhwm4vBiH50otWT409aPxBwx0NBWjYqgX4/c4X8H/rt0v0RhVW+u6wlJHNWrjooovw3r99D4YMqoNXcsG7qRrRYrqr9GKCKEJIPpNnoOiHWLV5Ax5ZsBCLhKzpia0klVsnG8BbJ0/CrMFDkHMJaNTfN2F5dGbj5IpioA9sr/wRIMitCSN8b8Ej2EiQ04BLsg4aChyLMoW7ptJSla72BnLde634ciIZLmtSKQW7hoYX/QgLAWyHhqIW4wvzPoXZZ50tI4SamFgfPJLjNA7LUyG79roJLwhxx9e/iYWPLxGQoxz6SbXVKDW3YizVTJwc6um2F4kcwGFBLh3UV5XsVFeOKbK66TPG22HY+IvXibWAqLWkxjiSlhvGdX4Y/qRPIGdA7AyHhlJTUr6rzIt5sZxTVYNPzJiG0WSpeoxYIpjSHmb/p7+DXHckK7LTUkaJkkXJtDOA5WShhzqKuoWNbh7/t3YV/tzWLgBnVmfR1FZUM4GOhSsvuwLXvPMdqKuuReC5yGQyiKJA6nnyPzLJmVwYmgxRO7qNtnwBcbYMLa2deOA3f8CiBQvRuHebjOqwcTStTMdVE6dgWsNQEVlwvABloS7NiNCkockrf4EPvCNACskzYYjvPzofWwGM1jW8KeOgvlASyz3C1oEgx+OmJNC7/RDUsdwf5IgErA97toFnCwEeA4RjppcZ+Pwtn8P0KWcmtbtD1+SiMFC2n34gIOeHEb5z7/fxhwcekiufIHfKoBpETS3SeDjNzgoZ2IxUTS6dU2XnlNvLIrku0Epv5JybjyVAYBlQ1xxsNww85BVkblVlOgqDOMYqTJbDbF3L29aNrREwkqmQiHJGquPBYdwzM1l8evZMnMJKgKfmzQwzRhh6/VoZWKWrSiuBXVaewLJE8JApK1NXxX9zEEYGNhQ78dvGDXhwx24ZyB46dDA6whh7mtvhhS4uvfBNuPY978HwoUPkLu7x+OqxUlFNFUaYsDLdJIGYqQRvRlYGsTS7TUSRjocXPIpf/vZXWL/xRTEoLouAcwbn8PapZ+J0qwy59iIcMtzJyUslyg63Ugb+ftyPgEw8eB5+9NhCoXaM0XUBuUEFjnWpqVQFFArAwh7F03QMsHuSJQW57qkIlkxY+11bDLAg0Y0rH1SGL9z6eUwdNwmacCoPDXJUhEgjOaarXC/3fO8H+N0fHpCkgtJLkwYPgtHchDGaiXGGjUrXgxUHXb6wSlpJTWmIBp7QXVT+kKqnMAcV1RzpmJI6o8jQtuFgq6bhQb+EF8TQR/UBNDWv3R4hZsJyyK0L5DRIWWBsLH6qyhWI4Sg/yBTTxmfnzsQ4GLA8Cu9pMK1YxkHYcemvm4AcRUYlmIukc0SQ4z+LJukjJOSSa6SjJYzx4Ivr8B+NOwTgxo4cgUhzsG7bS+iIPMyZPhMfvO79GDlsOMgJZrFXs3X4TCeSQyzKIoyyqTjC+h8Xv6nDdT1UmeXwiwG0TA58gVXPrMa///d/YMXqFdLJ5dzLm8c04JoxE3GybsEsFZDlVMUAfeRVW74tGQeP5/P4yeLFUpcdqxHkbAwqlkA6l8hn9RalyUSAiuR6AzmmgKzHsYnViQgvhsD8CNirAZX1FZg37xacetL4PoEca3JyoyYnjQinG/j2Pd/D7//0oGADw6jThw5GWUsrRkDHaM1ATmZvI2XNzGEeKc6pT3IgyKn+sfKnUFEq62wxeM8myDlWVjiED/hFSen5OE4GEeR0aG1hHDFZ6RvImbq5JozDSQwV2V3VXHbeCHIaTt6Hul88dzYmmjYslzNtTJcS2mE/bzyEiccFKSO8MaQzhnQ6J8iRN1fI2nhs21b8ce3z2BABDUOHoK6sDs9uWI/tcDF01HDc+KEP4YzTp4qGl25E8FnstRTIpbpwXAYy1hVrMGSSK4KfTOTblgU/COHGGnLZchRbC1j7wov4lx/ch81bNwsAk2LyvvHjcH7DCJySyyJqaxM6C7dUlimdd01nYY+HS/rhFmF//XtzNoMFHZ34wZLFkoaNho6LLANDA5++8InKTy+pqICcqmIlg4AJFCaSSz1ArkOPsdaNJV3dAw21w6rwpVtvwdjhY+AI+fbQkRzrwWnjgTdEgtbXv/kvePSxRZLtVWvApLoajI401BVd1AcBynwPmSRiY+SlegSqbt1dAVaRHAf4yThg9VHWYhRKE65L0dgsx6Y4xG+9InaJTaMCOdOU/WKz9ZDD+bK20wWmActjYHraEmEUx4yIQMf51VvPORtTHAcZ1xSQo2JjzF3p5yCXyo+nfphpU59zewS4Ugi0V2bwX8+vwoMb96DWMTFqzARsb2zBC2074NkmLr36bfjrd7wdFeXl0HiSfdbibLiBL2IIKtgiBUWRKeUuzoIFqSkZG0WviIjdKyOGH0RwjAwycFB0I8x/Ygm+95MfoallD8pjYHZ5Dm8bNx7n1AxCNQmeCUj21J7bb7A/ucP2VyA6kZ+bIPenfWneT1eslAv7ZBi42DIwOPDgMeaJST3qdmOjvmDXRE0CcuoiTugjXZJF5I8xktNRsHSsKHhYkqSrg0cOwle+PA9j6kfKZEPqcXgwCgnTR3XDU14kBLmv3XW3gBzXvDS3BlXi5NDEoJKL2jBALlAgx/93z9AqqDkYyImhE7PCyJcITkCOa98ux4pCh+z/SwlYWnYG5H5qWrw7juMhhztHPUvOf7QzzmWe64pRoSFjFYq7QpD73KxpOKusCjmPkYRy8+rvICcnjTzB5G6VTj/IHYr0OP7etLEhyOPuJ5ZgWwjMGDoCoZ7BIzvWK8nrC2biPe9jHW4oHNNCUCqirKwMnlcSEUM7y/52cicUom0gswAAIABJREFUT02mKUbivMT2vgfe98MMYDsGTC9E5NISLgPTyKFQjPGfv/gf/OI3v0bkdUi3fG5lBh87fTbGiIEOl1R3ztozokvVhg+3iAb+fnRHYG/Wwa+2b8N/rV0nF/YEzcKFlonBvocSAS2KkOlqPahrkc0EKVn0ADk1K5COSiV6bXTKMoBixsTSzhKeTEBu6Oh63HnHlzGipgEIAjWxc5juqrAtBLO41nXcfsfXsWDRYilnVevAlJoKnOLRsctHVRTBCdxeQa4bbNI5CEVaFj2RBOS0KJBxNqGT2CZcK4u1pSIeCgO0Oxo85uC8BvgtirbFiA45t7pfJKfr+mejOPqqXKAUzuMYULL8+SqfOnMyzq0djHLPhMEu6wDIycIimLHmwCZDKunM36ezqYaVwcrd23HPM8+ivDaDkTWjsWbLdqwMOpFrqMONN12Hc+bMEqJue1sbyjJZES/MZbJyJ6fkklJjVnJL8rNIKDFd4TtFEu0V46KYE9P8lyltGLBul4Gll6Fxbwvu/t49WLHySWihL6ILnz3tLJxVXYssfJih4sqlKWp6yQ6kqkcHXn19FkmuP9+0Ab/ZsFFuM6fqNi4wDQG5YnLjcZIiPWFMCkRJM9+K1NlXMzA9vR5U5M8swqXQg21gaaEoLle7dQM1DZW48yu3YdSg4apmllgdHmrigSDH7iqFWwlyX/7qnXh8yTIBuUE6MLmqAuM9HYM9X8xt7JD2pUoCs6dVYvdx6Z5oVTY9sooRk4sXhyLRpECOE0E6VnkuVu6boW8UlGTTgaw6EZt9IUJANbhDbvuTB3Q0aYZZG4uRtAqXWdwmsfQTk8biTcNGocqzoIe8A4SIdPJh+i8ZuCfIUbSQC1BJIKlFxi30Y7y4ZzcWbHoR8Yhh2K0ZeHzTZuHrXHLVpfjgtX+DwbW1aCPAZXMo5QsSyZWKRZSXl4sSBDNTqgMzwuYi42Lnz5ppoeT6yGZswCvAL+UlzaXgYeBTWFOHFtpg3XDR0ytwx51fBYpFVEfAW6rrcM3p0zDaiMQ/82Ap6gDQHe4SOrK/94yUCXI/fHEd/rR1m1zoU40cLtBjDPJdieTYPXdCNah+KJBjHV2oGepWlXDTFMgxXV1WKmGpUEg0lNdl8bXbv4Rxw06WaRd27vn8w4Gc53EKwECwL8O77Stfw5JlK9XEgwlMrajEqSVdSMBlegiDbn6JluH+frBkIiixqNSjojeQU9L9gGuZaLVtLOnMC8iJqTQJpWFXh/bJEOHZhzsDB4LcDkBrYGxKkCOiMjqpj4GPjR2Jt550Cip9C6aEuQMgJ8dcWt6Aa6qmeDdTW1FL2ktFbNq9B01hjG0W8GShDUsam0QJ4tYvfwnnTJuOQnsrDNuWjmoul1PCmX4gBV/bdIQnJ3OqBs+JMrchpUS37ILnRZ0Zx/HtILAQeRWxjSypJ5EfwdZt6CHlmyzsLeVx7333YeFfFgi3iW7iHz7nPJydzaLGZdm7Wz69Z1Q3AHKHu4QOE0UkPhup50baRGIqujPj4N7nnsH8Hbtl7ZxmluE8hKgLPBTFL1WHHUiMIyDE/1JCiTdRU2rh9IBQ6WZPkJObK0xRC3YdC8sLeSxK0tVslY3bvzwPp588GRSFOxzIkQzMSI5kYMO0kS+WMO+2r2DVM89KFjPMAaaUVWJCARjisR4cQO8V5JSwf28gp/ZXNenSkg9fu2QZaMo6WNLeiVXUORc2gAHNYKDFzltwX4jo5sOdof1ATnfM5yM/HC9GKUKXUxLbtTFw8+ihuGrcqaj2zC6Qiw3lOdBfNx48khKVspdKKT1Dl5OfDXT4mo71xRasb96LyCrD5tDFA7u24MVCjDOmTsAtX5gHJ2PJQmMxlZFgoVCAZduiA2fphoBcLDLSWqjp+o4ojneECNcYhv64nSlbVGlXNOWy2aijVHJKpdKwAgrTSn7hksj1p9u6MTZwA2RyZWgtlbB23XP4xle/hs6WgtTmrh43Du8byZnkUleXVQBWKAOq2zUAcse2untGbj3LASnI3f30cjy+l8NKwBlWuYAcI7kDQU7NqfYEOeXFQJDjJEQ666nIw4raREUPL2vjqXwn5jNdZYkjE2HerZ/F3NPPhhYGCFl2OkQklzYehJZpWNi1Z6+A3IsbN4toxMicgSm5CkzsjDHY9WFxR7yi8Gu5+dLB5c2/jyAnDopK+bpgmtgYeOLQRb9VtlJ1O4vIE8vqYowgKVgfSbqq4Ulo2kzlssOxEh6ASEDuQyMb8M4Jk1DjA6YfysERrkp/ngnSIrEF5J1UjdGoYi+PSZmnAO/JXVuxM/ARGFlsjQL8YtMmFHPAzR+8EZdfepmkJKWAMjY6Smy9l1dIBCd1kBJNvK21hm78Nudkfl85xHlm4sS5HX257J5++s9lbc3Bu13Xu8n3vOm6k8GePXtw3z3fw7Inl0v7/4xMBvNmz8Fo1xPOnMnaIiNTun9xURLkEtltifR6WBv26/Pe4wSkBf/0V2qkqpu2IAoeCfeL0vRUd5aLP46w3cngrhXLsKy1TVLNM/ephZxDLW/PlZocH8vZ8Z5pKGfLuyO5ZNYzySD2580p2XOKrq4LfTyISEokzMz++ZMfwZvPvUDNizKaSTdJFxJmnrxp1HWjozMc68Gbt2zHl26/Hdt37ZXO70llFiZnc5jYCdR5ASwjQuQXZVKqq6mQiAmka4jXC+0Umaqmx4/j/GLIlMr4hxo6TANbHUtcuihg4GcdFIshdMOEHvodnALvy7WwXySnacafgOjSrsK2zpGfCLVhhGuqq/C+GTNRXSohE7EAqkwvxEEqkWXpyxu+oR4jUw4qgiOHKCZ3h4Nu4nsZo80t4YW2Fuz0IrQbDp5qbcGfm3YhM7QCn/vnT+H0SZMkapJwncfQ0GGaNgKxFNQ2mqZ5V1Vtw4/OOuusY5qiX7H0iUt37Nr7pTAMZv7xj3/Ej374Q/BtRwH40NgJuHTMGNQGReihixIvItOC4bHDTl8JJeiTGgKT+8cLmWl6am79hjqnR/Bh0khedGNZ3kkmYFhOE5FLsny0SKItylv5noeszvJDBFcDtjgO7lj8JNYUOuQGcrqt4QIjJ25d8ooJmVZFcUmtTWwHY5kr529I0VCjU0oFR0V0okCnnqNn8GLk43fwhVRLTth73vu3uPY975KxQVoHKo6nej5PNF+LEzvSUCPvLZtDkC+KD8kLz6/HF269Fc35ooDchDIHk+wMJhZ11Hoeoqgo75xhF5giEEljwaWMZiLUSsKvk/jCcoUVESAwdXhhhAxllHQLRT9CPleOlX4Bz/q+jL1RnUeLOQvCTx62hTg8EZgfef90FcbPoGvvZQ2ITP1Ihnc11EYx/qqiGh84eybq3YJ0TsjWj1kX4mP7McilmvV01RLTmaTfxZ/aCkWsbdyNFsPEzsjCkt078GSpE1PPn4F/vPlm1FVXiRVhmhYyigKMFsswfzC4sv7OKXPmMEI/btsjjzxy8fLly+d94xvfOHf37t2oA3DN0FH460kT0RAUkIk9eBYXkAkjMKH7irWeqpaRbZ7WHpXngHzo47Z/r7cXSkFOYh42hMhlla43lWBUdzFMQI4y4nSmL9ccIb9SAXqjaeCORUvwvE/ZBo5PajhfLxPfVQ518ciKOk2qHZfUrBTIqQhPdVKTRldMIQh1vqQ5xdWEDDYZOv4Q5sVrleNSV7z1Utz84RvEUYttLIIc9RAJdHw2QU6Uqpmm6IzwDYQlCiBGWLxoCb521zdlv5grnja4FqNCYFSHj/oogs2/BDTCUaOhTFulZk0VHdLgRFOuG+ToKOsx5WY/IYph8S11A8XIxB7HwpNhCav8AO2JthxntRlYBbHfFEKW8GG3A0BO/2qsaZ8VtQtuiTxKTRTjilw5Pjh7NhrCEuwgFJDrvqP309kgTQljMqIlyFE5NeSFn9wdW4tFrNr8Ejqz5Xih5OHh3dvljnT5u67EB9/7XmFbE+BUYVcGXJZWVlR/ePZ5F7OZdEK2X/ziF8Zdd921cfny5aNq4hgX5yrx/lkzcXLkIRt5CG1DCMV27Mg4mLoQVEeMILd/JDcAcsmg+EFBLtAjUYMmLYt11oxmS9RPkHt+X8R3+6JF2CzzDcD0nIFzkUVNQTnVM1GSsahDgFwayQm4Uqw1gURxepOmh40djoW/BJ14NlQD7tNnnIEvfOqTqCjLimyXpI6REq9kNKci0IQSZerwI+rJcf9j/M///Ar/9rP/lLVZxmmHwYORaW9HTbGEMaaDYYYBxyvBSQKfLmVgpu1iWq1m3xlxckvIS9B5zWhsLDA61VGyslgf+FgQeTLXS5DDPo4eyyhCfNHinXEckw112G0/kMva2bcHcfBrhtO86GhUQ4PZmhi42MrgQ+fMxmgtRobCiwy7u9KWfgpycuBV3SIMmBqo1DUl1zbl83ihcRdac2VY1d6Bh3btFCOOaz7wHrz7r98JnWoLAdNDI3BM+7vDxuAz48ZdTuWlE7pdf/31X/jxj3/85fIwxEzDwg3nnYeJiFDh07jEQNH1kDMr5M6NmL4eqrkyAHL7n5a+RHIEOak1Mc0PQzhwpEaXN3WsLhbx1aVL5MbHtO6srIE5yGBQkfbJivsmkVpS00q7jz0juRTkZMBdIjduav5T5kE1G42mhYV+J1bTb1UDho0ahi9/6vMYM2o4XBnP7CFmKUTjpFZGWXRdQzH0oVmcrHHx7W9/FwseeULNrRoGhlVWwG9plYhtMof1s2WoLBWRSUCOkaOaS+2GGr6+apvEIjNGqwWm9xZr2nGEomahLZvFU4V24fdR8lwaepaDuOQLGMa2tsZ3vUMqAqdna38KCTBc07RtXR01RnKRhipEmA0NN503F+NNA1kqBOuOGiCWonv/BTmxXWOB3ufoi2L9sFvKhb23owMv7tqN9vIKLGnvwMM7d4Bdgw9+5AZccdmlwmdz/aCtoqLiE3PPf9OPTiiy9Xjx22677dwvfvGLC8uiCBTHv2n2HMzMZVDtudBMHaWSi5xdiTDgauclJt0sqdcwklPE5IF09UCQU9FP6vGhanJs0AmBl5FMAnKElYJpYElbC+566imJVAgS0xwNc/UcaotFicgUDKh0NU0j2QhMQY5/73aiT2aQu1RLFHHYsLLYpRlY7pewMgzkJmvlMvj8Rz+Oi847F4XYl33kJqQn1sokfVUNNd646RxH+fLtjbtw2223Y8fmXVKPqy8vl1Q2394mKuJTdWBGphzVBTYeFDSXdE32g405LWFiMGJUYMzXVRhiS/3OkGmHNt3C5qxqOHAovzU1y2arhGk664VxeC8ifKQv18yBIMfB1xVxHE/jR5YUSjNQGYc4Y18L+ua5czDFzqDMLSEyqHPGDlD/BTkZ22KqYVjQPHaGFMjR9Ygpyp72dqzbsRPt1dVY1N6GhY27wZLyP336n3HunDlcQC2GZX/ikkuvOKToX19O5JE85v777x//sY997HnHdVEL4AOTJ+HyocNR77nsfcDzAphmTorOyusugJlUMFh7UjZ4KoXtzzU5CeS7RuLI8+od5Fj2EQ1AWgdQGFzTkbc1LNjViH9Zs1YUSChbT5CbQ5ArlWDwGV3MhbTxoBqBjPKY8knNT048X1dt6RRrmm4yHmy1MnghjrEsMZZm0+Paq96J6//u/YhNcmEJiLyhEZjVzYugw42cTCPriPjmwiVLcPed34LbwdlUYFBlFTpLRZHU5wzrNEvHWVYFqgoF8fzj/rlJdkOZJTXnrsDYlsAoQmDQK1gtM3JzaXq61zCwygrxZMkT2giFMsmNi5i7i9FznEcUH1ZH7mCRHHfsYV3HRQS3FOQq4hAT94WNH5lzNqZnc8gVece3hJiq7uj9M5LjQmLERj4bQY4VEd5pY1Mtjsb2NmzavRctVZV4pK0FC3fshuFY+PTnPofp06c3W479sfMvuVQVOF7hbdCgQbvyTU2DawC88+TReM9JEzDUozZ/iJCM8sTVS+Pq49JLDEhkxlCuKxVR9HfR1J4gJ13ORNWFlpACOryCDwA5X9fRkTHx0Etb8a/rnpdIhedhmmNghuYIyGkEnS616UODXGo1nUqNi89DAnheTFKtg0bDwuJSJ56l7ypHscaeio/f9BGMO4VufiF8k81EdtHTRoSakaWxOYnq9AD+6c//H37zP79G6MXIQkfWyaLVzQvgsVM/3XYwycggV8zDRCA3TGW7qrTklLqxWj/SYBBqsKIH2zxGnPeGg52WgQVRHs8kNUTdslHyI2T26VoWS3muvXbEgqt92l4WyWkafm3oeHsQQiIUAlku8iStuXnO2ZiVK0NFoSQgJ+lqPwU4Ht39QU7p7HGh8LZago+dbe3YsrcZu3NZ/KW9FUt2NcHKZPDJz3wW02ecedObrrjy+306SyfgQQ0NDVubd+4cSTGut44cjusmTha/T9ZGpEVvOEKHCdh90AJZlOIbkNyJ04s7/fcJ2MXXxUv2BnKquK6aUixnKLcrgpZIK8A1DLRnLPxxywZ89/n1EqlQ729axsKZsFBVKgohlnCg7CK7QU4iGZlwSMM8dQkrP4VYNOS4dfn+MmV2cmjSTDxeascK+phKsU/H319/E65+6+XSYfWMQKIqiQ01la4yvSQGFL0AzYUS7vjanXhm9VoB36zhyLVfiHwBaBbHznQqMZriHqUOmW2X/ZdjoT4DE1h2WLmZIY+FJNvyX8s2UfRiuIaD7ZaOh91ObKYNrMRu7DXz+UmkqgV7EaO+rwvkZSCnA/9mmPg7zufzAzJjrUSIWkS4edoZeHNdHWpKPvxIEff6O8ix3kAXLiuy5GTK3VCPUYw9NJeK2LhzLxpzGczPd+CxHbtlmuGGmz784uXvvPqc8847jzXVV2Wrr6/fmm/aMzIXAW8dPRLXT5yMoaWS8Pu4mkKmFoYOTx8AucOdILmIEsmxdICeIJdGclFEmpABQyONBPAdE205G/+1ehV+tn2niKhSL2h2LotTQ6CGs8SEBBnfSkQlpSqqWhHqp26QSy9ipsQCInS7YpBCgNFNdFA+3yrHutjDA4GHbZyxth2MHj4Kd97yeQypq0GgByjFvih+C2gyNRRhThOeH+Mvjy7Efff/WMa6+PockmdTimDL2fa5sDDVqUAl/ZiDglQxuF9MexWuKRVrUfYVvhu7uQoIGfwGkYa8YSLPJl1Hq8zahjkTHYVQKsJpgURkQ7RgK2KMPtx5Sf/+MpAzDHwnCvFRnXNiIqthoAwRahDig2dMxpWDh2JQ0RdmPGtQAyCXgpyhyJRJJEeQayuVsL5xL3Y6NuZ3tmFR41450df+3fsf/P7PfvqWvp6kE/G4hoaGbc07dw6nfPXbxozCB8ZPxDCa5jCSi6gbpkMzDfga76WUbiJLPb3Q0l4ZL+T+a0nZ87yQvqHSVfVbuS5kLWjChTQ0Q64XghznSfdmdfzn00/hv3fuEVoHuRBzcjmMD2JUB56MU/IFSZpNo6BU/CwRPUqgo/sSZumEEzfc6NjGDqaodZCLptvYaAR4NPSwJqLBDZsSDv7xQ9fhzRdfgNCM4WQttHe0orw8B4uK124I28hiV2MTvvEv38bSp1cLNzaiBR1d3qJI5M8pAzIHWVGctiJWnQOkXjGZhPSbNlC4/pU0mQJTZgj8iYWvdtPE9vIsVrS24yXWAx0LLWK+xNkMA5HqqlK0YjUQnd7X6+JlIEdVJQ2407Qor8K3twTkKuDj2snjcE3DKNSXlGpFOmzc1zd7oz1OBAyp4kATrViBnNyBTQ2U/mv3PWxo3I2XNAML29uweG+TdFfPv/iSX/7p4Yf++tU8Hg0NDY3NO3cOYWHjHSefjPeMPQWDSyVYSbrKwiJHzXw6YQrvTy1Fde9NU5ABkEvHuAhy3Mjq7wly8msOtzMgANWbI5RsC7syOn6+chn+d0+LSH2zpjUnW4aTw6gL5NJIiACg+ttK4VHNSqfySuoSVlMPPUGO5RP1F1uzUYwD7HUcrLADLO/wxdSGUdWp407CRz96E8ZOOFlkjso4OtXRDr/oo6a8FqELzH9kIb7xnXvgkoSbzFMwHaXRFYUeptkmTkcOgzxKfZIUkkhCJRYK3dPtqlLItJMgy41dWiq3ZWCi2bLwTFbD8vYCDMtAZ2xgb8AolEY6tONUcaxpGf/m+d77+3r99NJdxQVRiPmqYMjds5BFiDIEuGbcGFw7+mQ0lGhHOABysoToWpaAnFpSoei7hYhQCHys39WELWGIJzs6sWDvXnHoGn3KKUufW79+Vl9P0vF+3I9//OORH//4x7d4bW0ataPfNWECrh49BvWuC52qE3LFqNnVUPOlriTTDQkbnmCuak4sVPfvSO5AkEvtKFWYlXSgBeTYOzTEJ6GUsbHNjvHTpYvxh5a8RPe085uVLReQqwhcieR6AzlFLVEgp65Q5fOQ2haqSE6DEyiQU11wgmSMQsbBC46OpW1FbCK9Q1M1r3POm4XrPvQ+DKqrlmmFnGkLaTlwQ+xpbMXd3/4uVqxZ06OCppCB9dwpdOjK5DAmMpFx86ryxtdl04TUkSSSS2N/7iv3hbVDMkoIlHyMDRNNloXFcRHPB0BVWRl25YvYiUhuAo7toEi5J6AUIyJjpc9bb5Ecd7LVMPQqMggIcg69OuHjyjENuHH8JAwrJiDX1bLu8/u94R4oZs2s1Uo6wgJzIIbSZHAXoggbdjdhaxDjmaKLh3a8hEbiR9Yp3D7vSzP/6TOfocDCK7596lOfuvIb3/jGbzNRJAXvvzt1Ci4bMRx1QUmUKTgYrvu8JNlIocyT0v9iukAJHy5wprXKwDilLbziH+M18YYpyHEsSgGcqsv2BDkGBFZkyhphQ49gs8X0cP/jC/FoQZFx2dibk63ECM6KBiXEbFjw4qY+bRLJcfakN5BTb6a8WVUkSR06pfph6jq8iBEW9dk0NNo21uZdrE6mCDhJQErJ26++Au/+m3eiMpdDhZOF216Q3Pvh+Qvxne/9APmQpCiObSniMikvTLFn2A5GGiYq/RBWQMN5DvIrExozmV9VMJxCjQJo6bSyusMoTmpyQLuRxRNhURSzzbIybMrn0UYwYhefnF0KR5hOPvDdPtNH1NHoZdM07Ilj1Bk6rfRYevSRQ4A3NwzCP0w9E8NLnvIYGAA5uVsre0AuYrbBfSm0mhT9i2NsbuvAlqKHjaGOBza+gOcRoVMDrrr8Lbf99g9/nvdqXKlXXnnlN3/3u9/9U7pQP3jaGbigvg6DIl/2X2IOnyM0nOIIpH6i6k0K5LixoJwO7nfRuV6ND/Mqv2dPkOOuiA1lT5CTXkEMM1Q1OYJcPutgPQq499HH8GSCh6ey8ZCpwvAoQMYvKj7cvrpRVvhqKl1Vc7HpiJ066srmT12Jqtuv6BoWyw3y20CyCodS6CFQcgzsMRwsLRQkmmNmwcZHpiIjM62Xv+XNGFpTA0ez0NlWxG1fuxOr1q1TrnH0Bo5VBEeAm6w7mGDZqCS4cfRLRAUo1aVuflS1ITdQgVxSsxSxBwXgav9pqWmi4IcoGhmsCYsomhk0mTrWlQpCrxG5AulQsGNhtsP3+0wfOSjI6Tp2RhGGmkYGQciwN4ADH+cPKsenz5yJES67Knx6Whl4lVfaq/j2MgzN1I2KpQSB0Fcm93EsWlq7Ah9rd7dil5HDgu0v4bF8M/I6MKS+dt199/1w7jve8Q7euF7Rbdy4cUvXr18/ozyOJU364FlnY3ZtFaqCAvzQh6XRepKubFyYvjL7JdGVPq+aqRbmAMjJOSPvS6SPErA6FMixbkcoyGdsrAvzuGfBIlG85fUrIJetxrDAR9YvguNgfQE5xUHrbv9wzXG6wExuRi5rqsJDU1N6HC/L22V43g/xbEibvxgdMFFiEqkDM2ecjtkzZuKsqdOwatXT+PYPfwSfd2x2TOiz6qn64WQYOD1bjWqXzaoiAo6AieG8mrnlF1WcKO6pYJhEX8A3pPUgiscyn8t/mQbawhihkUVnEKLDKcNTYQfWBJ4AHOt3gWWolCGIdyOMDmte0/OC6j2SA7Yapj4yCLiDTE8ohx5gTnUWt0yfi5GcH9MT9Z9+7Nal7hIK5Ki+K8q9vicqCxno8Oh+a1tYvmET2q1yPNXWit/u2YF8xoBXCnHzTTdde+/3vvcfryTC/epXvxpxzTXXPB/GUa4qijGdcktnn4OpVWXIhq44hVmaCdPTZZaQNAEFcmo8J43k2KDoTkBeyU/w2nmv1DmLe6Rk75OpBwmtVHdVcUmVaKT8NjaQz9p4NnTxr48uEHIu/zJVQK4SQwIfGd9VIMfUUEizaSTXpfYmTQYVRe4PcjInSnpGAnK+xvJJjCiIRf6IlDBOxnbkKrHBC/F00CFNCIIJr2jezHi/riirgGnZ2LmnKZnHBrJ0nycgGxYmm1kMDiLkBPw8hBSZoBiBH8Ng55ZNKy8S0rCylFYqxrTq5L8yCchJGs1oUqZFbOS0cuw0dfzFa8JaBgrJ37uHJbRnEMSnHckqOBjIbYqhj+HUvxSZZWmHmGICX5l9CcaKwUqnEPhiatC/wdWB0y4yF2z6lSrnsk6gaiEqaeBit6mLFfCuFaHZBja1NGN3mwvalfxuzza86AZiVThkSMOaO+74ymXXXXcdO+avyHbDDTf89Q9+9MNf0LO1PgL+prIc751xFirYvfM9WKaO0I9QaWeR7+ykaKeK2JMGQ3phD4hmJn6icqeLZOxNgZyZ1C/JL1QEYPIoxVM05nWkocWysSyM8J2Fj2KdVL0BGhXMyuaEI0cAEOUSqm7IzUTJn6tetrpkCXIMbWRcqtct6bqmlpMJeZjPZ0vDM0x0Wha2Rhq2ekW8hBDUJ2b3n6CjnOoVDYUTDSyCsZM6zrQwxsqgNqA3CEszKjKTJFoRBpO9Ue+fEoET2Jf9TknCityi6ncMW11yb5HDFtPA74MOcbu3DQdeSMYCza09vvzt+z7+LUdysfR6hEywwaE3a8hvAAAgAElEQVSPZwVdplIkyAYm7SMR3j7rTZhoGQjjdnF6p1nKGx3kDnZAlUCBEjOkSgI34SclJtPsdLVmDWxpa8GLO3ahs7oGC/Y0YvmeFuFGudAxa9bZP1ny5BPXHclJO5bHvuWSS/77Lw89dA1fg2nHJ8edhAtHjlTyOkEI0zDEXyJjO6J/lirZpu+ZLuEBsEtALqm/MXrnVU6nVNWkUSCnR6qGKTW2KIStxWi2Mljkhfju4wuxISnkzyHIZRxUBqEQspn2ERjNSIGIAgnGROqSFVlMUdg9GMgdfpX4uoFCJocmzln7Lnb4vjTGOC9KoOMrs/jFiYYG3cQww0S9pqMyipCNfAHgYxno5BWTdobTiI4p6wuI8NvQxXYhDfMWwL/K7EN7rHbpiLZej5AOPBtBn0xNd8oeE+T4wPH73u62s87DaWVZRFE7mCazRfJGB7kDXeXTMR1Kg5PFLoPGCRlIFGGVcDRcw0SHY2JdcxP+sHol7CEN0HJVWLlpC7b4RUkRGOxf+77r3vXzf/vxL47ozB3Fg0kd+cw//dO6ztbWHLtk05ws/nnWWRhLwipv24w4CNoEOzL0eda7p8TlHQdArvvAC9CnICcNAiZi+0dyB4IcddSaHBuPFlzc9+RibD4GkEtptEexFJJzqUnd2Dc5asbJiAitYYjOkEaFClDLdAMV7J7qBnJgxFqCGXKMXqXZMjPfe/+yz7uVNk48aCjaOTztFfEAIjTLhWTBYLClR4hCb08UCyHgiLaDgdyKCLookajOiOoYco7ilikzcHb9IIIqLDWc129ATpZxkpYKTzCZwWO3SM39Kas0bqHGhWOh03CweMcW/OS5tVJDGT/iZHgR8Mz2zdjLTisXS8bZ/fd//w9X3f31r9Mo/IRtZ5075y+rHnviYrLU+XXlSePwtxNPRnVHhxLv1FVqRbBLU6wDF8gAyB0ZyBmhAr20RseIr8XJ4M+tnbh/5VLRkmOXWyK5bAblngcrJhXp8JHcsYKcageoVNPTlRqwR3FMGaKnNFIsnDmN6aLvQo8ZTal1Lw9RGfNRg5xI6pMWIusugm9YaLZtLC/m8RjdueQ9LJi6iYCsZERUcKeiwBFtvYKcYxiL3DA+50CQY9v4k+On4MLhI2GGHbAkxyGZr5vTfETv/jp8cM+ojpGOKaNvEVwzMfdJSdSxAV93UDRzmP/SJtz7wjPSrudU8cTR49CWb8eavbukfc+IrrqifPuNN9z49q9985vLTsRhufCqKz43/49/+AqJl5UhcDKA6+bMxeyKHDId7bBtuytlpaqKOHZx+SbGK+k+DYDcsYEcI7mWbBa/2dWEH69WWnKsdxHkZnaBHDuh1CckFaRrLP1l6eqxg1wMh6k11UYS2SaKZEbi0qaMS7jGVRVPMTjkHk85Ll76nGgQNeGjS5n5tECECHQYYQTfymCLpWFxoSgNmQ7y7GIbMWfDLZ0c1PlhGF50pNfHQWpy2p9DTX+zfFDZAonkOIj70dHjcdkpY+EEedg0sXmDA5zU3XpEbz0bD4x8rEApj/iGAjnV8eJJY7vGgWeXY3l7C+5cvkDm8ZgmNmTLMLx2EFryeaxtbUJkAD5JkY6556abb7r869/6LgVRj9v2sQ//4xXf+eG//h+LRvQAqA6Atwyqw7unzcBI+MhQv4y1OJK4uLANQ6WtB6Sq3KEBkNv/tHAahJvS29s/XSWnTRMSsIYwTkjicYzWbA6/2LYL/752tdTAGFWfI8rA1Gp0kWE39RUAOWp7qL1OgjKCTqKuI8kq10CopNn5JbiXqBWnpAqRoTtGkBNeXxRLqvqsHmJpiU06oCD5sKppCqc5CshDPuKtV5AzgF9GmnG1OLbLVAh9PyHduA+OGIO/mjgJOZ/GJ/4bHuTSI3pgh1UueIba7KbJFFQgnSM150nwI6/Hgm+WYase4/urluDR1r3iOEQjk1PKqjCsoQGrt25AsxpXkdfJZqzdH/nwR6/4yre+dVyA7lvzvn7Gbbd96cEWLV/PRpHjARN04IbTpuPsuqHI+gWZaJH0O1LdY7lr9wD2nqtqAOQOALkuC8J0jtdUxXhSNw4AOU7HUIOvpbwM/7lxG/7jheeE3U9fPQG5DNNVFzZjp+RAk295sMbDsUdy7J4mE7HkeCYEdqaQYm3Azq/M3CYm6myIJB+fa8Qgb/IYOg/SoDFikGechYF2O4cn4gKW+aEoGBekK6GLJ7HvlYpA1Cef1QNRsFeQs3T8exhp10rCIsl3IOzl2hB477ARePuUqeK63t9ALvWETD0wKCpKeWkZwUk8ajkdIPwmEd83ERlZmclb2tGE7y97Qvwj2Vmth4HqsgqUD6nFtj070dZBp021bA1Ta776nVdf/fP/+uWjR3zb6vGE3//H72s+8Y8fm//Snk2nk+PGri+rtldPGI23NYzD8Ji8vgIc0+jyemUE55MaYBi9zicPgNwRgpyQYclGINmWnLYQLWXl+NmGrfh/69cJbYMTBHMpOpl1kHMJclSBUTdRRv4nEuSYKnIigvOkEs90+ZSQ8ZKKACjAU6zZ1EVCjWcp68Oj2yQAZCwQxHBgoc3O4aGwAyvCSACuwFRYNyXQ0g2tPQqPbNKhK0DpbfcM4F5o+odTKzSCHAvq9P+6vKoaN55/ASrb2lAeUaK5fwz19KzFpceMi9YXyXPFjVOznIoESkBREoQGPDuDZt3AnzY+j59s2ihy1yzoeoGHymw5MmUZdBSKaCvku9LBjGMHs2bPuv6RRx/76dEsoTvn3XnWT3720/vXbX7hTFMPZUKBw/hvGVSFqyadhomZHMzOgujl92U78CwPUEjUUes2kz4gktM9qXGynEOnKzfwYdhMEEPsdjL4/prn8fvtL4kLFSO5N5EQbFsoD6jCrDxTdZmmSG99L6eQHGskx+ZC6hebfJqupUB+W0rxkMBU/tJde1eKdqmu79FjAA3qZVwMFXjJ0PBQ1IHVcSxD+aGhiaCBwKtlroh976y+rNU+RXL71Ls/ZxjmV1zqETOSEx+HENUx8KbyMtxw7oWoL3SiKkrmNo/mnV+HzzlQeYUglwr6dSnnCqWABBIlks/x64gdKyuDNZ2d+LcNz+Gxva3CQzJ0G27kwbEyMGwLnSVXpidSw2nLsuJpZ0yb9+SyxV/u6+GaN2+e/tj8xz+7bOmST3eWOisYChieiuAuGlyHq046BaeWVaDMK0EP6TmYdv8O/Q4DINf78ekLyHFm1adwpsWCfozGjIN7n12LP+7YLo0n8tAupqKHY6PMJ/9MgRz/p+pmabS0P0/uWEFO0sXkHVKFYwJzqhoojaeuj634oOkAWSr4lHry9nV97v+4WMpgVB83UI7NuoY/R+1CkGZtkF+UXve8oABEbEIf1dZrupoBLvCB+Tp1nFiMllpCiOoImOPYuOG88zHaC8V0mmF4f9l6k5cSoUze1WTBJKqnIjKpZKR5p+LdSLOyaM3ksLitDX96bi1WtLbKAg9hwQV1upK+PAessxnhqkFqdRqmTpl69zPPrPjEoY7znXfeOeLxxY9fsGjhos80NzdPNm0NgR+LsiwH/c6rr8Nl4yZgVnU97M4O+F47MpkMQt7IEju73l7/6O/R/WVVqM+ZziNwpkGUbzUVyVHmmyBHLTaCHFO8HY6N76xeg4cad0rpghnShbqGyaaK5Kw4gi/+Kbz4VTKo/nsiQE7tv0RtbLIlp60nMKg1oD4hx8aU8ozStlNiqkd3rhkL8n0YDoR6lZRyHojaQJ4IN/6e14Vl202+5/XJSLq3PTlo79cxzFYvjKo4ziMXKyJURsCZBnDjuRdiEkxU02S6q99ydB/09fysbp6c4hl1qcIKyPGYqV6UmtvTUbKzaHGyeL69E/PXr8cTjduEJyduRNS/Z21MTVEnhyV1AtHwrnde86n//p+f38U/zJ8331xTv6Zq8wubG1YtX3bumrXPvLuxtfls3RTDe1kZrOVwHGeYBsw9aQwuGDkWY50MqtwSDK+IyIhgWYYUfQdA7thX4eFAji7xsanctrbbFr711NNYsGevpGWkFV2s65ho6ijzQ85M9ApyNIs2kk6m0pPj19HRN7o/8f7Alr5ailv8zmg1/S5THV0S5t1+rUdzBAly0rSDhkKmBmvDAA/77djJCI5G5hyZ5Cc0jCfiMGRv5qi2gx4hE9gVQh8sIMc+cRShMgYmacCNc+diuk0TWaUam95njmoPXsdP4p2aaSoXQYmzdSqzF4AT/fqkXkkdNt8wUJKgyUGQy2FDoQNLtm3Fw+vXy0lNB5HZMScHiU/VLAuxJ6dZfjFkyJC9YRh2dHZ2lnm+XxtFvslwn00hPozQyCGYXKwGqSeXZzB72FicMWQ4GsorEBc7EPglOJbiPnFsy2DLtZ+LLBzbElTzLSI7Jf3Ul0dyosBBcQMRioyx1bRw14qVWNzSIvw0KSXoOiaZOjJeINw1VQZRbvPcVJbQDXIpE7dbJuHIPwX3nN3V3gjf6VWdAtyBr66it2MHWL6CZ9lozlbiGbeEhW6n8oZN+HuahRKFWY7803U/4+CRnGZs8+JweMyxpQTkKmJFIr3x7Jk4t7wO5YWCpGMK6PrH1jNlleaQgBx5cj2L0JLhi7gBpW1KfgDddhQtw/UR2xYKGR07wgDLdzZifWsL1u/YiW1RtxpESs4UTS5Nhx+qezeHtukyzp/thL7AqI1sIq6EkRVAg5PDxKpBmD3iZIzWc0L+1Xz6cvC9lQZOzBpRulAHQO4YFm8Kckm0cwDIWaFS4CDJ1qfAqh5js2nijqXLsKy9Q9Ix8k8v0g1MNDVkfMqavXIgp/Zu/y1tdaTG1WndMX2UknZS0HFsVz6tL4GC42CzZuNpt4SnQh8dQh1J5lo1tCAWe+Cj3g4KcgawMQJOinVLyXfGEcoSTffrp5+Ot9QM7xcgJ4TIHh3kniAndznppqq6BAEvPaAs6NKDkzeJMKCFHG3cDDistwQFlDQPwT57wryTQ3OoobG9Fc9s24wXdu/GTh9CLeACYt2O3wlirN8I0CW1Cr7XWNvBSeVVGF1WjpEVlRhTW4Nqx4RDvX6DkkkBDI9jOYoWwlukFwYiae44DgK/b8v0QNWRA9Oao16Br/sn7g9yVCGRGCepyfUEOY+aayawed9c8JcXL8GqQlFAjpNEF1kGJug6sq4vpQbOlJ7oSC6tI6enQNXl1Pv2pAopd63uEyW1NHncURbjkpcSgQENIpD5TBBhdQSZ5S0pj/Y0G38YsTSfj3o7KMjZ0Nf5iCbQnUfV5JRKKWkI1582BVcOHo6agkpX38iRXG8gpxYxJx2YgqizIWa5iRmwSGAT5DRTJhnKMlkEJReRW0SlbUHXfJT8AvSMjaJmoUBOXVkGnYix1/fUoLTnixFO0Q/hegHaC0V4gY+C56PolpApL8eowYMxprIKw6wsGiwH5UEE03OF3Eu+HlV+Y+qTOY4AMHl9wr7XmR6rhlG39/qh19AAyPXtGkvNpdl3TxsPMjlkacoIxjSxcZ+6yO1PPI7VRWXOQgmjiywT43XAcQNJ1UJRNFFSRN0po1L9TQfajzWSkgmGpJGQglj6nVM7SuFYgXj39yRLSQ5Hui/dt8q0B5uYJwoWdq+ybm8KJSrbYelo1DWsLAUirURytM/0RZgd6GAroG9H/uCPOijIWbq92o+8qV1kmcQejSB3zfhx+MDY8ahu71Qgd6x78Tp+fqpEodLT7g+i+EfdiUD6dyVirUBIlY5VxCc1EIKPplIb1clKllD6PXl5xVFTHCqTXyENQVQNkGCmXm3/S+Dl3bLX8UF/Te668nhIa9Spuxmb7JZlwXdL0BwHecMQKaHbHl2IjVEkNTlOnF9q2xgV+HDIjZNRKpJH2NZL/DXUJLHU6Hqml32Lww9+wA42kSX2k6mJR8/vEu2p10vlO1TklzZC1N/SrikbK7ZhwwzpUMF0XWZQBbyLpoEtVdVY3tQkQgWc4WYG48lHlTr0EsSYfayn+6Agp0FfHiOaLnvDR4lGmiIuXj32ZNxwyngM6uiUqd3+DHLHegIGnv86PwKJMGZ6Q4tFR07dbIRxFmkwTRORW0LkmOjQLayLIty+YIF4LDCeZp37ctvCSHLkdFPkezn1QKotQY6Rt1A2pKmVGksr0Hs1QwxFnkprcz1tEtU5ZU3PN9TEB+XO06g0iNlPjdGSdbBUs7CmkEc73cQIlqYuHecgjIqIcVRjXAeuqEPU5IxFMHAOlaV6ghwVE64YPgIfPXUy6vN9Z8y/zpfywO4PHIHej0ACchI/SyS3P8hxtI8Np8gvIbYNAbnVnouvPP6ERC/EQvpsXO7YGOF5yoQ6oivWASCXGNOQf6lmDY61s3nsJzQRZJIXorE1sxOVSaRimEoxW2a8qTQiww2ckY1RMGNsN3QsLgUiHMrArYNqKCKxD+i2/XxU8iYe+14eogesQXswRnxJMqomeTUVSwlyF9XV4e9PO125dvUflaXjcbwHXuONdgT6AHJS1w1cxJaFdtPAys5OfG3pMmxLjsVYaLgsY2O4674M5BR4MHNT7luvPZBT/QGCkzh0qT5c4s2lQFxmYiX9VHzQyHLQaIZY63p4KlJ1ODG54XfOssboFD/747QdIl3Vfh0jfnt3AUCBHGkKs8vL8ckZszA65Ewra0HHaW8GXmbgCLzejkAvICdjUQk9R4OVKLz4iEwTHZaJJS1tuHPlCpFZ4gU4DsBlWQcNLv1RlYCkckqLkgjptQ1yKi1N3O2TBhwriqp1ojaCF4d46CLmZcrwnF7C8oIr0w30ffXJ9RQ0lIc/jQhnHK+lcPB0VTe+HcXRx6T4KBs1n8jFinGmZeIzc+biZKoSSMH7WMufx+vjDLzOwBF4hY/AASBHiSWpoPUAOXa1TapHmwY6LAuL9jbhm6tWiUsW61TjGMllHQx1S+K+RWQ4EOSY9nJ7LUVy3J9UWVjS0q66IdGCzRNVhyNw0VaQbCX62LU4DlaGeazwAjHOIU1K1Eh4zCw9Dzc6IvPow53xQ9Xkro4Q/lK6L9IGNqST5yDGBMqgn3suxuvkY0UwOIo0sA0cgf54BFIiPGW15GpSKjQCcrFSIKF0FV3QOPVAi8oFu3bj7tXPiBoNOXG8ni7NZjGUkmnJdIsN6tKxIq4aD1LbY+NBKlaqJncgf+3VOPwpyJEJoECOsSg/BTuorC2qdLZEoDMNFI0sNoUhlvr0fFXcTzKoujLGGGsQYcrx/CyHrF7q0PKRFudU40EXOzUboXSDvjB3LiaaJnKUJh4AueN5TgZe6/VyBHpO+hwE5GhpR5BzDPon6JKuzt+5A3evWSu1KE43sLp+WS6H+iL7i2qEryfIKdLuaxHkFJ1FMUUTytQBIKcMLZW8etGx0WTnsLozj+WxL65g4hqRBFK6ZXRGbnjcanHpMjokyGlACzRRWJK7EkeKnDhAwz5Oy6fOnIZZgwYh63uipTawDRyBfncESJJPqjnsH/YWyZFaorqLMVxDR7tp4sGtL+GeF1+Qi5w17qm6jgstE8PDEG6g/BRsTspQaDMFgaTxoCS8lNevZIJHKT1+fM5VN/FXhWLcu+5ZXvaHU+l0OnHttW2sN008VcgLfaakG/AiJUkmBhJxvAwxZh6ffet+lcOB3F5oGNQT5Mw4kFm7j582FXMHD0GF7w+A3PE+KwOv9/o4AkcAcqxP0Zu3zbLxwOZNuG/9egE5iqSdoRs43zIwNPTgJ8plfQE5kShP1UtftSOmojmVpFJtJ53GUqR3qXRJ48HGDtPE0rCEtUGUeLsqO0/iWxRH+Vh5+hz37ZAgZwA7Ig0NCuSYrJLW54s+2c0TJuCSUaNR6flwKL44sA0cgf52BPYDuXTCZf+anKiScBJFi+GaQJtp4//Wr8cPNm9Ca2JiQ5A7z9QwNAikw0i6hXRZKaAqEw8c51ISzj0judcCyLExSf6bIriwEpcO7asoj4EmrekDO4v1sY/5nuqoKllZFfUR5DQNT3tRdNw6qj2X4uFAblPIqRN5lJXwX3zRv3r/mNG4asIEVLk+ssEAyPW363vg8/Ka7pmuKsJoOuZHUmwqvSQiTFoMX2ckZ+JX657DT7Zt65I+n25amGsA9Z4Pn1wyATUVA6XZaApybDyQmMF0VamD8LGv3tnYH+QSAcxkd0gi4XxqybLQqhlY4+bxOFgDoyq2JVaDyYRrR4D4mGdUD3YUDglyJvBcCExUSqe20jiLA9QhwruGDsXfnHEGakvuAMi9emts4J1fzSPQA+S6ZMEloCHjII27lL4cQa6kawJy//300/j57t0CcjSxmWnbOEeLUOsGqtMozYcuqSH5hN0gp+p05JXJO7zqIKfIv8qzLlW5U9DF4X/XsNGZcbChVMTqwBP134IEcOK2Kp4Xtmk85gb+eSfqVB4uklsWAWcpkHOU5FACcm+rrsL7Z81CnecjlxYSTtReDrzuwBF4LR6BXkBOIVIa4ekImGbqNKWJxY6SFJJ/X7Ec/9XcIorQBLnZTgZnI0CNS1tLpnhKEVqYI10NBmUNyITwtQhyqZR5l0STUENMFEwbeywTKwvtWJNEcSQOpzLatm12ep533DuqR5KuPhhruET1Tm1pbWtahLo4xMUZBx+aex4awmAA5F6LF+DAPp34I3AUINfmWPjpkiX4ZXtHF8idm81hZuSjkoKqxDdSbPcN8ZtUpEkiJEZyr0WQUwc5CTt7HvGY0aaJdt3Bi0EJSxHKrK5oIiaRXHJDWIoYs07kyToMTw4/1aG9T8m9kPEi47WoiWOca9HQ5lyM4jyrr8yRB7aBI3C0RyDtwqU+GUIq7TFJky5URgrdP+vSsVTRj9JGS38WoEjEHoXKIPaAPXT/+DuRLFO3cDWgoH5W5kTqakwtJlUTU727IvqqCYSU/Js+J9VWpMwgIzLWpNg4YDpX1HRh+/9o8RP4TUeHqG5Q8nZuzsF0KvyUXFGBFl5cFAlli60HmfhMdOTUqNTxq8mlo+e9kcB6CgH0ZKrsrwxMbFAS6rLf6cmJNJSMLPYYJla47VgNiKy5OsA0iaOYbEAJxRMaxSVvd/BlqevmP5sR7uKBDrgAEuZfTQxM0218aO65mGTFqPRosLe/nlr3iG76wdXhTOdcu/hF/Ug6/WgB4A39PFpM+DGMMEZsmCjadI+PQEVdAoNJvwOf/bkYtm3Dl3lpHY5hotMP0epY8DI2OgMfzaUCmooFtHkudre3Y1B9nTyuOpNFpWGiItZQY1iogA7T82EGAXI0IAp9+JSE15W6M5VADFjw6fmpxwgNH4Gh+oZGxK6nCT2iNGkCzeKzq0bRU5MX+q3y5xKd7jQNThyjoFvY5WRwzyPz8Re/JJJCw/c5VJ2dszE5slBdcoV2IQaEXQDXjQwEOlaxiLHSeOhy2Tq6FcIrUnVFOSCvbA/TMU7eFLpuPPuJa2pyjKgqop7HuYxIfCkIcKJkTSNzPYMOI4c1QYAn/XbshYHCPkVkqcJFPixHhxdETyDEURvU9PVTHzKSA3C6A2sVi4OUbhZmXwgxtJkCA9fPPQ9nOAaqvWJXh6cbvLgsk3udvMsAyPX1pPS7x4mtHRFGh2dp4lhGNQshLSX0JJErijUUwlA8MihA2RLGeCn0sPTF57GjuQXNpSJ2MU1KBBhJM+VEAclX/KrVNIyuqsa4IUMxun4whpdXwsoXUGEZCKMS4ihAxrQQFF3EHlBeXgk3cBHpAXyD35XstxbZsEJHQhdGnsxuZIabF3xXDY3k4AgeZzK1CJlIQ14zscPK4Dvz52NB6Ir37iiCXNbEhDiD6lIAM3EcJYlYRXFpvKgUgc0kpBJ1EpllPfrV0hPkvCQ6jOUzKoMmqQmm1oDUjZTIWIEcZ2sF5KhALeNbMYKY0kpAYBvI6xlsjwwsLrVjO4B22PATKc1cxkLBLdJJ/YTw4g48IocDOTgw98SI6gTkaNzFBRMCJwH48OzzMStnHQBy6sMnc8bys9LZSiRYklRgIJI7+sX5RnqmFhpqbRg65AKLYsRxiFBTUu0OZz+DCJFuIbBtdGgGdgQlPN22B8/u3YXlW3dJ9MBVJ3OQyUUp6y5Jbfk3gl1q+MPvIzIZTB05ElPr6zGpZhBqwghBWwtsEyi3M4AXIPQj6PTFEIn/UKTuObVAAm7GN2HEHNVSaW7PSE5lNT1ADiEysS4gt8WwcO/8R/FY7AsYj5ZIzsC4KIuqBORi8eoij0xFhuqzHH+QS0MPHqfUTSwVF7BEMaRb9Jx71N0EYfqtNj6PYK4nspMW7QVpu2kBz5YK2BgoKSVP4Ds1iwjoMLc0CE9sLS69Tg4LcjaszRHC0dLa5sk0gKyvzDduOms2zq8uQ43bM5I7OMipk89aS3dq+0b2h3gjgdGJ+Sw60rSOku9CvQhDIFJdRulKRjpcprGZDHb6Hl5sacXKPY1YumsHtvGhBlBKJoNExMJ2BBwth8bZIdxiSV5PCc2rZCQjUWEEKwbGGzpmjBiBuaPHYlR5DpZbhBOGyJJI4AcwEmOa1M+DkRkjmUygSi8elXx7TVe7QS6KA2RhoFM3sQkG7lm4AEuioEsVeEbOxNgoIyBnJJEc5dcYGaUFyN5ATl1Px35meKxFx00CEkXudYJukOM7KC3fHily8ras1xMkGXULgRkmdps6lugu2b1Sh5P5VBYAnCyKHiuR0UbEohX6imyHBTkT5joN8QSfR5OInYAcpx4+dPoMvLm+CoME5BS4dUdoL3f86fl3GmWk96hX5JMOvMlr8AioUSARVOSlQkMEoU4wcuNVx/qXgXbbxDrNx1+2rMeizS9hR6QGvsm0oEctOaVnnHYazjztdNTX1aEsVyHf8/k8Ojs70djYiB2N27F9+3Zs3roJze0kb6jIjmNVLP5Pqa3GRRNPxfTaQcjm8zDdIqqdHOISo0odvqGaGpQfV566igAfEOR4kb+sJqdALjA1qfllNUahOp5HjPsWLACHNAka1NRwQzEAACAASURBVJKbUWZjTGChwvUTkItEKZcg11XQTyYKrP18WI8d5FiDI4AzIlP8Y/pIKPFLU1RPuq9S6bckoNbz6uXvbT7SzKEtiPACPCyGL5w44fOxOZT0Ji3Lyvv+/2/vTeDkusor8fP2elXdLXVrtSRbkmXL8i5ZXmQbbMCOE4Mh4ABmMQEyIWQyQBjIQoAZ48SY8Av/TGYyWQwhJAEGA2YGBxIwNnjB+yprsWzt+9p7dy1vu+/v8937qkqb1ZJlS3L6+dcudXXVW+6779xvOd/5olfFTR2zJefCXQrk59P3Fv6PDYSp7tp145nn4PpZM9ATVSUgOw5yxyGOHOenlNOCEydBZ+ikOYqlAS4iY75UxlO7tuGu7evwQN+glEKRZ8Vm2oURc/XVV+Idv/52LJh3Omx2Xo9i+H6AOI6RpgyNA2ElRCOO8PSzz+L+hx7EshXLsWPbbnFjSwbw2MH+N84+BxdPn46JcYoSEx4i2U23lOwCwM+03JGy2KmOWU79/r7uKrOvkvH1gCSJULYDDFoWVqQJ/v6hh/CsuS9nEuTKAU5OXVRiOnXGNiqaKwvuMAesx+log1xRVaH7SMid0OReE4Jvz2prS05XYRTGDJubMz/joYSa52NdkmAF6lgBYA/DVEVgTyw9h1UOj+bIXnZzmsOZ1mOw5LyHcmSXifsgAoFAKdckxuvnzMWHTj8dkxr1ZgB07Jbc4Zzm+GdfkyPAPqTSe5PBfO2bUUnXtjzkiYM+C3h4ZBd+snolVkSxxNymlspCqt1Sr4mV8LY3X4XfuP7tmD3rZJE0EopFngu4eYEvTWT4O5tzR1EEi5aXY2PFylX4xT334qFf3C90jUjp5MT5FvCOs87Em6bNRNiowXFF5xfU6uVCTpBjH2KCHBMR1NmgVyIwxKbfTVTQIEemCc8rdDz0s/VeHOOrDz+M54wnSuG0i8o+ZmU+SlG0H8g5huRCegy3oltXq4HNIR/hg04dzbtrVSrwgwWYFg1q9Hs666p78xjlEWmqoy1N1qBmVogtdo7HsxpWm65b0piG3RhLJSSNBrFjOYDzXu25fMgRcuH8W4b8zVxNdJNpwM91165fmzET/+XcszG1Vtdxtn3cVV6M9vPbmdv6Escl01/tW30cHk/oQzqgpiWJGNuhYqGH0RTY4Vj424fvwQqlpFH2rFNOQZrlWLl5g9Q/Xvj6xfhPN96IObNP0dQStnnkTijFTUuELmaWS2yO9BNYDuKYApaM2zkYGhrCQ798GN/+7nexq7cfZc9GR6SwJPDw2xddgrkBs6iRFqtULhzlmGc8R25rS45istr+0VUOBwS5KEbZD9DnWHgijnDbgw8LENDRPZcgV/JxknJRignSjH7pLuXE/VcW5LT1rC1ovYkYp2HE6raYbddkAFG77PrzIn3uBhiwXTyfRHgkT7Hd7EsK8KX1ppjDzA+9qm5qMeMPCXI27H8BrA/IymHcVfb5ZK+wN06ejE8uXIgZtOQsG57tIIljeBQKzFLpN5kprtbjIHccQswxPyVpqKcyWLYNq+QhiVOgkQOVTqxJ6rh34zrcs3UbJnV2YP6UuchcB4/1bsQL/YM4e8EcfOQjH8FpZ8yX65AH06yc0hS5IPIaSW5N4jUxQP1h85CmuPve+/DP/+d72L1zl8Toul9sMvCOWdNxzfzTcIptSVf7ih0gjVLp02B7LtJG1cxvPYyaVNzKFFBBToO30npyuYOBkocH68O47eHHRYmDMcHFAC4o+ZieufATRhr1fqhaIrXiAnutJtAEmL0bxRzyEX6J+1zIJLU6bBW2HTOhPK7ImptxpaVqZTnooBPa+W1mvHdaOTYix9NRLFUNIyIcoLs8SIWakobZ9yY53nQsJt0hR8i13VsypT5HS65cKaE2WpWLpNjf4kqIzy+5FDPjSEpQhKEdJ/BdEilTcRUIcvpmt2gk45bcsbjVx98xOfnKro+Reg2RlcLxPVScMoZs4L4dG3HXc2tRmdCBqVNmYYLbiVW7t+Nn/dtgT3Dw8d/6HbzpDW+UBIUm4LbmWSta11rLxaUU60NLdBeBpVjVUOmagDvvvAv/8q3bsad3l1DwmVh711mzcd3c09BTq8NrZPA9D/VUwXbZCoA9VWlxSTfRg4IcrUu6w4xH9ZVc3FcdxG2PPiXcMQLqRXyOSj4mZTY8qQHXZGCSoAuQ42nHJnZ5dEFOu6FSDWKAqx3kEsbbHEfI2VAZPMeBpxhaoJPOxtguBsMA61SEFVEqACdVDb4HFeskBa8lCLxnoyh6RWSUxjKrDwlygHOt6zr/zhiHpPg52AbNLyyH+OzFl+BUXjR7PRC200yDG7uAc4DaQK79hJpd3ptZ1rGc7vhnXksjQOBxEguW6yANaDUoNLIEO2ujeK5vJ9bv2IM5J89HBAcbRkbxwPaNWAvgrTdch99+3wdkMWVCrMmiaKsl3Tcc0izVKhwzzjvGBPNId7iv27j7nvvwjdu/g/4+nZA4twJ85JzzcVH3JATVOgImQhSTb+yl6kJxrls6HqdBVpOFtWWpLTmCnKBVbmNPycVdw334+hNLpb8DQY50/0WlAN2pBSfVLjAtP21z6kSMyIcbMi5L0zQo6at+Of1XdSmcnlFsHF+4rC0CMKsX2PGe2WRbGzKylmhCS9X1sdbJsDqPsCzOpSmN/m6hFUfXN1sDKG1uH6NtDCDH2IY3ZFlWF1nnWRLrNoQAznxxEfvCkstxpufCUuaGp+TSOTIwDCirIuW9z5HGQe4Y3fHj6LAEHkd5nF+I0EBkJ1Ae0J9E2DY8iIFqxIAP+hTwxHA/Hh4cROXkHnziM3+M804/C0ncEEOqvbxJx4ZbYMPf9xLPFTe2GAQFx1MYHaqiu2MKhocbuPMXv8C3bv8WRkdGMCUH3ljx8IFLLsGppRDW0DB8xxXuHBMZ1ESz6W7vB3K6qYuAXFG1kNvYHbq4s3cH/nnpc6KMywDVGxiJDzxMTFndkcCyLWP5tUCOwBEdAOSE8dE6wmHfWY4DqSPcJJu6XymXzuxKxlsrBxg1O7qwLgZLPpblMR6t1yRGKuW8KV1ZD5nnIUriHUBKSu0x3cYEcoDdC9iT9A3TAEdS8OwXnfYvXHwhLujoFAuOlhzLcIj4NOWlqe6+l9csgtZ/KCbDMR2F8YMfoxHg4+PLPImTOnI7Q9BRwoiKsaG3F7tHWIdqYWuu8PPtW7DlRbB7y3vfjre/690IfB+h7yHLmPRi0F8/rfKgSslpi9LUrBrQMm1N0KP1RTqeZBLJGbYC9Mcp/umb38JP//1fUUqVcOjeMe9kvH3+Aq2dyORIztIz6U2lLRupiGi35Fogx1Ix8XAsB7tDH7fv3IBvL1/TFMy8ihaj76MjZff5FBlBLldNjhpjcu0gZ5mgv2uMh5cPchoCCguxcPWLYntelmvTiLHA0i9SabLAw5BKsRUpHoticb1Zh8th5LWmSrAuAhTZOcd8GyvI7XRtb5rEC1SGwPdQjyMp7fqT887G66ZMhcWVjXV9GVnbJqAgF77PIcZB7pjf9OPlBJhRZbaU7qLLmtQ8E0uORfab+/qxM04xEJaxfLAfP9+1B90zp+C/3fQFTJ9xEjIW9ucZvFxbUhJvKzpFmaoafZ3a3pGYsEkEyOJqKFFJmkqszUpISnah/BCrVm/EbX97G1avelZiz5znHzrvHFw2YwbKtTrKnOfk49FrEdWQg4GcjZyLvsMgvI1doYtvbl2N767aKDJLEwBcY9k4x/NQSjI4eardwzaQ47PEBEBhyWmQYyKjMBKatuJh31YBMsO/KyzgdpDjmMqzXLjMcBGFJQz5FjbXhvF8kmMdy+kcB3HGIjT97SAIEMXRGuQ4pm5qMSBjAjnH8TeoTM0JS8wwxcjyBJZrY3Kq8Ln583DVrJNlJeDKJq+Zlntu34rAcPF2kW4ft+QOe26+Zr4gbqTnIGfHtygV+Z2Ga2HH6Ci29w5jq2XheVvhsR3bsLGR4Pp3/QY+8v4bEacR8oqHxBTGt6ZaId0oton2FPaa4ZqXV/RFlVItlnCFocxrleYoB10YHU3xz9/+Lv71//0Qdt7ABChc0dWFGy+7FDNqDbHuskR7LDyOVDaISUdrTBMyWCUhHe6Ujk1TXGBnycE/blyFH6zdKpw/7ucax8VZrotSxHxmC+RI0+Ke2kGuVXFxdEBOMs5t5BFZDArfS6o7NM1Fx9k8RLaPPYGFTeTCxQobAQHrKmz4tPZ8G41UbLrVSKWd7HGxjQnkXNdfppQ6ly5ooY1gezYmJQqfnjsH1849FS61uiS9nSHPFDy6rnRXlVEvMK5uq8i3uP6WWslxMSLjJ/GqjUDRD0EllDxy4YZ0F+vYsLsfO0di9JbLeDQZxc83boJfLuEzn/kMLj7nXLi+g7qdIM4TeEWAX6hYnGsa3HRQxVg7pHiax7dF9dBupuc5qNfr4k56TgAnsmDbHtZu3Yk/u+VW7Ni+WSglM6Hwe296Ey6wXEzLFEYHB9A9sQsxC/nZrEVH5DV/LOdTosWI6EqLXBQsbCu5+Nr6Vbhz/TYpS5tKrqnj4gxmayNy5Bj914F+5mw1XGp3NWZ8mwIZRjFYsqzF9Zl/adLu3revWABao9H+970ZcoWyXrFU8Bz4PVZkKUonBT5W5wlWNupiwRHgqKSSS2uEVLvsLrYgEXGV42YbE8i9SIm7H4BosMuwMGuaZZJmv3HydLx30WJUohp8K0OiEgnO5hFTziR26kOw7EVZlKzR185AZ3O1PW6GY/xEXu0R8KgukmWw3AwRFEaSCKt37EGfCqSF3V07N+P5ahUXnHsuPvv5z8EPXdisBzUk4kJXU8DALKzt18B5ytIxUdkV/paGQNlIn6A9mCtEmQ/PC4FGJBy1hkpxxw/vxDf+5fYm+f39C87Bh049HV0DvfC8HHlKnTtXuGSRkVTivNYUFc+QiGOJ+7FBza7OCr705GO4v3dQgONkAL/ulzAjbrBNlDYKck280J3xtEQmtyILak5b3mtF/jTAaz5dAXS6PKsg6Rc1qO1jI+67TbKE4eQxySAuKiG6BXCJ7WDU9eR+LG3U8JxSGIWFhkCxAXchXmfEvVdcBPNw5+iYQM5xnP+rlHqHtEqzbSmZoQnenWV4V890fPiSi9FZrSLME6Q2mecWrJgD7CFztOqIy3iLATlONooitlaiwz3t8c+/FkZAsqu5LQ9Z5qdoWBn6azWs2dmLQaeCdZnCjzevxS7GxN79brzrPe9CHmj3kLEuUkiKilcBh31+ZDF1NZWj/W8CFJzLtDyyGizHReZ0Ik1yVFwHcVJDUPHx7Mrn8D//5utY/8J6Ib9fM30WPnbWeZhZH0Xo51AZa1sdcU0brk5ocDGXOm4Dci5DO7ZCrBS2dVRw6xNP4qGBQQGkOQJyAWbEFMvcH+QK0DvYvdbOclGWdXgg116H2g6gtET5oytyLdShpCZ1qwOsVwpPx6nUD9f4CVlUMtHhE7pYlv0cwNXH29wcE8i5rvuVLMs+Lf0jDT2E/54M4NrOifjPV1yBicOjKGcxcl9pc1ux5Ri1uHRph5ay1pZcE+QMV2m/DOzxNkrj5/OKjICmJUgrK8RujNhWIn65gYX4fieWDg7hnv7dSHwXX/zCTTjz7AVQAiY5VJoi8HxkTOUZ0CpeZZE1P1yQpdTLAF37Z6TkiIBWrmAksuC5JSCpw3PpGqZIlY1/+vYd+N63vycgd6YT4FOLL8a5YYCSlcBOE0m2EeRoybHI/cAgl6Oe59hcCnDr44/h8RFWOGmQe1tQwklR44hAjvtgSkOuraAjH8BdbXdVCxnOljS8tsXEAmR6xBCDRYadlqRTwjZb4cm0jpWK4KZ1+6ygQ5KPVI4RLiCwNM/zRa/IRHmZOx0TyDF0AOAn7ccqLLlLgwCfvOoanDRSRYW8Jc4TFkc7ITJqxdBWF8+AdnyKlMtEbsGV1U4TMsdB7mXexRP06wXIUTAzciJZADfu3oPNQ6PY45Xxyy2b8VQSo3vmdHz51i9i4sQuyb7a5IyRbC5Upb0vfl9A4zwtNi3ppDfdeU7BcXNEMastJqBaq2NiZwm16jAcj9PTwdKlq3Hrn/05VK0m/YZ/d/5ZuHruXITRKIIkkXItgpt2VzXINd1VsAQqERCJLGDti3HHWx5/FMvqDfFiTiXIlUqY1uDv+z+Kh7LkzJWYKzJUkIPMhfZ4XTFkBD/PyIRoGXOTi5ZH00HDcjBgeVifxliqEuwwf2dqgTFFnTRUrAt+Lo7js4/XaThWkGOavz9JEsZgm7ED/rLQc/H7V/0K5tcTdDXqsPwcMdPmXgmpVj40frvuLC7ZLeEXjYPc8TopXq3zIhjwJ3csIQJHdo51O3ZiWxQLJ+6uTZslg3fuZRfhj//rf0WlEkqygVjlStxLovx6Ed2HqlS4pwyvFP/eF+SkptS1hdibKA/lchmj1UFM6CyjWh2SqobBgTr+9KZbsH79BqF8/PqkqXjPRReiu15DV0bZc22MRqS0iDy5EqHPVuKBcRsLDdvBqheFAm59/FGsjClzDkk/XhuGmFqvHxDkDnUfNAVEb1KW1dY0qxXN00X0Be+tPTHBRzFQLDjjZ7TYOq9FOY7E29hKcJmV4NmaBmran4wl8sevlFCnIGmO1ciPn0zqgcZszCD34iK203XdaVLexUG1bYRK4UwX+OjrrsRldohuZqmcDEkWw/ICZG3JBSmaNoRJ3RB3HOQONYlf+3/XDYYZ+E/cDKN5gjXbd2IXLDw3UsXdu3ZLPO66d78DH37/+1AJS6gldShyNanvZmJwWuyCiQfaFuStmYoH834mYpymTtNyYDm6+1VRQlWrN9BR6UGUJlB5LG03fTZaqcewswB/93e34d/uulvKsBbZwG9dfgUWuC4mEVRMp7rE0TU8Hi25ZlmXFtckiDcsD8/GdXzxscewTuWiYXeWBVxdKmMKn5sj2NrLsopYmma16Vidpu4bd7QQxWw7jjTtMcKYhexbajuoeg52vhgH3ehYeKweSd8MgrJvB6iqSCv9Ul0gw0ZkQiM8rrfDAbn1hhcpsjUUJGSc4iQAH1x8Pn69eyYm12h2NyQwzIwM0/hknuvifD3cusCYk8z03B53V4/rCfLKnpwGuVhlQGCjP6pi1dbt6PM9PN7bhwcHh6U/wIc/9hFc/+a3SNaT2XuGPlzLFSFhFsvT0dI4xqpJljBQxcONLBsjeYYRZWWx+JSOcq3cLueW6lJpXslyrZRDiy1qZKhUKhgY7Uepg4W0iWjcecrHT+76Of7H3/wtglx317rxnLPxK9NnYQrl0VM6bqSQmIqLJsiZ35kHtnJUbR9P1UZxyxNPSIUAU5DnOhbeEJTQUxNu2WFvuiyrYC+0aloL36moQW234poZ17YYES05Yhaf1xgetvsWnnBivJAq7Em0a0qqDu05jnesEj7TW5FJgvi43w4H5FYBWGCyKFpHP9ftdm5YcBo+MPN0zGD6XTXEnWCDD+r2E8x0q7aCR9QOcqavZVtXouN+xMZP8CiOgC0AEzNbX/awa2QYK7dtQ38pwP279+Dx4RFUPQu/96nfx6++8Y1I6jU4viOSXvQExKsQFRJJNGz2fO/ZkhfcX+ooryi5lY1Bl9pVrXq1s88+OwPus1aunGK7rht46Wj3aBSdFtejJcOjo7/q2PZpjdHGDJ9kd9cE0gmmbOaS2Hhm6TJ89pZbgESJy3r9nNl47+lniQVWMlQWIf+Ky9him8mizgXfovxQgMdGRvClp5+Q4nyGes53bVzuBeim23cEm7bk9CNcaLy1sq2GxNveC5WfM4X4TcvNWH5k9SVwMcSie1fhIVXDOo3fUtbFDmqkDrMzBXnNyMW+OSG2wwG5Z1zXXciJRYCTgG7KBh3ABWUff7TkSpzGBh9JQ0q70sDkfZhhLUDOykEtOnEVZO1oWXgnxGiNn+RRHgEDcrTkPAvbBvqxrm8AuwIPP9u+Dc/WGsgqPv7ws5/FxYsWwbGZuU81DzMDooThcvuBSZMn33zxZVfcb5HPcATbmjVrumq9u9/f29/3ezUVneMFLjxKm0cxAuXhudVr8LkvfhHDgyOo5MAbeibgEwuX4GSS3jN6L7QhfUP+1XJJLFnjJow+x8WIF+JnW7bgr154DkMG5C4OXCyGi+5I9y0+3K3oyaCPo9MARSyuSDS0ixOIeypQRY0U/UkCcCRhch8jQQnL4jpWq0TIvqLsKy0aHHnmyTlMkdOTPWEATo/N2Ldfstl38XGRlU51AHWeBXz0vIV4w7SZKI+Ows9jqMBFnGRwTXaVlhyHVbqWj4Pc2Ef9Nf5JZvEYk8sdG9sGBrC+fwBbHAc/2bEZz0UZrM4Qt3zpVsyfO1fXgXq2yInbub1y0rRpn7toyRV3Hq0h2v7kk+UN0eiHRkaHPm5l6QLfdAvbtmMnPn/rrdi0YTMCBby+pwufWrgEp7APhHQTJUNAL9q6wY0BOZF+yhE7Doa9Cn6ycSP+eu3zUinATO1lJQ/n5RYmRKbLyxFdSJFV1f5nwVVouqiMG7JESxgO5CW2tOPYTYJE5qFcQXVNxPKhITz9YmUHLU1GCak0Qm8sSZvnV82PkbrvEQ2N+dLhgNx3bNt+T5GS13r6evB4w948qQcfvOQyTBmtImQLON8VHo1vUQOfrmtR29cCOZ3pKUKjL+cyxr97oo6AjtfqoD1BbuPACNZbCj/cugnr+ERN6cbNf3oL5p4yEwQdNnsOw8o/zCt3f+Lkyy47soj9IQZry5Yt4aZNq/97bWTkd5BmPf2Dw/jCF7+E519YLf1NLgg9fOai1+EMacCn5dEZiZfGyzQxUdSy8p8Kseti0OvAD1evxdc2rxELaRa15MIAZ2Q5uuIjBzldQK85btp602IExSaS8qQi0oYzfTS03rDuUUsbstZZxtPVYaxTwC7XQl9Khpx2fHlmjqtDA56FXya5rnw6kbYxg5xt2x9TSv11+8UR8LiKdWQ5ziKH6IrXYZFfRkjeDyWis1hkafQUNql+eWm5q+MgdyJNl6N/rrQmpLF0bmFb/wA2D1fxfBbjB9u2YAOASSdNw0033YTZM09C4DmR49tfvuJN19109M9k/z2uWLr04t17tv/l7t7eyz9/081Yt3qd2GsLXnz4P3fxpVhYKcPOGqZedX+QI12KenOxF6LPLeO7y1fgmzs3C7CQI3d5uYRTE4UOk6E93GvS7mkL5MjY4jH36qZFz8nSVUdCJZGnUWvqsZ9t1bGx3crwRKMuvRmoC0dgK/sdklxMBAoVWTCrlH7MT7htzCBnrqwaBEGZXY9ETZXWnOWgnGeiqPD+M+bhnXNOR0e1Lhkuid2RcCl6X5qT3Yoc+EbscNySO+FmzVE84czSPR4IcjsGhrF5qIpVrBvdulFArmfKZNxyyy2YOW3KUKVc+s+vv+Yt3zmKhz/krvI8t3/xwM9e94mPffr+55evEJA7jSB34UVY2FGGnbPqgYXzQcuSI+mdnbyopJ2TQ1fCbjfEt55aiu/175BsJYHy0nKAU9IMHeyveARbO8hxsZBERLMfg04yaJkAbUpQJCBhxZLjgk2yh20bux0PTw8PSMaXPDgyuzLHR8RKEqIDExUWVqo8ZWOxE3I7XJBjzJSNukx5F6lKNgKkqCDHlRPL+NiiS3FKbiHJEriOll6iTpZNSedcSQmM9JEUoo0I1bQKpk/IIRw/6SMdgUKFROLeloPt/YPYNFjDOivH93duxpo4wcRJPfijP/qj7RdfuOh3X3/Vr/7oSI/1cr93/qKFG1Y8s3QOZdHPsi3pbTLfteDamdCknOwgIMf6TyfALjvE1x95DD+q9YttxPKAJWGAWWmGSnJ0QE5KswzIFRw4Jhh0VtSSPrax56LuWxjNM+HCPV2LRKWYcULmeBlDrzIRFJYksYg0X4s8Yw/sE3Y7LJCzbXuHbdvTebWaFCyFIdRhkEZyZHB/8qxzcOlJs5AlDQE5kV1SVDrVsYpxkDth58pRP3GCnEWLhzXRlosd/YNY1zeCjb6D/7tnG1ZWa+jo6MKnP/XpL3zuT2+6+aifwGHscO7ceS9s2bBuPkFuUVjCZy66GKfZ9EskCQInLckrf5fyxcKSg4Wq5WG7FeDvH3gY96iquI0s8rww9DEzUSinLw/khA9n+qIWIEcWA5OCWg9O91xoWDZGAweDtsKuRoT1CljJ7lpwQNYqax74VLcV7B/31QxjuYWHBXIv3pcfu677lqLqgauvZYVQik1xE5Fe+tC0abj+/MVwoxpCNr5gjaG4rFQhMWUjTFcIf05reonPv08Bq2aNH3hrP+nxutex3Obj8zNSm+9aUgboOz529A5ife8gtgYBfti7FUtHq2KHfOkrf3HlJ//gDx44llcxsXvSltGBvlkk8Z5fCvCHF1yEM0o+VMbierYkDqRYv5V44HzXysGD8LAJAf7m/nvxqGRjgQvYqSssYVqsUM5IhdEzudWgpr27HW0xvbWXcenfW09DewNoTRcxWVUh+bKSwUWf72CnSrC2HoHsfpKtG5arQ0o8C1dnY9NEKuqO+2qGscyJwwU5xtlo1XJBkziK41SQZTFgRZhqAecp4DeXLMHZEyaizHIZxuIyLSzI1Saj9A1XvEiJy6sVVQtd/maDblMa06q5K4BQylZEDkZ3KxfLcCxXOv6Z424ExJIrOag3GrBtH32DI9i0ZxA7fQ//3rcNT4xUxYX6g89+9rpbb731347VBfzDt/9h9m//5u9sQKYsxp6XlCv440tfh1lsIZhz7hOiXJmXvvBAgdQhaVa3I6x1dOGJeoyvPnA/XkAuDw8tuYvKnZhcTxDkpNjqssdC1lyeFxHJ1Puj28mNvDZu/BznPQv/WWLJ49IWo01os/pCZaA+BiWTWCZeUxYanV1YE0V4Pm4IwDHJIP6Y4yGnbJRkudknVpqindAuavtcOWyQe9EjHbQsa4KWXWIjEVNE4mbS+IN1RlFnGQAAIABJREFUHu8+43S8dd4CdA4Po5yxVDmDcrma0BxmHMODn9G0txBbwqA2rc70DS2suL2LirWOv0jBjIPcsXrej+pxxbJnSZbLIlMPQ7QuNu7EDtfGXQPb8NhoXWJFV1x79R/e85N7vnJUD34YO/vUp37/o3/5V//z731Y6FI5fmXSJHx84cWYHrNzXSz0KC62nJdBSrAjhUSDXJ7lGO7oxAO1CF978H5sBaRu9RICXbkD3fUUfp4iMXXdgZGFSg3IEcm4X0+4pVQI1gs/WwhyY6tCQqwnSQada9V0Ek0pIeg1KG82oQfPDQ1iWaaaWdTMD6ASyiUBpVIJjYZUXpAHzNzKa2Y7EpB7kv1wdf1qEZdTsDz20Ewxkanxzi584sLXiwaym9QIZVCepbXwM+rTu/BzX+J1hbtajGihkiBxBiM31j7aAnAm8SPW5GvmVvzHuxBNk8xg+y5GU4VIAZu27MEOJ8d9tV78Ync/aj7QOWP6j3Zu3Pm2YzVCl1+25PZHHnn0BnbqYtbtnaedghvnnImpnP9Kg1zRq8RLmc9UyGw+GySIQprx3DNSxW2PP4I9pjH769mKsNKJSiOBp9jbgeolOQhyNBsIZoXKLztliUIZnyRj6hUWI0nUSUbzEfAtoGTAT9etOqgxDlcJsbw6jDU50GcDe6S1oP4Rd9e0QXyxQpOlmyckTeSl5saRgBzdzCjLMkmPeg57ULIJCVUDMyl7Ibj99hkX4KrZs1GJa7DTGmInhuOxexHjsmxEFyBLFLiIF5EGTQxttY0rLLl9QY6/N7Xrx1HuWD37L/u4nHx+xjiQjcEsQR0Otu/qx9Y0xTI7xs82bBJqg13x+/7qL/96wUc/+lFp0P5qbt/73vem/JeP/u6yoaH+6QQQknj/08Xn48quKeiOmHTQCzUtOQmj0DcUKkba/H1PqYR/7e/H15c+JSVdFLa42nZxZhAgjBPRoMsF5NAEOQIQrblmDC6nkUA3WAuiexQnYMxNWgBmWrCTVqKpTeVnGlaAwXKI1UkDy+KGWHBU9SU7mDp4BEe2GSSFRym12qg/vZrD+6oc64hAjgkZ27Y72NhGmnSY+AB5cazg68wzXBx04T0LF0ncIYyrqKkhuIGrW5wlljQNYXekQtk042rYVkxcYFer87kej/YemqJfb8z5V2W0xg9yVEdAZPFZnM8uXYGLQZVjQ98A1g8PYU8Y4v4N67AiihF5wLVvfuvv3nnnj247qicwhp29+7p3/skPfnzHrbYNdCrgTd0h3n/RJZinbIT1yHTsavVy1f1elVhmwlPLHewOAnxnx3Z8c9VKcb+ZvLjW9XC6ZaMsmnQsA9NuKeN1fCi1lbV3okG4brbmw5GSVSQX5CHms2NCPbb0inDR67hYXfLwUHVYLEhWWnCzXU9kpdo6hy6nYTmG4TghP3JEIOe67nNpmp6pKSJaZb9gU3MUAihMYqnXtJPxvgXnYo5rIY0GYVupCAWrWCFwA6iMN0wnDrTJ39q4Tw1ieoUsAG5fN1ZUFcatuRNy8kmsiY2IWTtZCjDk2Vg1PICNoyNI3Q48sXkzHh3oFetn0tRJT2/b3bf41bzQe++9133vO9+/Zlff9jlF+eIH587AdfPPRE+SISQZ3jSxljksT5NW1mGkTF+fg92lMr62fi3u2LBWCLdMXrzVC3CqUiixZaE0r9HxtKJLV+H+MrImyTYTaxPrTtoJtLTg+B0enw4y1ZVZRjaU2dhqAY8ksWjyjVoWIipys1aYx/Qd6VubJYoskhOW6DuW+XBEICcLB7OsOduKSOtMkM9ILo70dMgVSlA4DRbec/o5uPrkUzCNTafjKpSXI8sSlCSWkItCQ6vDkD7lgshI813Y5AJiWpdOl64ACZdWI20zDnJjudXH32c4+TzSGzKF1LLR6wE/3vo89mQ5evwe9FZj/HzbeqE55I6L937ot97x1a9/9Yev1pV89MMfu+G2b/7j7ZYVI0hSnEOB2LPOxpJJU1FKE12Sb1puFiAndbgWAU5XO3jKw65yiP+xchn+bfs2saZmEOT8APPSDIFiP7tcutq1mgwWCiaaLN9qWMPPtXhsRV9U/p3vx7aNmu1ih6WwEik2ZcAupfXgSHTh8ymPEt0v1per/HGTA3m1hvSYHOeIQY4ZaNd2JjJwLDeYE9FlwloPoGcrdKTAQsfHB5e8Hou8MiqNUTgu15sYJdtGnCZIXb8p/FeMQJOtTZArkgyUyTYgx/gD1RMEbCk3PW7JHZPJczQOyhit4/lI6aomNXz5sUeFgT+/ZyK6p87C4xs2YmM0KuDgd01Y/YX/7ytXfPIjH6Fx8opvU6bMXb6nb/s5UJE0bbpmaic+vOB8zPdKUI2GIdCaGFwxN6VxUwvknJwgV8GfP/ME7t6zW+pWGbN+m+djrriqummnBi+qFWvRJM0y0HObIZ12opToARjrzqPoKCiBZKPhBSJZ/nxSxdOpEkVf8YAMgLKbKxsBMXYOqMeQY8krPojHwQGOGOTCMPxRo16/jlE2OpqMqcHhndYBOt56dgFn/OEN02bhxrMWYb7nwxkdQGiRPJwiZeqcHSe9QAOYHnxpI8dMUxon8EUgUVtzkpjgisT6OqPXpbuAjW8n5ggYO4WB7wzYlEf4ymMPYg3l5VjEPmM6Mr+CpRvXYxS5WCOnn3v2Pz+/fPmHXunr/bVfu/7Wn971kz9hE4cgiXChBfzmhRfhssmT4fb3o2LZCFwPsdKqH7pu1FT0FL0eCFB2iBdUhr9c8QweHND9VsnPeKsfYlbSgGPTs9GIlTsOklw7qAQ1oWlJ8lPH3wo6Sct9JW8hh+2GaNgutlnAM6qO5UmKunDjpFc1hVC0NcgkhTha6qfIce0rPYbHy/6PGOS0A+mM2rAqEoGgeqYoGSrTs1EnBUqOJSolbz3lDFx3xpk4OYlRjqoouSlslUg/IzLpZHWiiqpYhpkQhSkCwO7qRUxOD5pZOffjgB8vQzp+HmMdAQpLiioGhRxsDzsdhe9vWI5/Xb9TLBsCwsxp05AoB2v2bGcBFWw/wGVXXvGbv7j7rm+O9TiH+7kb3ve+93z39u99h5PSylPJqH5w3pl40ymzMEklmEjwYVkjM8OOr/vAGol/hlE4j6V5OqX/bR/PJyn+YtmTeEoqOID57FsRhJge1YuGDDLHyaiin2PZLDvQqEaQypRu/uzZQKCD37KlrGKwHCSVCrbUa1iXJVgGBaaghcBSPN05UAl8NKJ4RAEP57r73n+Y7WWBHGDdDbhXy6g7lKIGnESnsj2Sf1MdT2BgdKrl4o1z5uHts+dhQTkERvvhRA2Eti8NepvWoMdej4zXxWgkMVxft7nlVqToi4SEfnO8peGJO1tJ6XelubSyHQw6OV5IqvjbXz4ihK1RC5gUOJg+aQb6h6rYMzooEaoMqv/zN93y+ptv/uxzR/va33nDO6+54447fmqFrGKPRSvxyq7J+PB5i3FqWEJaG0BH4MBPM6goOQDI6TPSvDYbkeViWb2OLz/5ONaSjSAF/g5+rVTClHpVHJ/AYf8nC1zydQKCi752Y5XD7ne5xKI9i921+Jjpp6ph+ah2lLGyPoQXshjrc11kzxicX5mIkeqwZsKxu5mF5xOFM4/2eJ0I+3uZICeyyWss1z6NaweVgkMPYJUXN8pU16nmKnLVKaaSSDl7Pq6edxqm2DkmUil4NEJQyKlbubiwGf+jme3k3GtzHHW1g605QkVWaxzkToR5dtBzZGmg5XhoqAw1GxgtlfD95U/g9h19GPEBJwZKtoOe7qnY3rdLQI7zqXvGtPu2bNn0xqN58e9/zzuv+sEdP7grynKHwNCjgIW2g/cuvAQLO7sxIUuQexlUXNd12VTTyVqNmmjBFcXtOs7moua4eHSgH3+x9BnJctLhOdd2cFUYoLtWEwuNJF6HVp+AnCf/p9OqWwWyEY4u5xIBTInV0fvxMeq5WG9leDYeFT4hLThCJC28wuDzPAtpkqzOdQfE/5Dbywc5sabcUTdPK3JTCHKMqZiEgRaH1jGGEnLJLF00ZSoun30qzp86Dd2sba1WYSWZKL/quGgCi6tbyUcji9pVEYRsSVdAmlMbF3c873Dizt00SRCUSqgrJZl25ZTwzMBu/MOqJ7G8rgPydFvDIESW5WikLDV3UUOKCxYv+rOnnnrqvx+Nq7/2mmvefvfPfvYDF7CZNSVf7ZyShevnnoXXzZyDMsMmaQTHd5HGNWniRCK8ap+H0ldYnw0X5Nh2Mer7uGvzRvzvF9YIFYYVEwttH5f7QE8Ua3qIJBcITwESxs1ythWgsg/f04m9yAZiPlO2j8wrYTgDNucJnsrq0vSZ40R6imKcMFNwJM7J76oXjHzd0RimE3IfRwnk8GTF8hanKpGCYW6BbSPLuLKRmKhhiADGycOOR2f4JSw5ZTYunDkNJwUBOm0fThTDj1OEDuv/MtTjurSqK2gjevLYmmQ5DnIn5ITb96RzZuIDH7Usg235QvPvcx08mYzgm48+InJAfHh1bJ7VzroRMoHPdhwsXrz4M48//viXj3Qw3va2t5139913/WOjHi0uiY2Ui8dxTncZb5gzD1dMmYnSaA3lIBCRWFpWJd9FFtXhUIWnvbWm6Ugn6z5dR/LVAh/fX74C/7J9h1wH+aMXOCEWuyl64gS27SDN6Jp6yGwHwxKnztEFW2pctbSskuxyg8+UX8aw62Nzo4bVaQMsU2ArnaKBjejBF624cPw3fj7S+3Y43zs6IKeTQ8+4rr0wV3Q/bN38gq3iVA7f0YDHzaMICVtAAKAw3aKuAJfOnY1zZ87GxMxCMFxHBxyEdAXSBJmr4xEp1Zn0Gqnbqo27q4dzn4/Pz5JqwbaVloV6ksC1A9iJhSwoY7hSwV3rX8D3163A+kQ/5AQ6nxnIjFCjKZnMHM6ZM+e7H/zgB3/v5ptvJvtkTNsNN9xwzj33/OzW/sGBtzqOhSzWDZ/ZQPpsx8EHzl+ExZO6MTHPEA0PwymXkbH8KqM0uAcVN6ArC0zMWJIPLUUdnkTNddHre/jGow/jx8M1iZedBAuL/A6chVH0MKFACggnuF9Cf9LANpWKITCrFKASK3TyAqFQt4BR10GfZWNjmmC1ysVFZaf7BpVNXAcpm2OTbK9ZxSsRvbZJvmO60YfZrevQ+7SwxsqZIbdhhx6ySDf5EK6PZSHNNZmRrqhkXpVmfzN7tfCkHlw2bwHmd01CR5TBrzdQohSP6NC1slfFKllkXJXl7tW4Y2/OHCdI0WpXn/6+qF5MzINeHMGUk9eA6gE/V/z9UJ97yRHc+zxf8qNtx9OMe32dci0vdZ5mp+2NTmS89j3/ffZfcLJe6vXQk6P1iaKESWcQuTEWmyNwAtixBWW7GIgz1Kd246c7NuBHK57BlljPHVoqDPkye8jCcglU5UC5XF5/ww03vPUb3/jGQZMRH//4x7uWLn1y0apVL/xhb2//WzQZ2STKmBxjbdP0Gbju3HNxVqowjaARVVHpqmCwUYeybYRuCSnLuSiYSZeQ/E2ZWFr4ssUEcDDiedjqO/jqfffiwSiV855NSy7oxKlqFN1slp1a0mshCUNsGR3GJqV7si7oCFFppKikjEtbGCl52ONYWF+r4fk8l45aIlduUeOH45DAcQ0FzsIKKJx7OPfktfzZo2bJtQ3SoOM4E1g6wo09GxkbKAxq1/SGIEWE7zMtzhgbm1SfFrg4f+pMnN0zFXM6OjHdC1DKEpTlMxlUFskssqXzF4RAansdlPkyHDvDB7JtsQ74EFHBgeUrUtgnz4V+lb+LehazT9qaoFtduNbN9HtRUFMQK03HctmXeY/9K1oCUfsOqZE7PCT47ANyTQA4EA+wdTx2iJIni1I8cm17H7+91re4R+0xTGYB9z//vfffdojiUOZVk1aLEiQ9sPp8i2M0AbXNlWuepWmR1/6A0UontYQVEDXPwXApwPI9e/DI2nV4ZrBPHu4RPuBMNYogHYUhCO45wnI5Of200744a9bJT6VphqH+gamj1eEZvb29S3r7exdkWTbHcnTfGZ4g5YoYI6NyzvxyCZfNX4Dzp54kuogTa9RCVMjpPlI9h4BmUc5fu8xGBlG4cRx3qo4w+qxbbrosBsJAEGJpHuNr998rlhe/R5C7NKzgJFVDB+dkbmPQytHru1hfTcTaOzWwMBsBgiiBAw9RpYLn0hjPRiO6RMssa5zCDV6MSJ5Jxy8avE9Rneq1DFqHe22vBMj9P8dx3k5ir6x0SqFSqaBa5bqjtwJQHM9FllF4ENLqjWY6wY7W3RmlDsyb1IOzTpqJaWGAnpIPn2CVxXAUA6s09G3YKXW8dPPb4kflqfDreA5hGArAaTug2ORJkkbFtAZyTmYTNxTwIkiyE5npTl4AJP+mDGoIIJLPZ0jJ7QPf4icVeq6y15e8NwanDHjoekUNBtqKbf19725MAnLtnKj9jqLBU4CozUITco8w8w98WntzEw9+/s264mL/bbvba9cG5Pa1Ii1VyEG2ytGL8SOwJI6HqFTB1kaERzduxH0bVkuDG6ppkNgqal1txexU1JD7JFirEDA5QJUcQ2VickyXSWmi+tklGwtPmonzZ5+Kk8ud6EhiBGwqnaWSXNAt/vT46fOyTD21OQ6TDXaG3NIgp/lxBLkQ/UEZT1sK/+vnP8EmE4+mjtFiP0R3WkcXibmZhWoYYHnawNpYz/0FYYCZ8EUfbsgGVldreAEKm6Dkulmexfpwue+2g1gbFMw/MK83vu0zAq8EyBEcHqGAKoGA1QuUS9f6c7GQfAk+JPpKZs0UxxRCzjwhTp8iScGJeGpXiAUzZmB2dw+mBmVMdF10OD66coWuRgO+aX7L4wnQSQmttuaIXTwefwQsuBpLHMjUvtp0WNoASIiXWtG1sOwYeynAuQDSJlzKg7C3tdV6kIsHQ3SNDzD5dCezAmwKN26sr2aWH3BSFze2cGcLdYyW+65rLAtJ+v13os/3UCVzkjuXqpPDcLdlMAvrs31cDK2/zS5usGtUuYKGH2JPmmLt4ABW7NqO57ZuxaY8bzZgEWkio4IrNg0XzdCBqmXiklLeiPQNxtxmwcepU2dizoROnDO5B9NDH2XHQc4udCpD2Xd0K8GoIfLseneaKiLpD0l66WqNTCx7ilYS5Oix0Krk9wlyIR6Kavhfj/xcLDCeBxUGFoUT0JFU0cUFNs4xFJZwd31UrNSFlOQNexBkGQbtFE8nVWxUwB6qDVs26lJF4cFWETzbQU2XVRJD54yj20EW7FdqYHzfXxbHscQF2oGNGSpuBD8+gDbZkMbOElqvq9Vii1at5AUxIMxJSsBjH4mZ3T2YOXEypvoezphYRrdjibKp73qSZeLyrjXrIfuniypNrq3cNNgV7XZ5gDU+akCkBccf2QzY6Wba2h1qd2cN6jW1+Zug17ZstFzelmTOXuMtLesO4I4e0rVt38v+4Nlyo/XnilPaF7CaPTcEpFuxvQPNiaKsrv3VDNR+cc727+9vETZHysQR24RPDctfA6e+LxxzVjpkjofUK6Hh++hLY2zp68XGwX5sGBlBb6OOgZFRATzeTsbteEX0DDh3ekoupoddOCnswMmVCZjFxbLSiR7XQzlpoKQSKFpDtOx5bDNQtPDFGzHgtveioqs1MsmwkqTL1oRa5VriosZdvXd0ALc9+aAAGP90OWycF05AV1JHwJKw3MUmpLgrZy8t9mKdjO7cw2B9EOtRxwoAu0XiXItg5FyULQtuFvOOxfC8nXGS0Ase3w4yAq+IJdd2rPvN4sUFtOm+Sj9W9neQ3o7MQmjQ0U9kIW2qpHM3s7NWRtdUV04UHYj4yseSMZUeG5jaMxGTu7rQXalgUhhiSqUD3b6HTstFGTmo6uqnKawkgU2Ccm7JSuhSIIDeKzW96OMwjsfzo1tiFbE+/Z5YeHYrhmcz6WHKd4rzbgHJQWpq97H69n5wWnI9+92vJvC13zLtuu41bnsFv/fey4GtMqPOfIgEy/5uc2Hd6Ie92PYFteIvBwc7Xc6n6z+1y8qFqhBm0PeBoGEjyUmKpQvrIGds17UwlEWI8hwjtSpqjbooT9O2Ib0kLJXQFVakUsBXlnSNK1kWyq4r8wisWogjsUQ5H7nwMtRBz6OYo2LRy8UVV9KKsTJGx/ghO2OV2SOBYRLTdwS5h96whEfSEfzvB36JzcaKvMoNcKYdYELMUn2gWurA0kYfnhEwLuE0fxLqI6PYng9jA3Ih+KoSYDf4qPhIWMxKQE7VbkBxzR/fDjECrzTIFYffYNv2NKVU2GpKbZg9BDkCHF1CY0mJxSQtD1sRbMa+xFXMM6PQYBII5hHjpOXFkJpCt4QZqom2hUm+j+kdXZgzeTJmTJyA7rCMsuPCsy14rJ1MYimCdo17Kw1yGOhhUoNFNmJcii6EOCgSu8spLM1Av4OcOfvmE66BTYNJC+TEhWm/mDZ3jKoTOiNaxHgOcsf2ATltURmQ2ytJ0W6RaQvtpdxJ3fd2LNvewTvtbVrICPRtILcvkB4M9NqPKOuE5BE0DUMscCNVxBWImQINdg5ym8e0hc4R0eJ3HVg+g3OmTaYZp+ZCmkRC2uX9lRhszj6p2ipnCKNUqSBJU2QENqXDK67jy9/ZRUyO2VTo3d+Fl7pblSPkZ5Ehdkz8M/cwFARY4ab4u3t+gbUKomRyVccEzGwAHWmMxPOwxfPxaK1XVHsnVroQNoD+bFjAjeThWIKJFnxSa2g5lujqpDsQp+Pxt7FM26NOITn0QdeWSqV5URTJJKKAX26ysAxtFArDepbrLkLKuLcEgkJQsHjlw6UryAy4mKKYAuwYA+Fn+Uq3he5LxXIwoVJGd9cEdAU+poYOJnguKuUSOoIQHa6H0PFQpsqE5cBNNG+plLPSQsFOFSwmVVQuNZeW60oJWjuIaVAz4LFXcL+Zc2y6eLRRDxSvO3QsrNUDoBUDZCJBg5zE4kyigUBWxObaQUcXlbdUbV/69u0Nci1VmEOtk3u70/uJLeQaRLSmoFb0kIXCuKwMvuuMpU7CFHaVnI1jo5FqMQdm0bkQiYJNsy+w+Z5ZDEQk0kh5SFjCsVGPGhLmCElElgr5TPbFeyv3lfQOGpJGlp+np2uo9bLEBYSFVKyoZaY1cjXIucpF3Q6wy3Pwoycfw8r+EUyvBDjD6US5FiNAjj5b4dkcWJZUxdW2KDmVxJJhFV6grcMwSS3CRKeCalZHw7E3IYvH42+HxpqW7XEYnz1aH/13tq50HKdLZVmHTBRjsDXtnVZqEbaoD5sYmqYC68llskyZQ64SzYqWtSSJAknZG2vMWHuFzVXsnlYf/WjG+wQAmd31gK5SCZPKnejyA/SUK+h0PXQHZXm/7PoIHUfqch0Gjk0cR7iBRRxQNO4IXdoSlBC1PBQm1tQOfKxZNNLXTf7YPpZhe7uefUGKlsS+xJGDWVP6k61NoqF0uQ6R+ZVvGGvxQODbnjE96CRpA12x1grLVPrvavpLe4+PAjq1xBCtLxr7+vzFCjO8NIYMaG0JMBo5/KLxecASrESkH3SmXO9EroVqxDJurk6EsTEM26QzO8ryMSqB2IGHapbs1VBJ31eIi6pHTidLCHApf3jCUl/tIrU8VIMQK7Ztw3O7dsAvhQhqKZJ6TT67MaphBXX0lG7qTAdWn5OLVMjzRFegTKWTLK4C1oYGknH+22Ei0aGW4cPc3WF//A7Lwfl5jom2g1ClqHCBJai1r//lsIRandpblsjOkHsnEs4siZGYSevhJR9P4n2kDVCl1YBf8R2+p+kf7JTZasBbACcHpIj/FTHAAgypZlz2A1TCEjrKZXR4LqZ4LjpsG12VLmHCh66PCeVQOpdNKPGV0lO5BJlpCVqZMskQSwRaM2blqBcmPS+1KyyYInxA/UDKQ80yEdna3GCRhndhkyPXlsDYD3RMdnjfLLC4YqKiaHiFBkAkS22GtOAVFnf2QDHHA4GcWD5FGMLYZgVpWSvn6jvM5st0E7VWoP4O1XU1G42xUh0fk4XJiDFI1M1USgjoCRfShC8K2k+RSOFcYsLJLDZiEZqYK08hYlG9iQGyObTI7QsQOrownnpvcirajWboQpcVcp/6XHVFju56qq08WnIskvdQczxsqVaxeqAXo66N9Xt2YMvwAAYUpGKBlJAR4i8rFWixura0cuVSTtuU55ZDbQSy10Sj58NGiKPwhWMNcntfgo1/RI6zfdeamCR5ELiOn6aZLLJMKKlcjC7Z2PmL3b54AYyvEfxcxzYrIOAHJTQi6SMJlu0wIM1XPtjNJEPz4dubxqC9ZQ0m7dafgI85Pr9B8GPGl1YgXwlDrE2kpVe2bUzq7ETZ9tDheeimRVgqozMIBCgpuMjzLrtUs6DnZGJpKhXFFj5ANq2nhGCus2uurV0ySQLw7xkrHr0mMVUeeKE0aCtASKx0r+UJ1/YrLT/RijUxziy1BHDaCdHcTwEyBejKe22GoO72qRuMt46rB0eSNG13tkiOFEAkgCbZbSpt6LRFk6fYjD22JTOaVl6r2VGx/wM3Omp9VziPpk+vWPdCwNXHluyySytSW5ZyJXKyeiEsss8CrgQ0tk8UsGQ8l9dJIHSQWBYahs9IgGM9Ku8MC/Sjko9VO3fi2a2bsWrPLuyyUmzPNaGXpYo17i/0oaIYtmdDsS8jm+TYARKV1lLhvyWvqT6oRwG3DmsXxxfIHerUbftryK0Fbuh3po16KM3Ic5bwW4FlOd3MjHEL/ABJHCHwPUSxpqzIg7TP/h3RreNj1pY82DdJINnW1jfbaSRFvK9QvKNNVJAxiMaMFxbk08JqJCCGroUKaxMdHz20Ch0XnWEZHSGzgaH8TPBDhI6FQFkIbAshbCGnMhZIDpfuf6FjSEKXaePy8UrFiJIG4HTnjIXE6DxpCGItml4EbXp92oLTHEGdrNCWVgHuehj0sYr0hm5EpEFBMKLtVVt4bZZnYWVCAjLjAAAGWUlEQVSZqhEZV+PaF2Clkw76iPxzEYNjjIxAzTiZruzQEQrL8vYRVTUUDoNXdEXbieIEqIJcTaqISgvCiblOSW4ZYrkY1prUrmN4ui2g9A8m8OZcaH1RTklKLhTrR7Mcg1EDO+pV7M4ivLBnF9b27cHaEV27Wij2FnhqizBs0mTwcGg8ZlETtVQhXXSoR2L874cegRML5F76ev7ccZwrLcuamKZp2bERKDYFc21XpYqFFE1Lz/dsTiIBPa1KbDIdB8iCticQDnh4Y3mwsqJer4vFxVaN7Vu7ndg+4AQ+ZoLbaTEFt4snzH9P6ZiAsuWi4nmo+B463EBUXstBCaHnYPLETu1CkQLBH+qcGYuPYJEnDIpb4rLxd+myLiDF1xwxm3/TXTI2ajOYboBMroN9CMhp5PhI3zuWOxkLzlg0eiEpqk5oKWp+YUHL2XfsClDOCvfc1DgLwDRLzeg1esaF1YuUHJZt+cRFJ7zqBUpaXbZbhMYWJzhpF1ifgRYuMqCfZwg9LVDJShbtGuqN+m7cSo4natWM88VUP2HnOf6QpGZ7yK0KhhoJdlZH0Ds8it7BIewYGcTW+gh2q1RTQBygStHsIhbCHsV2CVaqkFPi32eFRIIklVZQfVaOBzLg+kM/vuOfGMsIvJZA7iWu17ojLHfOrddqZcAidriwKRtmeciTHuHGNQvdJQze3Jdb8OOKGJX5i44R2chyZy/XOPApjpMjiWNJmrA+VzapxGiLHhqLx2FJmvxbOPVaX0xcYTo8IkUqIFjEDCXhZ1zlZnG5A5Q9C+UwQFcQIvQCVFxfssN0mfnKjHGJWUTXRej5klEs2Uy2KHiGEiOnadxNcfHElDLnRZY/Y2kmTcQ4oCR2pBFLO3VGB+QZfCfdRywgUz0iY0ZrUeqITT8Er9RqzCxkbf29lvGsq0bEfTTnpkFKnEqT2dSVLoLHPKsm57Id+NosNXNPCWoRyeiMTTq2NLnWZ9YCUa5XVC0mVSXxbVQthd7aCLYPDWJ3o441e/rRH0foH6lhWJG4rC14JhG0iIDWgaPXEHFnrgt4PkAPQ1Ew04PKGkihhi0HS/MMV47lwR3/zNhH4D8IyL3kgHwSNi6FEmodDasyuaMGRyo2MLP49v6DxdVfO6QimiMJkSJBwLcpO8UMrLCN9z8J+iatCva9HeoikVC4oSYO134OfGy5C0kaHsA1LizEgkJT0Gh86Owwff1JgSud0wh6LL0r+b5+JV+M2SDfk3gh/y3kac8W3hnBS+S4HVa8a/ATt87KxZrk7wVISuG6UYMTyV2TdWZmt0Ezh1UDhRtsqCIaqGgJmoxjs45Yj4DeD/9ITTZtQRbg1wQ58z5dXbH8hKYinWE0aOYWEkrvk8rEeK6VS9PlWhKhHiUiPlmPYoxGEQZGq+itVzFQr6OvXkVfroTHxtiapvVqm7+gM5M1pyk8+m9i4fP4Es+w4Ve6EA/rng+VoLR2NBo5feyP7fgnD2cExkHuUKNl459gWWfYltVhww6yLPNytidnUYQ2sIQ87wdBRxxFge/pGt19N3noTdE/XbhCpaUZQDcCA/pBbamhHAAZm2+1SMatbHTheBcWYbsFWFhqxWsBjMXvhVvNcyq4iEUska9EfmaAfHLRbCZMmG325JWg6XseAs9FwFeCn2UL95CJExKvmTghUEr3KdNMmeAqwXxacQYAdUaZ0pjaDS9iYmLdkboh5GD9PoGJoEHQkxBf01LUSZhGFCNSKerkn6lUumvFeSZF7bwPo6M1KSBIKNKaENDqGG40MJJqrhoBjNYZsck01TLWnrbUSNbl+6SeaNhlH2FjfRLkVIpS6KFR17FhjqGcpybGjGSWswt5wt4249srNALjIHf0Bvb3YeE3kEtbzdBxLDfLcpsPuE4CGNmxvY8nGMdcgHmOzGOs23DK82VZaa75IdqnJWFE3zV6uWzrZBS7Rb2RdPjCu9WGnpYp0XVR/LJOZmoMLJBQG1d6M6+actFsJtWk9BQpmnbKTfvnCuAsXtvpOHzAC3e7GZ4yq0RxKsUptA9IsY8i2dH+u3SlMoTvAqzbE0yF60iwYuCfUMOfwt5uj5fyvUJuXbrRW0a7rshaSU2qLFfyH9ltyo5lkFxisgBXEeOVO2RpnTkdj6BR7+uWDZEHe2gIarzm9Og9fwfd0/8PaSsFjh9TxbkAAAAASUVORK5CYII=;" vertex="1" parent="7">
                    <mxGeometry x="640" y="130" width="233" height="190.57" as="geometry"/>
                </mxCell>
            </root>
        </mxGraphModel>
    </diagram>
</mxfile>